<svg width="24" height="24" viewBox="0 0 24 24" fill="none" xmlns="http://www.w3.org/2000/svg">
<g clip-path="url(#clip0_540_75)">
<rect width="24" height="24" rx="12" fill="#E0EEFE"/>
<g clip-path="url(#clip1_540_75)">
<path d="M16.5 9.75C16.5 12.2352 14.4855 14.25 12 14.25C9.51445 14.25 7.5 12.2355 7.5 9.75C7.5 7.26445 9.5148 5.25 12 5.25C14.4855 5.25 16.5 7.2648 16.5 9.75Z" fill="#99C6FB"/>
<path d="M13.8673 16.5H10.1327C6.6084 16.5 3.75 19.5783 3.75 23.3747C3.75 24.1339 4.32161 24.75 5.02654 24.75H18.9742C19.6791 24.7512 20.25 24.1363 20.25 23.3747C20.25 19.5783 17.392 16.5 13.8673 16.5Z" fill="#99C6FB"/>
</g>
</g>
<rect x="0.375" y="0.375" width="23.25" height="23.25" rx="11.625" stroke="white" stroke-opacity="0.7" stroke-width="0.75"/>
<defs>
<clipPath id="clip0_540_75">
<rect width="24" height="24" rx="12" fill="white"/>
</clipPath>
<clipPath id="clip1_540_75">
<rect width="24" height="24" rx="12" fill="white"/>
</clipPath>
</defs>
</svg>
