<svg width="112" height="112" viewBox="0 0 112 112" fill="none" xmlns="http://www.w3.org/2000/svg">
<g clip-path="url(#clip0_793_3863)">
<circle opacity="0.2" cx="56" cy="56" r="56" fill="#D9D9D9"/>
<circle opacity="0.4" cx="55.9997" cy="56.0002" r="40.32" fill="#D9D9D9"/>
<rect x="17.3516" y="73.6152" width="0.525822" height="4.73239" rx="0.262911" fill="#9DCA00"/>
<rect x="19.9805" y="75.7183" width="0.525822" height="4.73239" rx="0.262911" transform="rotate(90 19.9805 75.7183)" fill="#9DCA00"/>
<rect x="86.2949" y="87.8115" width="0.408972" height="3.68075" rx="0.204486" fill="#9DCA00"/>
<rect x="88.3398" y="89.4478" width="0.408972" height="3.68075" rx="0.204486" transform="rotate(90 88.3398 89.4478)" fill="#9DCA00"/>
<rect x="96.2266" y="19.4551" width="0.525822" height="4.73239" rx="0.262911" fill="#9DCA00"/>
<rect x="98.8555" y="21.5586" width="0.525822" height="4.73239" rx="0.262911" transform="rotate(90 98.8555 21.5586)" fill="#9DCA00"/>
<rect x="31.8398" y="16.8892" width="0.467397" height="4.20657" rx="0.233699" fill="#9DCA00"/>
<rect x="34.1777" y="18.7588" width="0.467397" height="4.20657" rx="0.233699" transform="rotate(90 34.1777 18.7588)" fill="#9DCA00"/>
<circle cx="13.4398" cy="26.8802" r="2.61333" stroke="#9DCA00" stroke-width="0.746667"/>
<circle cx="49.2796" cy="94.0799" r="2.61333" stroke="#9DCA00" stroke-width="0.746667"/>
</g>
<circle cx="56.7466" cy="55.9995" r="26.1333" fill="#9DCA00"/>
<circle cx="56.7467" cy="55.9997" r="18.6667" fill="#9DCA00"/>
<path d="M47.7871 55.0807L53.2353 61.367C53.519 61.6945 54.0211 61.7124 54.3275 61.406L65.7071 50.0264" stroke="white" stroke-width="3.73333" stroke-linecap="round"/>
<defs>
<clipPath id="clip0_793_3863">
<rect width="112" height="112" fill="white"/>
</clipPath>
</defs>
</svg>
