<svg width="15" height="15" viewBox="0 0 15 15" fill="none" xmlns="http://www.w3.org/2000/svg">
<g clip-path="url(#clip0_1277_17078)">
<rect x="0.5" y="0.5" width="14" height="14" fill="white" fill-opacity="0.01"/>
<path d="M12.9291 3.36152L12.158 3.96445C11.1066 2.62051 9.47149 1.75781 7.63536 1.75781C4.46485 1.75781 1.89864 4.32129 1.89454 7.49316C1.89043 10.6678 4.46211 13.2422 7.63536 13.2422C10.1141 13.2422 12.2264 11.6699 13.0303 9.46738C13.0508 9.40996 13.0207 9.3457 12.9633 9.32656L12.1881 9.05996C12.1611 9.0507 12.1315 9.05238 12.1057 9.06464C12.0799 9.0769 12.0599 9.09878 12.05 9.12559C12.0254 9.19395 11.9981 9.2623 11.9693 9.3293C11.7328 9.88984 11.3938 10.393 10.9617 10.825C10.5332 11.2544 10.0258 11.5969 9.46739 11.834C8.88907 12.0787 8.27247 12.2031 7.63809 12.2031C7.00235 12.2031 6.38711 12.0787 5.80879 11.834C5.24985 11.5979 4.74228 11.2552 4.31446 10.825C3.88475 10.3965 3.54252 9.8885 3.30684 9.3293C3.06211 8.74961 2.9377 8.13438 2.9377 7.49863C2.9377 6.86289 3.06211 6.24766 3.30684 5.66797C3.54336 5.10742 3.88243 4.6043 4.31446 4.17227C4.74649 3.74023 5.24961 3.40117 5.80879 3.16328C6.38711 2.91855 7.00372 2.79414 7.63809 2.79414C8.27383 2.79414 8.88907 2.91855 9.46739 3.16328C10.0263 3.39932 10.5339 3.74204 10.9617 4.17227C11.0971 4.30762 11.2242 4.45117 11.3418 4.60156L10.5188 5.24414C10.5025 5.25674 10.4901 5.27368 10.483 5.29301C10.4759 5.31234 10.4744 5.33328 10.4787 5.35341C10.483 5.37355 10.4929 5.39207 10.5072 5.40684C10.5215 5.42161 10.5398 5.43204 10.5598 5.43691L12.9606 6.0248C13.0289 6.04121 13.0959 5.98926 13.0959 5.91953L13.1068 3.44629C13.1055 3.35605 13.0002 3.30547 12.9291 3.36152Z" fill="black" fill-opacity="0.85"/>
</g>
<rect x="0.5" y="0.5" width="14" height="14" stroke="black" stroke-dasharray="2 2"/>
<defs>
<clipPath id="clip0_1277_17078">
<rect x="0.5" y="0.5" width="14" height="14" fill="white"/>
</clipPath>
</defs>
</svg>
