<svg width="22" height="19" viewBox="0 0 22 19" fill="none" xmlns="http://www.w3.org/2000/svg">
<path d="M20.6312 13.4508H6.67412L7.3749 12.0234L19.0187 12.0023C19.4124 12.0023 19.7499 11.7211 19.8202 11.332L21.4327 2.30625C21.4749 2.06953 21.4116 1.82578 21.2569 1.64062C21.1805 1.5495 21.0851 1.4761 20.9775 1.42551C20.8698 1.37492 20.7524 1.34835 20.6335 1.34766L5.821 1.29844L5.69443 0.703125C5.61475 0.323437 5.27256 0.046875 4.8835 0.046875H1.2624C1.04298 0.046875 0.832539 0.134041 0.677382 0.289198C0.522225 0.444355 0.435059 0.654794 0.435059 0.874219C0.435059 1.09364 0.522225 1.30408 0.677382 1.45924C0.832539 1.6144 1.04298 1.70156 1.2624 1.70156H4.21318L4.76631 4.33125L6.12803 10.9242L4.3749 13.7859C4.28386 13.9088 4.22902 14.0547 4.2166 14.2071C4.20417 14.3596 4.23465 14.5124 4.30459 14.6484C4.44521 14.9273 4.72881 15.1031 5.04287 15.1031H6.51475C6.20096 15.5199 6.03147 16.0275 6.03193 16.5492C6.03193 17.8758 7.11006 18.9539 8.43662 18.9539C9.76318 18.9539 10.8413 17.8758 10.8413 16.5492C10.8413 16.0266 10.6679 15.518 10.3585 15.1031H14.1343C13.8205 15.5199 13.651 16.0275 13.6515 16.5492C13.6515 17.8758 14.7296 18.9539 16.0562 18.9539C17.3827 18.9539 18.4608 17.8758 18.4608 16.5492C18.4608 16.0266 18.2874 15.518 17.978 15.1031H20.6335C21.0882 15.1031 21.4608 14.7328 21.4608 14.2758C21.4595 14.0566 21.3715 13.8468 21.216 13.6923C21.0606 13.5377 20.8504 13.4509 20.6312 13.4508ZM6.16553 2.92969L19.6608 2.97422L18.339 10.3758L7.73818 10.3945L6.16553 2.92969ZM8.43662 17.2898C8.02881 17.2898 7.696 16.957 7.696 16.5492C7.696 16.1414 8.02881 15.8086 8.43662 15.8086C8.84443 15.8086 9.17725 16.1414 9.17725 16.5492C9.17725 16.7456 9.09922 16.934 8.96032 17.0729C8.82143 17.2118 8.63305 17.2898 8.43662 17.2898ZM16.0562 17.2898C15.6483 17.2898 15.3155 16.957 15.3155 16.5492C15.3155 16.1414 15.6483 15.8086 16.0562 15.8086C16.464 15.8086 16.7968 16.1414 16.7968 16.5492C16.7968 16.7456 16.7187 16.934 16.5799 17.0729C16.441 17.2118 16.2526 17.2898 16.0562 17.2898Z" fill="#434343"/>
</svg>
