<svg width="21" height="17" viewBox="0 0 21 17" fill="none" xmlns="http://www.w3.org/2000/svg">
<path d="M19.8999 7C20.1499 7 20.3999 7.25 20.3999 7.5V8.5C20.3999 8.78125 20.1499 9 19.8999 9H17.8999V11C17.8999 11.2812 17.6499 11.5 17.3999 11.5H16.3999C16.1187 11.5 15.8999 11.2812 15.8999 11V9H13.8999C13.6187 9 13.3999 8.78125 13.3999 8.5V7.5C13.3999 7.25 13.6187 7 13.8999 7H15.8999V5C15.8999 4.75 16.1187 4.5 16.3999 4.5H17.3999C17.6499 4.5 17.8999 4.75 17.8999 5V7H19.8999ZM7.3999 8.5C5.18115 8.5 3.3999 6.71875 3.3999 4.5C3.3999 2.3125 5.18115 0.5 7.3999 0.5C9.5874 0.5 11.3999 2.3125 11.3999 4.5C11.3999 6.71875 9.5874 8.5 7.3999 8.5ZM10.1812 9.5C12.4937 9.5 14.3999 11.4062 14.3999 13.7188V15C14.3999 15.8438 13.7124 16.5 12.8999 16.5H1.8999C1.05615 16.5 0.399902 15.8438 0.399902 15V13.7188C0.399902 11.4062 2.2749 9.5 4.5874 9.5H5.11865C5.80615 9.84375 6.5874 10 7.3999 10C8.2124 10 8.9624 9.84375 9.6499 9.5H10.1812Z" fill="white"/>
</svg>
