<svg width="15" height="15" viewBox="0 0 15 15" fill="none" xmlns="http://www.w3.org/2000/svg">
<path d="M13.1665 0.5C13.979 0.5 14.6665 1.1875 14.6665 2V13C14.6665 13.8438 13.979 14.5 13.1665 14.5H2.1665C1.32275 14.5 0.666504 13.8438 0.666504 13V2C0.666504 1.1875 1.32275 0.5 2.1665 0.5H13.1665ZM12.979 13C13.0728 13 13.1665 12.9375 13.1665 12.8125V2.1875C13.1665 2.09375 13.0728 2 12.979 2H2.354C2.229 2 2.1665 2.09375 2.1665 2.1875V12.8125C2.1665 12.9375 2.229 13 2.354 13H12.979ZM11.2915 3.5C11.479 3.5 11.6665 3.6875 11.6665 3.875L11.6353 8.125C11.6353 8.34375 11.479 8.5 11.2603 8.5H10.4165C10.1978 8.5 10.0103 8.34375 10.0415 8.125L10.104 6.3125L5.01025 11.4062C4.854 11.5625 4.63525 11.5625 4.479 11.4062L3.76025 10.6875C3.604 10.5312 3.604 10.3125 3.76025 10.1562L8.854 5.0625L7.0415 5.125C6.82275 5.15625 6.6665 4.96875 6.6665 4.75V3.90625C6.6665 3.6875 6.82275 3.53125 7.0415 3.53125L11.2915 3.5Z" fill="#595959"/>
</svg>
