<svg width="18" height="18" viewBox="0 0 18 18" fill="none" xmlns="http://www.w3.org/2000/svg">
<g clip-path="url(#clip0_476_1057)">
<path d="M15.8822 4.51205L11.559 0.188839C11.4385 0.0683036 11.2758 0 11.105 0H2.57108C2.2155 0 1.92822 0.287277 1.92822 0.642857V17.3571C1.92822 17.7127 2.2155 18 2.57108 18H15.4282C15.7838 18 16.0711 17.7127 16.0711 17.3571V4.96808C16.0711 4.79732 16.0028 4.63259 15.8822 4.51205ZM14.5885 5.26339H10.8077V1.48259L14.5885 5.26339ZM14.6247 16.5536H3.37465V1.44643H9.44162V5.78571C9.44162 6.00949 9.53051 6.2241 9.68874 6.38234C9.84698 6.54057 10.0616 6.62946 10.2854 6.62946H14.6247V16.5536ZM8.83894 11.1295H5.14251C5.05412 11.1295 4.98179 11.2018 4.98179 11.2902V12.2545C4.98179 12.3429 5.05412 12.4152 5.14251 12.4152H8.83894C8.92733 12.4152 8.99965 12.3429 8.99965 12.2545V11.2902C8.99965 11.2018 8.92733 11.1295 8.83894 11.1295ZM4.98179 8.55804V9.52232C4.98179 9.61071 5.05412 9.68304 5.14251 9.68304H12.8568C12.9452 9.68304 13.0175 9.61071 13.0175 9.52232V8.55804C13.0175 8.46964 12.9452 8.39732 12.8568 8.39732H5.14251C5.05412 8.39732 4.98179 8.46964 4.98179 8.55804Z" fill="#262626"/>
</g>
<defs>
<clipPath id="clip0_476_1057">
<rect width="18" height="18" fill="white"/>
</clipPath>
</defs>
</svg>
