<svg width="16" height="16" viewBox="0 0 16 16" fill="none" xmlns="http://www.w3.org/2000/svg">
<path d="M11.4029 1.19551C11.3814 1.18467 11.3575 1.17953 11.3334 1.1806C11.3093 1.18167 11.2859 1.1889 11.2655 1.20161C11.245 1.21431 11.2281 1.23206 11.2165 1.25316C11.2049 1.27425 11.1988 1.29798 11.199 1.32207V2.45059C11.199 2.54727 11.25 2.63691 11.3308 2.68965C11.7272 2.93915 12.094 3.23282 12.4242 3.56504C12.999 4.1416 13.4508 4.81133 13.7654 5.55664C14.0908 6.3282 14.2576 7.15736 14.2558 7.99473C14.2558 8.84023 14.0906 9.66113 13.7654 10.4328C13.4511 11.177 12.9957 11.8534 12.4242 12.4244C11.8547 12.9973 11.1787 13.4535 10.4344 13.7674C9.66444 14.0943 8.84354 14.2596 7.99979 14.2596C7.15604 14.2596 6.33514 14.0943 5.56522 13.7674C4.82085 13.4535 4.14493 12.9973 3.57538 12.4244C3.00391 11.8534 2.54846 11.177 2.23417 10.4328C1.90876 9.66125 1.74197 8.8321 1.74374 7.99473C1.74374 7.14922 1.90897 6.32832 2.23417 5.55664C2.54881 4.81133 3.00057 4.1416 3.57538 3.56504C3.90936 3.23105 4.27499 2.93926 4.66874 2.68965C4.75135 2.63867 4.80057 2.54727 4.80057 2.45059V1.32031C4.80057 1.21484 4.68983 1.14805 4.59667 1.19375C2.13749 2.43125 0.441197 4.96426 0.40604 7.8998C0.356822 12.0975 3.78983 15.585 7.98573 15.5938C12.1869 15.6025 15.5935 12.1959 15.5935 7.99297C15.5935 5.01875 13.8885 2.44355 11.4029 1.19551ZM7.43729 8.84375H8.56229C8.63963 8.84375 8.70292 8.78047 8.70292 8.70312V0.546875C8.70292 0.469531 8.63963 0.40625 8.56229 0.40625H7.43729C7.35995 0.40625 7.29667 0.469531 7.29667 0.546875V8.70312C7.29667 8.78047 7.35995 8.84375 7.43729 8.84375Z" fill="#262626"/>
</svg>
