<svg xmlns="http://www.w3.org/2000/svg" width="14" height="14" viewBox="0 0 14 14" fill="none">
    <path
        d="M12.5687 1.30492C11.0823 -0.434737 8.6643 -0.434737 7.17835 1.30492L6.83321 1.70875L6.48827 1.30492C5.00231 -0.434973 2.58411 -0.434973 1.09816 1.30492C-0.357629 3.00925 -0.367083 5.71081 1.07623 7.58915C2.39264 9.30173 6.27507 13.0017 6.4398 13.1583C6.55162 13.2647 6.68618 13.3165 6.81993 13.3165C6.82436 13.3165 6.82878 13.3165 6.83301 13.3163C6.97138 13.3238 7.11077 13.2682 7.22622 13.1583C7.39094 13.0017 11.2738 9.30173 12.5906 7.58892C14.0337 5.71081 14.0242 3.00925 12.5687 1.30492ZM11.6935 6.64398C10.6672 7.97886 7.8459 10.732 6.83301 11.7089C5.82011 10.7322 2.99945 7.97933 1.97328 6.64421C0.966416 5.33405 0.956963 3.46819 1.95135 2.30402C2.45921 1.70969 3.12616 1.41229 3.79311 1.41229C4.46006 1.41229 5.12701 1.70946 5.63487 2.30402L6.39354 3.19221C6.48384 3.29794 6.59768 3.36105 6.71715 3.38318C6.91105 3.43192 7.12143 3.36858 7.27228 3.19245L8.03135 2.30402C9.04726 1.11513 10.6998 1.11536 11.7151 2.30402C12.7095 3.46819 12.7 5.33405 11.6935 6.64398Z"
        fill="currentColor" />
</svg>