<svg width="84" height="84" viewBox="0 0 84 84" fill="none" xmlns="http://www.w3.org/2000/svg">
<rect x="0.833252" y="0.5" width="83" height="83" rx="41.5" fill="#9CCC65"/>
<rect x="0.833252" y="0.5" width="83" height="83" rx="41.5" fill="#F7F7F7"/>
<path d="M59.6458 47.875C60.1145 47.875 60.5833 48.3438 60.5833 48.8125V50.6875C60.5833 51.2148 60.1145 51.625 59.6458 51.625H56.8333C56.8333 54.7305 54.3137 57.25 51.2083 57.25C48.1028 57.25 45.5833 54.7305 45.5833 51.625H38.0833C38.0833 54.7305 35.5637 57.25 32.4583 57.25C29.3528 57.25 26.8333 54.7305 26.8333 51.625V44.125H35.7395C35.9739 44.125 36.2083 43.9492 36.2083 43.6562V42.7188C36.2083 42.4844 35.9739 42.25 35.7395 42.25H23.552C23.259 42.25 23.0833 42.0742 23.0833 41.7812V40.8438C23.0833 40.6094 23.259 40.375 23.552 40.375H37.6145C37.8489 40.375 38.0833 40.1992 38.0833 39.9062V38.9688C38.0833 38.7344 37.8489 38.5 37.6145 38.5H25.427C25.134 38.5 24.9583 38.3242 24.9583 38.0312V37.0938C24.9583 36.8594 25.134 36.625 25.427 36.625H39.4895C39.7239 36.625 39.9583 36.4492 39.9583 36.1562V35.2188C39.9583 34.9844 39.7239 34.75 39.4895 34.75H23.552C23.259 34.75 23.0833 34.5742 23.0833 34.2812V33.3438C23.0833 33.1094 23.259 32.875 23.552 32.875H26.8333V30.0625C26.8333 28.5391 28.0637 27.25 29.6458 27.25H44.6458C46.1692 27.25 47.4583 28.5391 47.4583 30.0625V32.875H50.0364C50.7395 32.875 51.5012 33.2266 52.0286 33.7539L57.8293 39.5547C58.3567 40.082 58.7083 40.8438 58.7083 41.5469V47.875H59.6458ZM32.4583 54.4375C33.9817 54.4375 35.2708 53.207 35.2708 51.625C35.2708 50.1016 33.9817 48.8125 32.4583 48.8125C30.8762 48.8125 29.6458 50.1016 29.6458 51.625C29.6458 53.207 30.8762 54.4375 32.4583 54.4375ZM51.2083 54.4375C52.7317 54.4375 54.0208 53.207 54.0208 51.625C54.0208 50.1016 52.7317 48.8125 51.2083 48.8125C49.6262 48.8125 48.3958 50.1016 48.3958 51.625C48.3958 53.207 49.6262 54.4375 51.2083 54.4375ZM55.8958 42.25V41.5469L50.0364 35.6875H47.4583V42.25H55.8958Z" fill="#79B530"/>
</svg>
