<svg width="75" height="75" viewBox="0 0 75 75" fill="none" xmlns="http://www.w3.org/2000/svg">
<path d="M37.5002 67.247C35.9467 67.2492 34.4083 66.941 32.9755 66.3405C31.5426 65.74 30.2442 64.8593 29.1565 63.7501C22.1237 56.7844 15.4833 49.4335 9.26586 41.7313C2.18773 32.7657 2.55961 21.2095 10.1221 14.2657C13.8576 11.024 18.6702 9.29619 23.6146 9.42167C28.559 9.54714 33.2777 11.5168 36.844 14.9438L37.5002 15.5688L38.1596 14.9438C41.7276 11.5199 46.4462 9.55255 51.3897 9.42767C56.3333 9.3028 61.1451 11.0294 64.8815 14.2688C72.4409 21.2157 72.8002 32.7688 65.7346 41.747C59.5175 49.4444 52.877 56.7902 45.844 63.7501C44.7567 64.8599 43.4583 65.741 42.0254 66.3415C40.5925 66.9421 39.0539 67.2499 37.5002 67.247ZM22.8471 14.0876C19.319 14.0533 15.9073 15.3486 13.2909 17.7157C6.82523 23.6532 8.22523 32.8407 12.9502 38.8438C19.0626 46.4066 25.5893 53.625 32.5002 60.4657C33.8459 61.7641 35.6428 62.4897 37.5127 62.4897C39.3827 62.4897 41.1796 61.7641 42.5252 60.4657C49.4326 53.6264 55.9551 46.409 62.0627 38.847C66.7877 32.8438 68.1877 23.6595 61.7221 17.7188C58.8561 15.2714 55.1793 13.9827 51.4125 14.1052C47.6457 14.2278 44.0605 15.7528 41.3596 18.3813L39.1065 20.472C38.6728 20.8732 38.1036 21.0961 37.5127 21.0961C36.9219 21.0961 36.3527 20.8732 35.919 20.472L33.669 18.3845C30.7327 15.6386 26.8672 14.1037 22.8471 14.0876Z" fill="#9DCA00"/>
<path d="M40.6252 46.094C40.4668 46.0939 40.3087 46.0782 40.1534 46.0471C39.7733 45.9691 39.4185 45.7977 39.1212 45.5484C38.8239 45.2991 38.5933 44.9797 38.4502 44.619L33.8534 33.1252L30.0752 38.8002C29.8614 39.1215 29.5715 39.3848 29.2313 39.5669C28.8911 39.749 28.5111 39.8442 28.1252 39.844H21.8752C21.2536 39.844 20.6575 39.597 20.218 39.1575C19.7784 38.718 19.5315 38.1218 19.5315 37.5002C19.5315 36.8786 19.7784 36.2825 20.218 35.8429C20.6575 35.4034 21.2536 35.1565 21.8752 35.1565H26.8752L32.4284 26.8252C32.6681 26.4741 32.9973 26.1934 33.3819 26.0121C33.7665 25.8308 34.1925 25.7555 34.6159 25.794C35.0405 25.8387 35.4447 25.9986 35.7851 26.2563C36.1255 26.5141 36.3889 26.8599 36.5471 27.2565L41.4784 39.5815L45.2284 35.8315C45.4455 35.6133 45.7036 35.4403 45.9878 35.3223C46.2721 35.2043 46.5769 35.1437 46.8846 35.144H53.1346C53.7562 35.144 54.3524 35.3909 54.7919 35.8304C55.2314 36.27 55.4784 36.8661 55.4784 37.4877C55.4784 38.1093 55.2314 38.7055 54.7919 39.145C54.3524 39.5845 53.7562 39.8315 53.1346 39.8315H47.8471L42.2815 45.4065C41.8424 45.8461 41.2466 46.0934 40.6252 46.094Z" fill="#9DCA00"/>
</svg>
