<svg width="84" height="84" viewBox="0 0 84 84" fill="none" xmlns="http://www.w3.org/2000/svg">
<rect x="0.5" y="0.5" width="83" height="83" rx="41.5" fill="#9CCC65"/>
<rect x="0.5" y="0.5" width="83" height="83" rx="41.5" fill="#F7F7F7"/>
<path d="M59.2266 34.2227C61.1602 37.3867 59.4023 41.7227 55.7695 42.1914C55.4766 42.25 55.2422 42.25 54.9492 42.25C53.1914 42.25 51.668 41.4883 50.6133 40.3164C49.5586 41.4883 48.0352 42.25 46.2773 42.25C44.5781 42.25 42.9961 41.4883 41.9414 40.3164C40.8867 41.4883 39.3633 42.25 37.6641 42.25C35.9062 42.25 34.3828 41.4883 33.3281 40.3164C32.2734 41.4883 30.75 42.25 28.9922 42.25C28.6992 42.25 28.4648 42.25 28.1719 42.1914C24.5391 41.7227 22.7812 37.3867 24.7734 34.2227L28.5234 28.1289C28.875 27.6016 29.5195 27.25 30.1641 27.25H53.8359C54.4805 27.25 55.0664 27.6016 55.418 28.1289L59.2266 34.2227ZM54.9492 44.125C55.3008 44.125 55.6523 44.125 56.0039 44.0664C56.3555 44.0664 56.6484 43.9492 57 43.8906V55.375C57 56.4297 56.1211 57.25 55.125 57.25H28.875C27.8203 57.25 27 56.4297 27 55.375V43.8906C27.293 43.9492 27.5859 44.0078 27.9375 44.0664C28.2891 44.125 28.6406 44.125 28.9922 44.125C29.5781 44.125 30.1641 44.0664 30.75 43.9492V49.75H53.25V43.9492C53.7773 44.0664 54.3633 44.125 54.9492 44.125Z" fill="#79B530"/>
</svg>
 