<svg width="75" height="71" viewBox="0 0 75 71" fill="none" xmlns="http://www.w3.org/2000/svg">
<path d="M39.5593 38.2697C41.8384 37.1837 42.5822 33.9897 41.2276 31.1521C39.8706 28.3051 36.9214 26.872 34.6423 27.9581C32.3632 29.0441 31.6194 32.2382 32.9764 35.0852C34.3334 37.9275 37.2826 39.3606 39.5593 38.2697Z" fill="#9DCA00"/>
<path d="M46.3895 21.28C48.5807 34.9948 38.8204 45.2756 38.8204 45.2756C38.8204 45.2756 30.7735 31.6606 17.2417 27.5516C43.5639 46.7989 28.5824 70.7945 28.5824 70.7945H36.2015C36.2015 70.7945 53.9135 40.2303 46.3895 21.28Z" fill="#9DCA00"/>
<path d="M31.5336 22.8462C31.3862 22.6276 31.2365 22.3947 31.0868 22.138C30.3905 20.9355 30.072 19.8186 30.072 19.8186C30.072 19.8186 30.8753 20.6598 31.5716 21.8552C31.7166 22.1095 31.8425 22.359 31.959 22.5967C32.0683 22.0239 32.1966 20.8476 31.6405 19.878C30.8729 18.5495 29.1048 18.136 29.1048 18.136C29.1048 18.136 28.5772 19.8756 29.3448 21.2064C29.9009 22.176 30.9846 22.6537 31.5336 22.8462Z" fill="#9DCA00"/>
<path d="M49.0083 32.9345C49.4503 33.3148 50.4057 34.0134 51.5203 34.0134C53.0555 34.0134 54.296 32.685 54.296 32.685C54.296 32.685 53.0579 31.3589 51.5203 31.3589C50.4057 31.3589 49.4503 32.0576 49.0083 32.4378C49.2721 32.4188 49.5478 32.4045 49.8448 32.4045C51.2327 32.4045 52.3663 32.6802 52.3663 32.6802C52.3663 32.6802 51.2327 32.9607 49.8448 32.9583C49.5454 32.9702 49.2721 32.9535 49.0083 32.9345Z" fill="#9DCA00"/>
<path d="M43.4331 21.8601C44.1247 20.6576 44.9327 19.8187 44.9327 19.8187C44.9327 19.8187 44.6119 20.9404 43.9155 22.1429C43.7682 22.3948 43.6185 22.6325 43.4664 22.8511C44.0225 22.6586 45.1038 22.1785 45.6575 21.2161C46.4275 19.8828 45.9047 18.1409 45.9047 18.1409C45.9047 18.1409 44.1318 18.5615 43.3666 19.8852C42.8105 20.8501 42.934 22.0241 43.0457 22.6039C43.1551 22.3639 43.2834 22.1144 43.4331 21.8601Z" fill="#9DCA00"/>
<path d="M36.881 14.6212C36.881 11.5294 37.5013 9.02691 37.5013 9.02691C37.5013 9.02691 38.124 11.5341 38.124 14.6212C38.124 15.2747 38.0931 15.8926 38.0455 16.4773C38.8963 15.4958 40.4482 13.3688 40.4482 10.8877C40.4482 7.47506 37.5013 4.71118 37.5013 4.71118C37.5013 4.71118 34.5544 7.47506 34.5544 10.8877C34.5544 13.3688 36.1063 15.4934 36.9547 16.4773C36.9119 15.8926 36.881 15.2771 36.881 14.6212Z" fill="#9DCA00"/>
<path d="M17.1511 24.341C19.3018 25.5816 21.916 25.2987 23.1922 25.054C22.6646 24.8068 22.1109 24.5169 21.5476 24.1937C18.8717 22.6513 17.0133 20.8618 17.0133 20.8618C17.0133 20.8618 19.492 21.5748 22.1679 23.1195C22.7335 23.4475 23.254 23.7802 23.7388 24.1153C23.3158 22.8842 22.2535 20.4792 20.1004 19.2387C17.1487 17.53 13.2798 18.6992 13.2798 18.6992C13.2798 18.6992 14.1971 22.6371 17.1511 24.341Z" fill="#9DCA00"/>
<path d="M57.8493 41.0313C55.7009 39.7931 53.0868 40.0712 51.8106 40.316C52.3405 40.5655 52.8919 40.8554 53.4575 41.1786C56.1311 42.7234 57.9919 44.5105 57.9919 44.5105C57.9919 44.5105 55.5132 43.7999 52.8348 42.2552C52.2692 41.9249 51.7488 41.5922 51.2664 41.2571C51.6894 42.4881 52.7517 44.8907 54.9 46.1313C57.8516 47.84 61.723 46.6707 61.723 46.6707C61.723 46.6707 60.8009 42.7353 57.8493 41.0313Z" fill="#9DCA00"/>
<path d="M23.7338 41.264C23.249 41.5944 22.7309 41.9271 22.1653 42.2574C19.4894 43.7974 17.0083 44.5175 17.0083 44.5175C17.0083 44.5175 18.8668 42.7256 21.5427 41.1809C22.1107 40.8505 22.662 40.5725 23.1896 40.3182C21.9158 40.071 19.2969 39.7882 17.1485 41.0335C14.1945 42.7375 13.2725 46.673 13.2725 46.673C13.2725 46.673 17.1414 47.8422 20.0954 46.1383C22.2485 44.893 23.3108 42.4903 23.7338 41.264Z" fill="#9DCA00"/>
<path d="M51.2683 24.1058C51.7507 23.7755 52.2712 23.4428 52.8416 23.1148C55.5151 21.5701 57.9938 20.8571 57.9938 20.8571C57.9938 20.8571 56.1378 22.6467 53.4594 24.189C52.8938 24.517 52.3401 24.8021 51.8173 25.0493C53.0887 25.2965 55.7076 25.5816 57.8512 24.3364C60.8076 22.63 61.7273 18.6945 61.7273 18.6945C61.7273 18.6945 57.8607 17.5277 54.9091 19.234C52.7536 20.4745 51.689 22.8796 51.2683 24.1058Z" fill="#9DCA00"/>
<path d="M26.0011 14.2338C25.5591 13.585 25.1099 12.8863 24.6703 12.1258C22.598 8.54205 21.6402 5.21494 21.6402 5.21494C21.6402 5.21494 24.0405 7.70552 26.1104 11.2988C26.5501 12.0545 26.9279 12.7936 27.2654 13.5042C27.5981 11.7955 27.976 8.29014 26.3124 5.40982C24.0262 1.44818 18.7504 0.212402 18.7504 0.212402C18.7504 0.212402 17.1843 5.39793 19.4705 9.35719C21.134 12.2399 24.3613 13.6634 26.0011 14.2338Z" fill="#9DCA00"/>
<path d="M49.0032 51.1409C49.4452 51.7897 49.8991 52.486 50.3364 53.2441C52.4111 56.8421 53.3664 60.1597 53.3664 60.1597C53.3664 60.1597 50.9662 57.6667 48.8915 54.0782C48.4542 53.3177 48.074 52.5787 47.7365 51.8728C47.4109 53.5815 47.0307 57.0798 48.6919 59.9625C50.9804 63.9217 56.2539 65.1622 56.2539 65.1622C56.2539 65.1622 57.8271 59.972 55.5386 56.0127C53.8703 53.1324 50.6453 51.7089 49.0032 51.1409Z" fill="#9DCA00"/>
<path d="M13.2799 33.5215C9.13766 33.5215 5.77966 32.685 5.77966 32.685C5.77966 32.685 9.13766 31.8484 13.2799 31.8484C14.1592 31.8484 14.9886 31.896 15.7705 31.953C14.4563 30.8123 11.6092 28.7305 8.27736 28.7305C3.70735 28.7328 0 32.685 0 32.685C0 32.685 3.70972 36.6395 8.27736 36.6371C11.6068 36.6371 14.4539 34.5577 15.7681 33.4193C14.9862 33.4787 14.1545 33.5215 13.2799 33.5215Z" fill="#9DCA00"/>
<path d="M66.7254 28.74C63.3983 28.74 60.5512 30.8123 59.2346 31.9578C60.0189 31.8984 60.8506 31.8532 61.7228 31.8556C65.8674 31.8556 69.2231 32.6897 69.2231 32.6897C69.2231 32.6897 65.8674 33.5263 61.7276 33.5263C60.8506 33.5263 60.0189 33.4811 59.2346 33.4241C60.5488 34.5624 63.3983 36.6419 66.7254 36.6419C71.2978 36.6419 75.0004 32.6945 75.0004 32.6945C75.0004 32.6945 71.293 28.7352 66.7254 28.74Z" fill="#9DCA00"/>
<path d="M26.1128 54.0805C24.0405 57.6691 21.6402 60.162 21.6402 60.162C21.6402 60.162 22.5955 56.8349 24.6679 53.2464C25.1099 52.4907 25.559 51.7943 26.0034 51.1384C24.3589 51.7088 21.1316 53.1347 19.4681 56.0174C17.1795 59.9766 18.748 65.1669 18.748 65.1669C18.748 65.1669 24.0262 63.9311 26.3124 59.9719C27.9783 57.0892 27.6005 53.5815 27.2701 51.8775C26.9255 52.581 26.5477 53.3129 26.1128 54.0805Z" fill="#9DCA00"/>
<path d="M48.8918 11.2916C50.9617 7.70313 53.362 5.21255 53.362 5.21255C53.362 5.21255 52.4066 8.53728 50.332 12.1234C49.8947 12.8768 49.4455 13.5802 49.0035 14.229C50.6457 13.661 53.8729 12.2351 55.5341 9.3548C57.8227 5.39554 56.2542 0.202881 56.2542 0.202881C56.2542 0.202881 50.9807 1.44104 48.6922 5.4003C47.0215 8.283 47.4017 11.7883 47.7321 13.4947C48.0743 12.7936 48.4498 12.0545 48.8918 11.2916Z" fill="#9DCA00"/>
</svg>
