<svg width="76" height="76" viewBox="0 0 76 76" fill="none" xmlns="http://www.w3.org/2000/svg">
<path d="M56.75 31.3438C56.75 21.0055 48.3383 12.5938 38 12.5938C27.6617 12.5938 19.25 21.0055 19.25 31.3438C19.25 41.682 27.6617 50.0938 38 50.0938C48.3383 50.0938 56.75 41.682 56.75 31.3438ZM38 47.75C28.9531 47.75 21.5938 40.3906 21.5938 31.3438C21.5938 22.2969 28.9531 14.9375 38 14.9375C47.0469 14.9375 54.4062 22.2969 54.4062 31.3438C54.4062 40.3906 47.0469 47.75 38 47.75Z" fill="#9DCA00"/>
<path d="M72.8819 58.4188L60.7542 43.966C60.9253 42.909 61.1257 41.9188 61.4784 41.068C61.905 40.0379 62.6819 38.9961 63.5058 37.8957C64.9085 36.016 66.4999 33.8879 66.4999 31.3438C66.4999 28.7996 64.9097 26.6703 63.5046 24.7906C62.6819 23.6891 61.905 22.6484 61.4784 21.6184C61.0214 20.5191 60.8198 19.1879 60.6077 17.7781C60.2456 15.3852 59.8718 12.9102 58.1526 11.191C56.4335 9.47188 53.9573 9.09805 51.5632 8.73477C50.1546 8.52148 48.8233 8.31992 47.7253 7.86523C46.6952 7.43867 45.6546 6.66055 44.553 5.83789C42.6733 4.43516 40.5452 2.84375 37.9999 2.84375C35.4546 2.84375 33.3253 4.43398 31.4468 5.83906C30.3452 6.66172 29.3058 7.43867 28.2757 7.86523C27.1765 8.32109 25.8452 8.52266 24.4366 8.73477C22.0425 9.09805 19.5663 9.47188 17.8472 11.191C16.128 12.9102 15.7542 15.3852 15.3921 17.7781C15.1788 19.1879 14.9772 20.5191 14.5214 21.6184C14.0948 22.6484 13.3179 23.6891 12.4952 24.7895C11.0913 26.6691 9.50108 28.7984 9.50108 31.3438C9.50108 33.8891 11.0913 36.0172 12.4952 37.8969C13.3179 38.9973 14.0948 40.0379 14.5214 41.068C14.8741 41.9188 15.0745 42.909 15.2456 43.9648L3.11787 58.4188C2.97982 58.5832 2.88964 58.7824 2.85719 58.9946C2.82475 59.2069 2.85129 59.4239 2.93392 59.6221C3.01655 59.8202 3.15208 59.9919 3.32569 60.1182C3.49929 60.2445 3.70429 60.3206 3.91826 60.3383L15.2491 61.2898L18.153 72.2844C18.2079 72.492 18.3188 72.6805 18.4735 72.8294C18.6283 72.9783 18.821 73.0818 19.0306 73.1286C19.2402 73.1754 19.4586 73.1637 19.662 73.0948C19.8654 73.0259 20.0459 72.9024 20.1839 72.7379L32.7312 57.7848C34.2886 58.8758 36.0171 59.8438 38.0011 59.8438C39.9851 59.8438 41.7136 58.8758 43.271 57.7836L55.8183 72.7367C55.9561 72.9013 56.1366 73.0249 56.3399 73.0938C56.5432 73.1628 56.7616 73.1745 56.9711 73.1276C57.1807 73.0808 57.3733 72.9773 57.5279 72.8284C57.6826 72.6794 57.7933 72.4908 57.8479 72.2832L60.753 61.2887L72.0839 60.3371C72.2976 60.3189 72.5021 60.2424 72.6753 60.1159C72.8485 59.9894 72.9837 59.8179 73.0661 59.6199C73.1485 59.4219 73.175 59.2052 73.1428 58.9931C73.1105 58.7811 73.0207 58.5821 72.8831 58.4176L72.8819 58.4188ZM19.8417 69.4988L17.3034 59.8918C17.2416 59.6581 17.1089 59.4493 16.9236 59.294C16.7384 59.1387 16.5096 59.0446 16.2687 59.0246L6.36748 58.1937L15.7519 47.0094C16.094 48.6852 16.6331 50.2812 17.8483 51.4965C19.5675 53.2156 22.0425 53.5895 24.4354 53.9527C25.8452 54.166 27.1765 54.3676 28.2757 54.8234C29.1124 55.1703 29.9585 55.7516 30.8362 56.3973L19.8417 69.4988ZM32.8507 54.9723C31.6823 54.1004 30.4753 53.1969 29.1745 52.6578C27.8105 52.093 26.273 51.8598 24.787 51.6348C22.6753 51.316 20.6808 51.0137 19.5065 49.8395C18.3323 48.6652 18.0312 46.6707 17.7112 44.5578C17.4862 43.0707 17.2542 41.5355 16.6882 40.1715C16.1491 38.8707 15.2468 37.6625 14.3737 36.4941C13.0741 34.7539 11.846 33.1098 11.846 31.3438C11.846 29.5777 13.0741 27.9336 14.3749 26.1922C15.248 25.0238 16.1491 23.8168 16.6894 22.5148C17.2542 21.152 17.4874 19.6133 17.7124 18.1285C18.0312 16.0156 18.3335 14.0211 19.5077 12.8469C20.6819 11.6727 22.6776 11.3703 24.7905 11.0516C26.2765 10.8277 27.8128 10.5945 29.1769 10.0297C30.4776 9.48945 31.6847 8.58828 32.853 7.71523C34.5933 6.41445 36.2386 5.18633 38.0046 5.18633C39.7706 5.18633 41.4147 6.41445 43.155 7.71406C44.3233 8.58711 45.5315 9.48945 46.8335 10.0297C48.1964 10.5945 49.7339 10.8277 51.2187 11.0516C53.3315 11.3703 55.3272 11.6727 56.5015 12.8469C57.6757 14.0211 57.9769 16.0156 58.2956 18.1273C58.5206 19.6145 58.7538 21.1508 59.3187 22.5148C59.8577 23.8156 60.7601 25.025 61.6343 26.1922C62.9339 27.9324 64.162 29.5777 64.162 31.3438C64.162 33.1098 62.9339 34.7527 61.6343 36.493C60.7612 37.6613 59.8577 38.8695 59.3187 40.1715C58.7538 41.5355 58.5206 43.073 58.2956 44.5578C57.9769 46.6707 57.6745 48.6652 56.5003 49.8395C55.3261 51.0137 53.3315 51.316 51.2198 51.6348C49.7327 51.8598 48.1964 52.093 46.8335 52.6578C45.5327 53.1969 44.3233 54.0992 43.155 54.9734C41.4147 56.2719 39.7706 57.5 38.0046 57.5C36.2386 57.5 34.5944 56.2719 32.8542 54.9723H32.8507ZM59.7323 59.0246C59.4915 59.045 59.2629 59.1392 59.0777 59.2944C58.8925 59.4496 58.7597 59.6583 58.6976 59.8918L56.1604 69.4988L45.1647 56.3961C46.0425 55.7504 46.8886 55.1691 47.7265 54.8223C48.8257 54.3652 50.1569 54.1637 51.5655 53.9516C53.9597 53.5883 56.4335 53.2145 58.1526 51.4953C59.3679 50.2801 59.9069 48.6828 60.2491 47.007L69.6347 58.1914L59.7323 59.0223V59.0246Z" fill="#9DCA00"/>
<path d="M49.6613 28.6145C49.5935 28.4064 49.4689 28.2215 49.3016 28.0805C49.1343 27.9395 48.9309 27.848 48.7144 27.8164L42.0371 26.8449L39.05 20.7945C38.6551 19.993 37.3437 19.993 36.9488 20.7945L33.9617 26.8449L27.2832 27.8164C27.067 27.848 26.8639 27.9394 26.6969 28.0803C26.5299 28.2212 26.4056 28.406 26.3381 28.6138C26.2706 28.8216 26.2625 29.0442 26.3148 29.2563C26.3671 29.4685 26.4776 29.6618 26.634 29.8145L31.4656 34.5254L30.3242 41.177C30.2873 41.3925 30.3114 41.614 30.3938 41.8165C30.4762 42.0191 30.6136 42.1945 30.7905 42.323C30.9674 42.4515 31.1768 42.5279 31.3948 42.5437C31.6129 42.5594 31.8311 42.5139 32.0246 42.4121L37.9976 39.2715L43.9707 42.4121C44.1642 42.5139 44.3824 42.5594 44.6004 42.5437C44.8185 42.5279 45.0278 42.4515 45.2048 42.323C45.3817 42.1945 45.5191 42.0191 45.6015 41.8165C45.6839 41.614 45.708 41.3925 45.6711 41.177L44.5297 34.5254L49.3625 29.8145C49.6812 29.5027 49.7961 29.0375 49.659 28.6145H49.6613ZM42.4554 33.2773C42.3195 33.41 42.2179 33.5737 42.1593 33.7544C42.1007 33.9351 42.0869 34.1273 42.1191 34.3145L42.9629 39.2328L38.5461 36.9113C38.3781 36.8228 38.1911 36.7765 38.0011 36.7765C37.8112 36.7765 37.6242 36.8228 37.4562 36.9113L33.0394 39.2328L33.8832 34.3145C33.9151 34.1272 33.9011 33.9349 33.8423 33.7543C33.7835 33.5736 33.6817 33.41 33.5457 33.2773L29.9726 29.7945L34.9109 29.0762C35.0989 29.0491 35.2774 28.9765 35.4309 28.8648C35.5845 28.7531 35.7085 28.6056 35.7922 28.4352L38.0011 23.9621L40.2101 28.4352C40.2942 28.6055 40.4185 28.7529 40.5722 28.8646C40.726 28.9762 40.9045 29.0489 41.0926 29.0762L46.0297 29.7945L42.4566 33.2773H42.4554Z" fill="#9DCA00"/>
</svg>
