<svg width="72" height="73" viewBox="0 0 72 73" fill="none" xmlns="http://www.w3.org/2000/svg">
<g clip-path="url(#clip0_102_1613)">
<path d="M37.0985 37.9773C38.314 37.398 38.7107 35.6946 37.9882 34.1812C37.2645 32.6628 35.6916 31.8985 34.4761 32.4777C33.2606 33.057 32.8638 34.7604 33.5876 36.2789C34.3113 37.7948 35.8842 38.559 37.0985 37.9773Z" fill="white"/>
<path d="M40.7412 28.9161C41.9098 36.2307 36.7043 41.7138 36.7043 41.7138C36.7043 41.7138 32.4126 34.4524 25.1957 32.261C39.2342 42.5262 31.244 55.3239 31.244 55.3239H35.3075C35.3075 55.3239 44.754 39.0229 40.7412 28.9161Z" fill="white"/>
<path d="M32.8182 29.7514C32.7396 29.6348 32.6598 29.5106 32.5799 29.3737C32.2086 28.7323 32.0387 28.1366 32.0387 28.1366C32.0387 28.1366 32.4671 28.5853 32.8385 29.2228C32.9158 29.3585 32.983 29.4916 33.0451 29.6183C33.1034 29.3128 33.1719 28.6854 32.8753 28.1683C32.4659 27.4598 31.5229 27.2393 31.5229 27.2393C31.5229 27.2393 31.2415 28.167 31.6509 28.8768C31.9475 29.394 32.5254 29.6487 32.8182 29.7514Z" fill="white"/>
<path d="M42.1378 35.1317C42.3736 35.3345 42.8831 35.7071 43.4775 35.7071C44.2963 35.7071 44.9579 34.9986 44.9579 34.9986C44.9579 34.9986 44.2976 34.2914 43.4775 34.2914C42.8831 34.2914 42.3736 34.664 42.1378 34.8668C42.2785 34.8567 42.4255 34.8491 42.584 34.8491C43.3242 34.8491 43.9288 34.9961 43.9288 34.9961C43.9288 34.9961 43.3242 35.1457 42.584 35.1444C42.4243 35.1507 42.2785 35.1419 42.1378 35.1317Z" fill="white"/>
<path d="M39.1645 29.2254C39.5334 28.5841 39.9643 28.1367 39.9643 28.1367C39.9643 28.1367 39.7932 28.7349 39.4218 29.3762C39.3433 29.5106 39.2634 29.6373 39.1823 29.7539C39.4789 29.6513 40.0556 29.3953 40.3509 28.8819C40.7616 28.1709 40.4827 27.2418 40.4827 27.2418C40.4827 27.2418 39.5372 27.4662 39.1291 28.1721C38.8325 28.6867 38.8984 29.3129 38.9579 29.6221C39.0163 29.4941 39.0847 29.361 39.1645 29.2254Z" fill="white"/>
<path d="M35.6701 25.3647C35.6701 23.7157 36.0009 22.3811 36.0009 22.3811C36.0009 22.3811 36.3329 23.7182 36.3329 25.3647C36.3329 25.7132 36.3165 26.0428 36.2911 26.3546C36.7449 25.8311 37.5725 24.6967 37.5725 23.3735C37.5725 21.5534 36.0009 20.0793 36.0009 20.0793C36.0009 20.0793 34.4292 21.5534 34.4292 23.3735C34.4292 24.6967 35.2569 25.8299 35.7093 26.3546C35.6865 26.0428 35.6701 25.7145 35.6701 25.3647Z" fill="white"/>
<path d="M25.1476 30.5486C26.2947 31.2102 27.6889 31.0594 28.3695 30.9288C28.0881 30.797 27.7928 30.6424 27.4924 30.47C26.0652 29.6474 25.0741 28.693 25.0741 28.693C25.0741 28.693 26.396 29.0732 27.8232 29.8971C28.1249 30.072 28.4025 30.2495 28.661 30.4282C28.4354 29.7716 27.8688 28.4889 26.7205 27.8273C25.1463 26.916 23.0829 27.5396 23.0829 27.5396C23.0829 27.5396 23.5721 29.6398 25.1476 30.5486Z" fill="white"/>
<path d="M46.8529 39.4501C45.7071 38.7897 44.3129 38.938 43.6323 39.0686C43.9149 39.2017 44.209 39.3563 44.5106 39.5287C45.9365 40.3525 46.929 41.3057 46.929 41.3057C46.929 41.3057 45.607 40.9267 44.1786 40.1028C43.8769 39.9267 43.5993 39.7492 43.342 39.5705C43.5677 40.2271 44.1342 41.5085 45.28 42.1701C46.8542 43.0814 48.9189 42.4578 48.9189 42.4578C48.9189 42.4578 48.4271 40.3589 46.8529 39.4501Z" fill="white"/>
<path d="M28.6584 39.5743C28.3998 39.7504 28.1235 39.9279 27.8218 40.1041C26.3947 40.9254 25.0714 41.3094 25.0714 41.3094C25.0714 41.3094 26.0626 40.3538 27.4898 39.5299C27.7927 39.3537 28.0867 39.2054 28.3681 39.0698C27.6888 38.938 26.292 38.7872 25.1462 39.4513C23.5708 40.3601 23.079 42.459 23.079 42.459C23.079 42.459 25.1424 43.0826 26.7179 42.1738C27.8662 41.5097 28.4328 40.2283 28.6584 39.5743Z" fill="white"/>
<path d="M43.3433 30.4231C43.6006 30.247 43.8781 30.0695 44.1823 29.8946C45.6082 29.0708 46.9302 28.6905 46.9302 28.6905C46.9302 28.6905 45.9403 29.6449 44.5119 30.4675C44.2102 30.6424 43.9149 30.7945 43.636 30.9263C44.3141 31.0582 45.7109 31.2102 46.8542 30.5461C48.4309 29.6361 48.9214 27.5371 48.9214 27.5371C48.9214 27.5371 46.8592 26.9148 45.285 27.8248C44.1354 28.4865 43.5676 29.7691 43.3433 30.4231Z" fill="white"/>
<path d="M29.8676 25.1581C29.6318 24.8121 29.3923 24.4395 29.1578 24.0339C28.0526 22.1225 27.5418 20.3481 27.5418 20.3481C27.5418 20.3481 28.8219 21.6764 29.9259 23.5928C30.1604 23.9959 30.3619 24.39 30.5419 24.769C30.7193 23.8577 30.9209 21.9882 30.0336 20.452C28.8143 18.3391 26.0006 17.6801 26.0006 17.6801C26.0006 17.6801 25.1653 20.4457 26.3846 22.5573C27.2718 24.0947 28.993 24.8539 29.8676 25.1581Z" fill="white"/>
<path d="M42.1354 44.8418C42.3712 45.1878 42.6133 45.5592 42.8465 45.9635C43.953 47.8825 44.4625 49.6518 44.4625 49.6518C44.4625 49.6518 43.1824 48.3223 42.0759 46.4084C41.8426 46.0028 41.6398 45.6086 41.4599 45.2322C41.2862 46.1435 41.0834 48.0092 41.9694 49.5466C43.19 51.6582 46.0025 52.3199 46.0025 52.3199C46.0025 52.3199 46.8415 49.5517 45.621 47.4401C44.7312 45.9039 43.0113 45.1447 42.1354 44.8418Z" fill="white"/>
<path d="M23.0829 35.4449C20.8737 35.4449 19.0827 34.9987 19.0827 34.9987C19.0827 34.9987 20.8737 34.5526 23.0829 34.5526C23.5518 34.5526 23.9942 34.5779 24.4112 34.6083C23.7103 34 22.1918 32.8896 20.4148 32.8896C17.9775 32.8909 16.0002 34.9987 16.0002 34.9987C16.0002 34.9987 17.9788 37.1078 20.4148 37.1065C22.1906 37.1065 23.709 35.9975 24.4099 35.3904C23.9929 35.4221 23.5493 35.4449 23.0829 35.4449Z" fill="white"/>
<path d="M51.587 32.8947C49.8125 32.8947 48.2941 33.9999 47.5919 34.6108C48.0102 34.5791 48.4538 34.555 48.919 34.5563C51.1294 34.5563 52.9191 35.0012 52.9191 35.0012C52.9191 35.0012 51.1294 35.4473 48.9215 35.4473C48.4538 35.4473 48.0102 35.4233 47.5919 35.3928C48.2928 36 49.8125 37.109 51.587 37.109C54.0256 37.109 56.0003 35.0037 56.0003 35.0037C56.0003 35.0037 54.0231 32.8921 51.587 32.8947Z" fill="white"/>
<path d="M29.9271 46.4097C28.8219 48.3236 27.5418 49.6532 27.5418 49.6532C27.5418 49.6532 28.0513 47.8787 29.1565 45.9648C29.3923 45.5618 29.6318 45.1904 29.8688 44.8406C28.9918 45.1448 27.2705 45.9052 26.3833 47.4427C25.1627 49.5543 25.9993 52.3224 25.9993 52.3224C25.9993 52.3224 28.8143 51.6634 30.0336 49.5518C30.9221 48.0143 30.7206 46.1435 30.5444 45.2348C30.3606 45.6099 30.1591 46.0003 29.9271 46.4097Z" fill="white"/>
<path d="M42.0758 23.5889C43.1798 21.6751 44.4599 20.3468 44.4599 20.3468C44.4599 20.3468 43.9504 22.1199 42.8439 24.0326C42.6107 24.4343 42.3711 24.8095 42.1354 25.1555C43.0112 24.8526 44.7324 24.0921 45.6184 22.5559C46.8389 20.4443 46.0024 17.6749 46.0024 17.6749C46.0024 17.6749 43.1899 18.3353 41.9693 20.4469C41.0783 21.9843 41.2811 23.8538 41.4573 24.7639C41.6398 24.39 41.84 23.9958 42.0758 23.5889Z" fill="white"/>
</g>
<rect x="1.5" y="2" width="69" height="69" rx="34.5" stroke="white" stroke-width="3"/>
<defs>
<clipPath id="clip0_102_1613">
<rect width="40" height="40" fill="white" transform="translate(16 16.5)"/>
</clipPath>
</defs>
</svg>
