<svg width="84" height="84" viewBox="0 0 84 84" fill="none" xmlns="http://www.w3.org/2000/svg">
<rect x="0.166626" y="0.5" width="83" height="83" rx="41.5" fill="#9CCC65"/>
<rect x="0.166626" y="0.5" width="83" height="83" rx="41.5" fill="#F7F7F7"/>
<path d="M34.6041 46C34.0768 46 33.6666 45.5898 33.6666 45.0625V30.0625C33.6666 29.5938 34.0768 29.125 34.6041 29.125H43.0416V36.625L45.8541 34.75L48.6666 36.625V29.125H57.1041C57.5729 29.125 58.0416 29.5938 58.0416 30.0625V45.0625C58.0416 45.5898 57.5729 46 57.1041 46H34.6041ZM58.9791 49.75C59.4479 49.75 59.9166 50.2188 59.9166 50.6875V52.5625C59.9166 53.0898 59.4479 53.5 58.9791 53.5H54.1158C54.1744 53.793 54.2916 54.1445 54.2916 54.4375C54.2916 56.0195 53.0026 57.25 51.4791 57.25C49.8971 57.25 48.6666 56.0195 48.6666 54.4375C48.6666 54.1445 48.7252 53.793 48.8424 53.5H37.2408C37.2994 53.793 37.4166 54.1445 37.4166 54.4375C37.4166 56.0195 36.1276 57.25 34.6041 57.25C33.0221 57.25 31.7916 56.0195 31.7916 54.4375C31.7916 54.1445 31.8502 53.793 31.9088 53.5H27.1041C26.5768 53.5 26.1666 53.0898 26.1666 52.5625V31H23.3541C22.8268 31 22.4166 30.5898 22.4166 30.0625V28.1875C22.4166 27.7188 22.8268 27.25 23.3541 27.25H28.9791C29.4479 27.25 29.9166 27.7188 29.9166 28.1875V49.75H58.9791Z" fill="#79B530"/>
</svg>
