<svg width="15" height="15" viewBox="0 0 15 15" fill="none" xmlns="http://www.w3.org/2000/svg">
<path d="M5.25 2.875L3.9375 0.933594C3.88281 0.878906 3.85547 0.796875 3.85547 0.6875C3.85547 0.46875 4.07422 0.25 4.29297 0.25H9.67969C9.89844 0.25 10.1172 0.46875 10.1172 0.714844C10.1172 0.796875 10.0898 0.878906 10.0352 0.933594L8.75 2.875H5.25ZM8.75 3.75C14.2461 6.89453 13.9727 11.1055 13.9727 11.625C13.9727 13.0742 12.6328 14.25 10.9922 14.25H2.98047C1.33984 14.25 0 13.0742 0 11.625C0 11.1055 -0.300781 6.92188 5.25 3.75H8.75ZM7.46484 11.3516C8.17578 11.3516 8.72266 10.75 8.75 10.0391C8.75 9.4375 8.33984 8.91797 7.79297 8.75391L6.45312 8.37109C6.28906 8.31641 6.20703 8.15234 6.20703 7.98828C6.20703 7.76953 6.34375 7.60547 6.53516 7.60547H7.38281C7.51953 7.60547 7.65625 7.63281 7.76562 7.71484C7.79297 7.74219 7.84766 7.74219 7.90234 7.74219C7.95703 7.74219 8.01172 7.71484 8.06641 7.6875L8.42188 7.35938C8.44922 7.30469 8.47656 7.25 8.47656 7.19531C8.47656 7.11328 8.44922 7.03125 8.39453 7.00391C8.12109 6.8125 7.82031 6.67578 7.46484 6.67578V6.18359C7.46484 6.04688 7.35547 5.9375 7.21875 5.9375H6.75391V5.96484C6.61719 5.96484 6.50781 6.04688 6.50781 6.18359V6.67578C5.79688 6.67578 5.25 7.27734 5.25 7.98828C5.25 8.58984 5.63281 9.10938 6.17969 9.27344L7.51953 9.65625C7.68359 9.71094 7.76562 9.875 7.76562 10.0391C7.76562 10.2578 7.62891 10.4219 7.4375 10.4219H6.58984C6.45312 10.4219 6.31641 10.3945 6.20703 10.3125C6.17969 10.2852 6.125 10.2852 6.07031 10.2852C6.01562 10.2852 5.96094 10.3125 5.90625 10.3398L5.55078 10.668C5.52344 10.7227 5.49609 10.7773 5.49609 10.832C5.49609 10.9141 5.52344 10.9961 5.57812 11.0234C5.85156 11.2148 6.15234 11.3516 6.50781 11.3516V11.8438C6.50781 11.9805 6.61719 12.0625 6.75391 12.0625H7.21875C7.35547 12.0625 7.46484 11.9805 7.46484 11.8438V11.3516Z" fill="#8C8C8C"/>
</svg>
