<svg width="18" height="17" viewBox="0 0 18 17" fill="none" xmlns="http://www.w3.org/2000/svg">
<path d="M16.207 4.25098C17.1914 4.25098 18 5.02441 18 5.93848V14.9385C18 15.8877 17.1914 16.626 16.207 16.626H2.25C0.984375 16.626 0 15.6416 0 14.376V3.12598C0 1.89551 0.984375 0.875977 2.25 0.875977H15.1875C16.1016 0.875977 16.875 1.64941 16.875 2.56348C16.875 2.87988 16.5938 3.12598 16.3125 3.12598H2.8125C2.49609 3.12598 2.25 3.40723 2.25 3.68848C2.25 4.00488 2.49609 4.25098 2.8125 4.25098H16.207ZM14.625 11.5635C15.2227 11.5635 15.75 11.0713 15.75 10.4385C15.75 9.84082 15.2227 9.31348 14.625 9.31348C13.9922 9.31348 13.5 9.84082 13.5 10.4385C13.5 11.0713 13.9922 11.5635 14.625 11.5635Z" fill="white"/>
</svg>
