<svg width="26" height="21" viewBox="0 0 26 21" fill="none" xmlns="http://www.w3.org/2000/svg">
<path d="M24.875 14.25C25.1875 14.25 25.5 14.5625 25.5 14.875V16.125C25.5 16.4766 25.1875 16.75 24.875 16.75H23C23 18.8203 21.3203 20.5 19.25 20.5C17.1797 20.5 15.5 18.8203 15.5 16.75H10.5C10.5 18.8203 8.82031 20.5 6.75 20.5C4.67969 20.5 3 18.8203 3 16.75V11.75H8.9375C9.09375 11.75 9.25 11.6328 9.25 11.4375V10.8125C9.25 10.6562 9.09375 10.5 8.9375 10.5H0.8125C0.617188 10.5 0.5 10.3828 0.5 10.1875V9.5625C0.5 9.40625 0.617188 9.25 0.8125 9.25H10.1875C10.3438 9.25 10.5 9.13281 10.5 8.9375V8.3125C10.5 8.15625 10.3438 8 10.1875 8H2.0625C1.86719 8 1.75 7.88281 1.75 7.6875V7.0625C1.75 6.90625 1.86719 6.75 2.0625 6.75H11.4375C11.5938 6.75 11.75 6.63281 11.75 6.4375V5.8125C11.75 5.65625 11.5938 5.5 11.4375 5.5H0.8125C0.617188 5.5 0.5 5.38281 0.5 5.1875V4.5625C0.5 4.40625 0.617188 4.25 0.8125 4.25H3V2.375C3 1.35938 3.82031 0.5 4.875 0.5H14.875C15.8906 0.5 16.75 1.35938 16.75 2.375V4.25H18.4688C18.9375 4.25 19.4453 4.48438 19.7969 4.83594L23.6641 8.70312C24.0156 9.05469 24.25 9.5625 24.25 10.0312V14.25H24.875ZM6.75 18.625C7.76562 18.625 8.625 17.8047 8.625 16.75C8.625 15.7344 7.76562 14.875 6.75 14.875C5.69531 14.875 4.875 15.7344 4.875 16.75C4.875 17.8047 5.69531 18.625 6.75 18.625ZM19.25 18.625C20.2656 18.625 21.125 17.8047 21.125 16.75C21.125 15.7344 20.2656 14.875 19.25 14.875C18.1953 14.875 17.375 15.7344 17.375 16.75C17.375 17.8047 18.1953 18.625 19.25 18.625ZM22.375 10.5V10.0312L18.4688 6.125H16.75V10.5H22.375Z" fill="white"/>
</svg>
