<svg width="18" height="17" viewBox="0 0 18 17" fill="none" xmlns="http://www.w3.org/2000/svg">
<path d="M1.125 15.5039V11.0039H7.875V16.6289H2.25C1.61719 16.6289 1.125 16.1367 1.125 15.5039ZM10.125 16.6289V11.0039H16.875V15.5039C16.875 16.1367 16.3477 16.6289 15.75 16.6289H10.125ZM16.875 5.37891C17.4727 5.37891 18 5.90625 18 6.50391V9.31641C18 9.63281 17.7188 9.87891 17.4375 9.87891H0.5625C0.246094 9.87891 0 9.63281 0 9.31641V6.50391C0 5.90625 0.492188 5.37891 1.125 5.37891H2.67188C2.42578 4.95703 2.32031 4.5 2.32031 3.97266C2.32031 2.28516 3.69141 0.878906 5.41406 0.878906C6.85547 0.878906 7.80469 1.65234 9.03516 3.30469C10.2305 1.65234 11.1797 0.878906 12.6562 0.878906C14.3438 0.878906 15.75 2.28516 15.75 3.97266C15.75 4.5 15.6094 4.95703 15.3633 5.37891H16.875ZM5.37891 5.37891H8.4375C6.60938 2.70703 6.08203 2.56641 5.37891 2.56641C4.60547 2.56641 3.97266 3.19922 3.97266 3.97266C3.97266 4.78125 4.60547 5.37891 5.37891 5.37891ZM12.6562 5.37891C13.4297 5.37891 14.0625 4.78125 14.0625 3.97266C14.0625 3.19922 13.4297 2.56641 12.6562 2.56641C11.918 2.56641 11.4258 2.70703 9.59766 5.37891H12.6562Z" fill="white"/>
</svg>
