<svg width="21" height="19" viewBox="0 0 21 19" fill="none" xmlns="http://www.w3.org/2000/svg">
<path d="M17.7188 12.002H7.41797L7.66406 13.127H17.0859C17.6133 13.127 18.0352 13.6543 17.8945 14.1816L17.7188 15.0254C18.3867 15.3418 18.8438 16.0098 18.8438 16.7832C18.8438 17.9082 17.9297 18.7871 16.8398 18.752C15.7852 18.752 14.9062 17.9082 14.9062 16.8535C14.8711 16.291 15.1172 15.7637 15.4688 15.377H8.12109C8.47266 15.7637 8.71875 16.2559 8.71875 16.7832C8.71875 17.9082 7.76953 18.8223 6.64453 18.752C5.625 18.7168 4.81641 17.9082 4.78125 16.9238C4.71094 16.1152 5.13281 15.4473 5.76562 15.0957L3.26953 3.00195H0.84375C0.351562 3.00195 0 2.65039 0 2.1582V1.5957C0 1.13867 0.351562 0.751953 0.84375 0.751953H4.42969C4.81641 0.751953 5.16797 1.06836 5.27344 1.45508L5.58984 3.00195H19.3711C19.9336 3.00195 20.3203 3.5293 20.2148 4.05664L18.5625 11.3691C18.457 11.7559 18.1055 12.002 17.7188 12.002ZM14.3438 6.6582H12.6562V5.25195C12.6562 4.9707 12.375 4.68945 12.0938 4.68945H11.5312C11.2148 4.68945 10.9688 4.9707 10.9688 5.25195V6.6582H9.28125C8.96484 6.6582 8.71875 6.93945 8.71875 7.2207V7.7832C8.71875 8.09961 8.96484 8.3457 9.28125 8.3457H10.9688V9.75195C10.9688 10.0684 11.2148 10.3145 11.5312 10.3145H12.0938C12.375 10.3145 12.6562 10.0684 12.6562 9.75195V8.3457H14.3438C14.625 8.3457 14.9062 8.09961 14.9062 7.7832V7.2207C14.9062 6.93945 14.625 6.6582 14.3438 6.6582Z" fill="white"/>
</svg>
