<svg width="20" height="17" viewBox="0 0 20 17" fill="none" xmlns="http://www.w3.org/2000/svg">
<path d="M7.21879 15.583C7.50525 15.583 7.79171 15.8695 7.79171 16.1559C7.79171 16.4782 7.50525 16.7288 7.21879 16.7288H3.78129C2.16996 16.7288 0.916708 15.4756 0.916708 13.8643V3.55176C0.916708 1.97624 2.16996 0.687176 3.78129 0.687176H7.21879C7.50525 0.687176 7.79171 0.973634 7.79171 1.26009C7.79171 1.58236 7.50525 1.83301 7.21879 1.83301H3.78129C2.81449 1.83301 2.06254 2.62077 2.06254 3.55176V13.8643C2.06254 14.8311 2.81449 15.583 3.78129 15.583H7.21879ZM18.892 7.92025C19.1068 8.13509 19.25 8.42155 19.25 8.70801C19.25 9.03027 19.1068 9.31673 18.892 9.53158L14.3086 14.1149C13.9864 14.4372 13.4851 14.5446 13.0554 14.3656C12.6257 14.1865 12.375 13.7568 12.375 13.2913V10.9997H7.21879C6.25199 10.9997 5.50004 10.2477 5.50004 9.28092V8.13509C5.50004 7.2041 6.25199 6.41634 7.21879 6.41634H12.375V4.12468C12.375 3.69499 12.6257 3.2653 13.0554 3.08626C13.4851 2.90723 13.9864 3.01465 14.3086 3.33691L18.892 7.92025ZM13.5209 13.2913L18.0684 8.70801L13.4851 4.12468L13.5209 7.56218H7.21879C6.89653 7.56218 6.64587 7.84863 6.64587 8.13509V9.28092C6.64587 9.60319 6.89653 9.85384 7.21879 9.85384H13.5209V13.2913Z" fill="white"/>
</svg>
