<svg width="24" height="24" viewBox="0 0 24 24" fill="none" xmlns="http://www.w3.org/2000/svg">
<rect width="24" height="24" fill="#3E3E3E"/>
<g id="Card" filter="url(#filter0_d_101_7283)">
<rect x="-280" y="-320" width="328" height="584" rx="24" fill="#1F1F1F" shape-rendering="crispEdges"/>
<g id="Frame 1000002818">
<g id="Frame 1000002817">
<g id="Group Component">
<g id="Name">
<g id="Frame" clip-path="url(#clip0_101_7283)">
<g id="Group">
<path id="Vector" d="M11.2969 0C11.7812 0 12.2656 0 12.75 0C12.8181 0.01375 12.885 0.034375 12.9537 0.04C14.9119 0.19375 16.7325 0.7775 18.3813 1.84312C21.3531 3.76375 23.18 6.46625 23.8194 9.95562C23.8975 10.3837 23.9406 10.8188 24 11.25C24 11.7344 24 12.2188 24 12.7031C23.9869 12.7781 23.9706 12.8531 23.96 12.9288C23.895 13.4 23.8538 13.8756 23.7631 14.3419C22.8287 19.1737 18.92 22.9906 14.0656 23.8162C13.6294 23.8906 13.1881 23.9394 12.7494 24.0006C12.2494 24.0006 11.7494 24.0006 11.2494 24.0006C11.1975 23.9875 11.1469 23.9656 11.0944 23.9619C10.0775 23.8894 9.08125 23.7025 8.12562 23.3481C3.76812 21.7338 1.12375 18.6413 0.19 14.09C0.099375 13.6488 0.061875 13.1969 0 12.75C0 12.25 0 11.75 0 11.25C0.060625 10.8106 0.10875 10.37 0.18375 9.93312C1.0125 5.07687 4.8275 1.16938 9.65563 0.23625C10.1975 0.131875 10.7494 0.0775 11.2969 0ZM11.9756 17.745C13.6394 17.745 15.3031 17.7463 16.9669 17.7444C17.5731 17.7437 17.8956 17.4919 18.0462 16.9131C18.6344 14.6487 19.2244 12.3856 19.8075 10.12C19.8494 9.9575 19.8769 9.77625 19.8506 9.61375C19.7475 8.98125 19.1375 8.65625 18.5163 8.89312C17.5837 9.24812 16.6513 9.60375 15.7238 9.9725C15.5113 10.0569 15.3913 10.0181 15.2531 9.8375C14.4594 8.80312 13.6544 7.77688 12.8481 6.75187C12.7431 6.61875 12.6237 6.485 12.4831 6.395C12.0619 6.12563 11.5463 6.24688 11.2025 6.68563C10.3744 7.74312 9.5475 8.80125 8.72812 9.86563C8.60687 10.0231 8.49937 10.0556 8.31312 9.98188C7.3925 9.6175 6.46562 9.26813 5.54375 8.9075C5.14937 8.75313 4.77625 8.75313 4.44875 9.04688C4.1225 9.33937 4.0775 9.70562 4.18625 10.1181C4.775 12.3581 5.35687 14.5994 5.94125 16.84C6.12063 17.5269 6.4 17.7444 7.10187 17.7444C8.72625 17.7456 10.3512 17.745 11.9756 17.745Z" fill="#FFF1B8"/>
<path id="Vector_2" d="M11.9752 17.7458C10.3508 17.7458 8.72583 17.7458 7.10146 17.7458C6.39958 17.7458 6.12021 17.5283 5.94083 16.8414C5.35583 14.6008 4.77458 12.3589 4.18583 10.1195C4.07708 9.707 4.12208 9.34075 4.44833 9.04825C4.77583 8.7545 5.14896 8.7545 5.54333 8.90888C6.46521 9.2695 7.39208 9.61825 8.31271 9.98325C8.49896 10.057 8.60646 10.0245 8.72771 9.867C9.54708 8.80263 10.374 7.7445 11.2021 6.687C11.5458 6.24825 12.0615 6.127 12.4827 6.39638C12.6233 6.48638 12.7427 6.62013 12.8477 6.75325C13.654 7.77825 14.459 8.80388 15.2527 9.83888C15.3915 10.0195 15.5115 10.0583 15.7233 9.97388C16.6508 9.60513 17.5833 9.2495 18.5158 8.8945C19.1365 8.65825 19.7471 8.98263 19.8502 9.61513C19.8765 9.77763 19.849 9.95888 19.8071 10.1214C19.224 12.387 18.6346 14.6508 18.0458 16.9145C17.8952 17.4933 17.5727 17.7451 16.9665 17.7458C15.3027 17.747 13.639 17.7458 11.9752 17.7458Z" fill="#FAAD14"/>
</g>
</g>
</g>
</g>
</g>
</g>
<rect x="-279.5" y="-319.5" width="327" height="583" rx="23.5" stroke="#8C8C8C" shape-rendering="crispEdges"/>
</g>
<defs>
<filter id="filter0_d_101_7283" x="-304" y="-344" width="376" height="632" filterUnits="userSpaceOnUse" color-interpolation-filters="sRGB">
<feFlood flood-opacity="0" result="BackgroundImageFix"/>
<feColorMatrix in="SourceAlpha" type="matrix" values="0 0 0 0 0 0 0 0 0 0 0 0 0 0 0 0 0 0 127 0" result="hardAlpha"/>
<feOffset/>
<feGaussianBlur stdDeviation="12"/>
<feComposite in2="hardAlpha" operator="out"/>
<feColorMatrix type="matrix" values="0 0 0 0 1 0 0 0 0 1 0 0 0 0 1 0 0 0 0.24 0"/>
<feBlend mode="normal" in2="BackgroundImageFix" result="effect1_dropShadow_101_7283"/>
<feBlend mode="normal" in="SourceGraphic" in2="effect1_dropShadow_101_7283" result="shape"/>
</filter>
<clipPath id="clip0_101_7283">
<rect width="24" height="24" fill="white"/>
</clipPath>
</defs>
</svg>
