<svg width="18" height="17" viewBox="0 0 18 17" fill="none" xmlns="http://www.w3.org/2000/svg">
<g clip-path="url(#clip0_788_13452)">
<path d="M16.5 1.49902C17.3125 1.49902 18 2.18652 18 2.99902V13.999C18 14.8428 17.3125 15.499 16.5 15.499H1.5C0.65625 15.499 0 14.8428 0 13.999V2.99902C0 2.18652 0.65625 1.49902 1.5 1.49902H16.5ZM5.5 4.49902C4.375 4.49902 3.5 5.40527 3.5 6.49902C3.5 7.62402 4.375 8.49902 5.5 8.49902C6.59375 8.49902 7.5 7.62402 7.5 6.49902C7.5 5.40527 6.59375 4.49902 5.5 4.49902ZM9 11.9053V11.3115C9 10.3115 8.03125 9.49902 6.875 9.49902H6.71875C6.34375 9.68652 5.9375 9.74902 5.5 9.74902C5.03125 9.74902 4.625 9.68652 4.25 9.49902H4.09375C2.9375 9.49902 2 10.3115 2 11.3115V11.9053C2 12.249 2.3125 12.499 2.6875 12.499H8.28125C8.6875 12.499 9 12.249 9 11.9053ZM16 10.249V9.74902C16 9.62402 15.875 9.49902 15.75 9.49902H11.25C11.0938 9.49902 11 9.62402 11 9.74902V10.249C11 10.4053 11.0938 10.499 11.25 10.499H15.75C15.875 10.499 16 10.4053 16 10.249ZM16 8.24902V7.74902C16 7.62402 15.875 7.49902 15.75 7.49902H11.25C11.0938 7.49902 11 7.62402 11 7.74902V8.24902C11 8.40527 11.0938 8.49902 11.25 8.49902H15.75C15.875 8.49902 16 8.40527 16 8.24902ZM16 6.24902V5.74902C16 5.62402 15.875 5.49902 15.75 5.49902H11.25C11.0938 5.49902 11 5.62402 11 5.74902V6.24902C11 6.40527 11.0938 6.49902 11.25 6.49902H15.75C15.875 6.49902 16 6.40527 16 6.24902Z" fill="#8C8C8C"/>
</g>
<defs>
<clipPath id="clip0_788_13452">
<rect width="18" height="16" fill="white" transform="translate(0 0.499023)"/>
</clipPath>
</defs>
</svg>
