<svg width="21" height="15" viewBox="0 0 21 15" fill="none" xmlns="http://www.w3.org/2000/svg">
<path d="M3.7998 6.5C2.6748 6.5 1.7998 5.625 1.7998 4.5C1.7998 3.40625 2.6748 2.5 3.7998 2.5C4.89355 2.5 5.7998 3.40625 5.7998 4.5C5.7998 5.625 4.89355 6.5 3.7998 6.5ZM17.7998 6.5C16.6748 6.5 15.7998 5.625 15.7998 4.5C15.7998 3.40625 16.6748 2.5 17.7998 2.5C18.8936 2.5 19.7998 3.40625 19.7998 4.5C19.7998 5.625 18.8936 6.5 17.7998 6.5ZM18.7998 7.5C19.8936 7.5 20.7998 8.40625 20.7998 9.5V10.5C20.7998 11.0625 20.3311 11.5 19.7998 11.5H17.7373C17.5186 10.0312 16.6436 8.78125 15.3623 8.09375C15.7373 7.75 16.2373 7.5 16.7998 7.5H18.7998ZM10.7998 7.5C8.8623 7.5 7.2998 5.9375 7.2998 4C7.2998 2.09375 8.8623 0.5 10.7998 0.5C12.7061 0.5 14.2998 2.09375 14.2998 4C14.2998 5.9375 12.7061 7.5 10.7998 7.5ZM13.1748 8.5C15.1748 8.5 16.7998 10.125 16.7998 12.125V13C16.7998 13.8438 16.1123 14.5 15.2998 14.5H6.2998C5.45605 14.5 4.7998 13.8438 4.7998 13V12.125C4.7998 10.125 6.39355 8.5 8.39355 8.5H8.64355C9.2998 8.8125 10.0186 9 10.7998 9C11.5498 9 12.2686 8.8125 12.9248 8.5H13.1748ZM6.20605 8.09375C4.9248 8.78125 4.0498 10.0312 3.83105 11.5H1.7998C1.2373 11.5 0.799805 11.0625 0.799805 10.5V9.5C0.799805 8.40625 1.6748 7.5 2.7998 7.5H4.7998C5.33105 7.5 5.83105 7.75 6.20605 8.09375Z" fill="white"/>
</svg>
