<svg width="267" height="31" viewBox="0 0 267 31" fill="none" xmlns="http://www.w3.org/2000/svg">
<path d="M3.20272 24.806C2.34139 24.806 1.68405 24.568 1.23072 24.092C0.777386 23.616 0.550719 22.9473 0.550719 22.086V2.944C0.550719 2.08267 0.777386 1.414 1.23072 0.937999C1.68405 0.461999 2.34139 0.223998 3.20272 0.223998C4.04139 0.223998 4.68739 0.461999 5.14072 0.937999C5.59405 1.414 5.82072 2.08267 5.82072 2.944V10.152H16.9727V2.944C16.9727 2.08267 17.1994 1.414 17.6527 0.937999C18.1061 0.461999 18.7521 0.223998 19.5907 0.223998C20.4521 0.223998 21.1094 0.461999 21.5627 0.937999C22.0161 1.414 22.2427 2.08267 22.2427 2.944V22.086C22.2427 22.9473 22.0161 23.616 21.5627 24.092C21.1094 24.568 20.4521 24.806 19.5907 24.806C18.7521 24.806 18.1061 24.568 17.6527 24.092C17.1994 23.616 16.9727 22.9473 16.9727 22.086V14.538H5.82072V22.086C5.82072 22.9473 5.59405 23.616 5.14072 24.092C4.71005 24.568 4.06405 24.806 3.20272 24.806ZM31.942 24.874C30.718 24.874 29.6187 24.636 28.644 24.16C27.6693 23.684 26.91 23.038 26.366 22.222C25.822 21.406 25.55 20.488 25.55 19.468C25.55 18.244 25.8673 17.2807 26.502 16.578C27.1367 15.8527 28.168 15.3427 29.596 15.048C31.024 14.7307 32.9167 14.572 35.274 14.572H37.076V17.224H35.308C34.152 17.224 33.2113 17.292 32.486 17.428C31.7833 17.5413 31.2733 17.7453 30.956 18.04C30.6613 18.3347 30.514 18.7427 30.514 19.264C30.514 19.8987 30.7293 20.42 31.16 20.828C31.6133 21.236 32.2593 21.44 33.098 21.44C33.7553 21.44 34.3333 21.2927 34.832 20.998C35.3533 20.6807 35.7613 20.2613 36.056 19.74C36.3507 19.196 36.498 18.584 36.498 17.904V13.994C36.498 12.9967 36.2713 12.294 35.818 11.886C35.3647 11.4553 34.594 11.24 33.506 11.24C32.894 11.24 32.2253 11.3193 31.5 11.478C30.7973 11.614 30.0153 11.852 29.154 12.192C28.6553 12.4187 28.2133 12.4753 27.828 12.362C27.4427 12.226 27.148 11.9993 26.944 11.682C26.74 11.342 26.638 10.9793 26.638 10.594C26.638 10.186 26.7513 9.80067 26.978 9.438C27.2047 9.05267 27.5787 8.76933 28.1 8.588C29.1653 8.15733 30.1627 7.86267 31.092 7.704C32.044 7.54533 32.9167 7.466 33.71 7.466C35.4553 7.466 36.8833 7.72667 37.994 8.248C39.1273 8.74667 39.9773 9.52867 40.544 10.594C41.1107 11.6367 41.394 12.9853 41.394 14.64V22.188C41.394 23.0267 41.19 23.6727 40.782 24.126C40.374 24.5793 39.7847 24.806 39.014 24.806C38.2433 24.806 37.6427 24.5793 37.212 24.126C36.804 23.6727 36.6 23.0267 36.6 22.188V20.93L36.838 21.134C36.702 21.9047 36.4073 22.5733 35.954 23.14C35.5233 23.684 34.968 24.1147 34.288 24.432C33.608 24.7267 32.826 24.874 31.942 24.874ZM47.4678 30.926C46.6291 30.926 45.9831 30.6993 45.5298 30.246C45.0991 29.8153 44.8838 29.1693 44.8838 28.308V10.118C44.8838 9.27933 45.0991 8.64467 45.5298 8.214C45.9831 7.76067 46.6065 7.534 47.3998 7.534C48.2385 7.534 48.8731 7.76067 49.3038 8.214C49.7345 8.64467 49.9498 9.27933 49.9498 10.118V12.43L49.5758 11.104C49.9158 10.016 50.5958 9.14333 51.6158 8.486C52.6585 7.806 53.8485 7.466 55.1858 7.466C56.6365 7.466 57.9058 7.81733 58.9938 8.52C60.1045 9.22267 60.9658 10.22 61.5778 11.512C62.1898 12.804 62.4958 14.3453 62.4958 16.136C62.4958 17.9267 62.1898 19.4793 61.5778 20.794C60.9658 22.1087 60.1158 23.1173 59.0278 23.82C57.9398 24.5227 56.6591 24.874 55.1858 24.874C53.8711 24.874 52.7038 24.5567 51.6838 23.922C50.6638 23.2647 49.9725 22.4147 49.6098 21.372H50.0178V28.308C50.0178 29.1693 49.7911 29.8153 49.3378 30.246C48.9071 30.6993 48.2838 30.926 47.4678 30.926ZM53.6558 21.032C54.3811 21.032 55.0158 20.8507 55.5598 20.488C56.1265 20.1253 56.5571 19.5927 56.8518 18.89C57.1691 18.1647 57.3278 17.2467 57.3278 16.136C57.3278 14.4813 56.9878 13.2687 56.3078 12.498C55.6278 11.7047 54.7438 11.308 53.6558 11.308C52.9305 11.308 52.2845 11.478 51.7178 11.818C51.1738 12.158 50.7431 12.6907 50.4258 13.416C50.1085 14.1187 49.9498 15.0253 49.9498 16.136C49.9498 17.7907 50.2898 19.026 50.9698 19.842C51.6498 20.6353 52.5451 21.032 53.6558 21.032ZM67.8798 30.926C67.0411 30.926 66.3951 30.6993 65.9418 30.246C65.5111 29.8153 65.2958 29.1693 65.2958 28.308V10.118C65.2958 9.27933 65.5111 8.64467 65.9418 8.214C66.3951 7.76067 67.0184 7.534 67.8118 7.534C68.6504 7.534 69.2851 7.76067 69.7158 8.214C70.1464 8.64467 70.3618 9.27933 70.3618 10.118V12.43L69.9878 11.104C70.3278 10.016 71.0078 9.14333 72.0278 8.486C73.0704 7.806 74.2604 7.466 75.5978 7.466C77.0484 7.466 78.3178 7.81733 79.4058 8.52C80.5164 9.22267 81.3778 10.22 81.9898 11.512C82.6018 12.804 82.9078 14.3453 82.9078 16.136C82.9078 17.9267 82.6018 19.4793 81.9898 20.794C81.3778 22.1087 80.5278 23.1173 79.4398 23.82C78.3518 24.5227 77.0711 24.874 75.5978 24.874C74.2831 24.874 73.1158 24.5567 72.0958 23.922C71.0758 23.2647 70.3844 22.4147 70.0218 21.372H70.4298V28.308C70.4298 29.1693 70.2031 29.8153 69.7498 30.246C69.3191 30.6993 68.6958 30.926 67.8798 30.926ZM74.0678 21.032C74.7931 21.032 75.4278 20.8507 75.9718 20.488C76.5384 20.1253 76.9691 19.5927 77.2638 18.89C77.5811 18.1647 77.7398 17.2467 77.7398 16.136C77.7398 14.4813 77.3998 13.2687 76.7198 12.498C76.0398 11.7047 75.1558 11.308 74.0678 11.308C73.3424 11.308 72.6964 11.478 72.1298 11.818C71.5858 12.158 71.1551 12.6907 70.8378 13.416C70.5204 14.1187 70.3618 15.0253 70.3618 16.136C70.3618 17.7907 70.7018 19.026 71.3818 19.842C72.0618 20.6353 72.9571 21.032 74.0678 21.032ZM89.8653 30.926C89.2759 30.926 88.7886 30.7673 88.4033 30.45C88.0179 30.1327 87.7913 29.7133 87.7233 29.192C87.6553 28.6933 87.7459 28.1607 87.9953 27.594L90.2733 22.562V24.67L84.2553 10.866C84.0286 10.2767 83.9493 9.73267 84.0173 9.234C84.1079 8.71267 84.3573 8.30467 84.7653 8.01C85.1959 7.69267 85.7853 7.534 86.5333 7.534C87.1453 7.534 87.6326 7.68133 87.9953 7.976C88.3806 8.248 88.7319 8.78067 89.0493 9.574L93.0613 19.774H91.9733L96.1213 9.54C96.4386 8.76933 96.7899 8.248 97.1753 7.976C97.5833 7.68133 98.1273 7.534 98.8073 7.534C99.3966 7.534 99.8613 7.69267 100.201 8.01C100.564 8.30467 100.779 8.70133 100.847 9.2C100.938 9.69867 100.847 10.2427 100.575 10.832L92.5853 28.954C92.2453 29.7247 91.8599 30.246 91.4293 30.518C91.0213 30.79 90.4999 30.926 89.8653 30.926ZM110.748 24.874C109.547 24.874 108.323 24.738 107.076 24.466C105.852 24.1713 104.787 23.7633 103.88 23.242C103.291 22.9247 102.883 22.5507 102.656 22.12C102.452 21.6667 102.373 21.2247 102.418 20.794C102.486 20.3633 102.668 19.9893 102.962 19.672C103.257 19.332 103.631 19.1167 104.084 19.026C104.56 18.9353 105.082 19.026 105.648 19.298C106.532 19.7287 107.371 20.0347 108.164 20.216C108.958 20.3973 109.751 20.488 110.544 20.488C111.451 20.488 112.21 20.3747 112.822 20.148C113.434 19.8987 113.899 19.5473 114.216 19.094C114.534 18.6407 114.692 18.074 114.692 17.394C114.692 16.442 114.364 15.728 113.706 15.252C113.049 14.776 112.086 14.538 110.816 14.538H108.81C108.062 14.538 107.484 14.3567 107.076 13.994C106.691 13.6087 106.498 13.0873 106.498 12.43C106.498 11.75 106.691 11.2287 107.076 10.866C107.484 10.4807 108.062 10.288 108.81 10.288H110.306C111.077 10.288 111.723 10.1747 112.244 9.948C112.788 9.69867 113.208 9.35867 113.502 8.928C113.82 8.49733 113.978 7.96467 113.978 7.33C113.978 6.42333 113.661 5.732 113.026 5.256C112.414 4.78 111.519 4.542 110.34 4.542C109.615 4.542 108.901 4.63267 108.198 4.814C107.496 4.97267 106.736 5.26733 105.92 5.698C105.422 5.94733 104.957 6.02667 104.526 5.936C104.096 5.84533 103.733 5.64133 103.438 5.324C103.166 5.00667 102.985 4.644 102.894 4.236C102.826 3.80533 102.883 3.37467 103.064 2.944C103.268 2.51333 103.631 2.162 104.152 1.89C105.127 1.32333 106.181 0.892665 107.314 0.598C108.47 0.303333 109.638 0.155999 110.816 0.155999C112.539 0.155999 114.012 0.416666 115.236 0.937999C116.46 1.45933 117.401 2.20733 118.058 3.182C118.716 4.134 119.044 5.29 119.044 6.65C119.044 7.57933 118.863 8.42933 118.5 9.2C118.138 9.97067 117.628 10.628 116.97 11.172C116.336 11.6933 115.554 12.0673 114.624 12.294V11.852C116.234 12.124 117.492 12.7927 118.398 13.858C119.305 14.9233 119.758 16.2607 119.758 17.87C119.758 19.298 119.396 20.5447 118.67 21.61C117.945 22.6527 116.902 23.4573 115.542 24.024C114.205 24.5907 112.607 24.874 110.748 24.874ZM132.291 24.874C130.251 24.874 128.517 24.398 127.089 23.446C125.661 22.494 124.573 21.1227 123.825 19.332C123.077 17.5413 122.703 15.3767 122.703 12.838C122.703 10.8207 122.941 9.03 123.417 7.466C123.916 5.902 124.618 4.576 125.525 3.488C126.432 2.4 127.542 1.57267 128.857 1.006C130.194 0.439332 131.69 0.155999 133.345 0.155999C134.32 0.155999 135.306 0.291999 136.303 0.563998C137.3 0.835999 138.23 1.244 139.091 1.788C139.544 2.01467 139.85 2.34333 140.009 2.774C140.19 3.182 140.247 3.60133 140.179 4.032C140.111 4.46267 139.941 4.848 139.669 5.188C139.397 5.50533 139.046 5.72067 138.615 5.834C138.207 5.92467 137.731 5.84533 137.187 5.596C136.484 5.21067 135.804 4.93867 135.147 4.78C134.512 4.62133 133.889 4.542 133.277 4.542C132.076 4.542 131.056 4.814 130.217 5.358C129.378 5.902 128.744 6.718 128.313 7.806C127.905 8.894 127.701 10.2427 127.701 11.852V14.062H127.225C127.429 12.974 127.803 12.056 128.347 11.308C128.914 10.5373 129.628 9.948 130.489 9.54C131.35 9.132 132.302 8.928 133.345 8.928C134.705 8.928 135.906 9.268 136.949 9.948C138.014 10.6053 138.853 11.5233 139.465 12.702C140.077 13.858 140.383 15.184 140.383 16.68C140.383 18.2667 140.043 19.6833 139.363 20.93C138.683 22.154 137.731 23.1173 136.507 23.82C135.306 24.5227 133.9 24.874 132.291 24.874ZM132.019 20.76C132.722 20.76 133.334 20.6013 133.855 20.284C134.399 19.9667 134.807 19.5133 135.079 18.924C135.374 18.3347 135.521 17.6547 135.521 16.884C135.521 16.1133 135.374 15.4447 135.079 14.878C134.807 14.2887 134.399 13.8353 133.855 13.518C133.334 13.178 132.722 13.008 132.019 13.008C131.316 13.008 130.693 13.178 130.149 13.518C129.628 13.8353 129.22 14.2887 128.925 14.878C128.63 15.4447 128.483 16.1133 128.483 16.884C128.483 17.6547 128.63 18.3347 128.925 18.924C129.22 19.5133 129.628 19.9667 130.149 20.284C130.693 20.6013 131.316 20.76 132.019 20.76ZM151.454 24.874C150.298 24.874 149.108 24.7267 147.884 24.432C146.66 24.1373 145.538 23.6953 144.518 23.106C143.996 22.8113 143.634 22.4487 143.43 22.018C143.248 21.5873 143.192 21.1453 143.26 20.692C143.35 20.2387 143.532 19.8533 143.804 19.536C144.098 19.196 144.461 18.9807 144.892 18.89C145.345 18.7993 145.844 18.9013 146.388 19.196C147.181 19.604 147.986 19.9213 148.802 20.148C149.64 20.3747 150.49 20.488 151.352 20.488C152.213 20.488 152.95 20.3407 153.562 20.046C154.174 19.7513 154.638 19.3433 154.956 18.822C155.273 18.3007 155.432 17.6887 155.432 16.986C155.432 15.898 155.08 15.0253 154.378 14.368C153.698 13.7107 152.768 13.382 151.59 13.382C151 13.382 150.4 13.484 149.788 13.688C149.198 13.8693 148.586 14.198 147.952 14.674C147.725 14.8553 147.43 15.0253 147.068 15.184C146.705 15.3427 146.32 15.422 145.912 15.422C145.209 15.422 144.688 15.2633 144.348 14.946C144.008 14.606 143.838 14.1187 143.838 13.484V2.808C143.838 2.06 144.03 1.49333 144.416 1.108C144.824 0.722665 145.39 0.529999 146.116 0.529999H157.03C157.778 0.529999 158.344 0.722665 158.73 1.108C159.115 1.47067 159.308 2.00333 159.308 2.706C159.308 3.386 159.115 3.91867 158.73 4.304C158.344 4.66667 157.778 4.848 157.03 4.848H148.904V11.342H147.612C148.178 10.6393 148.926 10.0953 149.856 9.71C150.785 9.32467 151.805 9.132 152.916 9.132C154.434 9.132 155.76 9.46067 156.894 10.118C158.027 10.7527 158.911 11.648 159.546 12.804C160.18 13.96 160.498 15.2973 160.498 16.816C160.498 18.4027 160.135 19.808 159.41 21.032C158.684 22.2333 157.642 23.174 156.282 23.854C154.922 24.534 153.312 24.874 151.454 24.874Z" fill="#FFAB07"/>
<path d="M175.546 24.874C172.849 24.874 170.56 24.364 168.678 23.344C166.82 22.324 165.403 20.896 164.428 19.06C163.454 17.224 162.966 15.0707 162.966 12.6C162.966 10.696 163.25 8.98467 163.816 7.466C164.406 5.92467 165.244 4.62133 166.332 3.556C167.443 2.468 168.78 1.62933 170.344 1.04C171.931 0.450666 173.722 0.155999 175.716 0.155999C176.94 0.155999 178.164 0.291999 179.388 0.563998C180.612 0.835999 181.791 1.28933 182.924 1.924C183.4 2.196 183.718 2.54733 183.876 2.978C184.058 3.386 184.103 3.828 184.012 4.304C183.944 4.75733 183.763 5.16533 183.468 5.528C183.196 5.868 182.834 6.09467 182.38 6.208C181.95 6.29867 181.451 6.208 180.884 5.936C180.136 5.528 179.343 5.23333 178.504 5.052C177.666 4.848 176.748 4.746 175.75 4.746C174.141 4.746 172.792 5.052 171.704 5.664C170.616 6.25333 169.8 7.13733 169.256 8.316C168.735 9.472 168.474 10.9 168.474 12.6C168.474 15.1613 169.086 17.0993 170.31 18.414C171.557 19.7287 173.393 20.386 175.818 20.386C176.634 20.386 177.473 20.3067 178.334 20.148C179.196 19.9893 180.046 19.7627 180.884 19.468L179.898 21.61V15.082H176.838C176.158 15.082 175.637 14.912 175.274 14.572C174.912 14.232 174.73 13.7673 174.73 13.178C174.73 12.566 174.912 12.1013 175.274 11.784C175.637 11.444 176.158 11.274 176.838 11.274H182.176C182.856 11.274 183.366 11.4553 183.706 11.818C184.069 12.1807 184.25 12.702 184.25 13.382V21.27C184.25 21.8593 184.137 22.358 183.91 22.766C183.684 23.174 183.298 23.4687 182.754 23.65C181.734 24.0127 180.59 24.3073 179.32 24.534C178.051 24.7607 176.793 24.874 175.546 24.874ZM194.151 24.874C192.133 24.874 190.626 24.3187 189.629 23.208C188.631 22.0747 188.133 20.3973 188.133 18.176V2.842C188.133 1.98067 188.348 1.33467 188.779 0.904C189.232 0.450666 189.878 0.223998 190.717 0.223998C191.533 0.223998 192.156 0.450666 192.587 0.904C193.04 1.33467 193.267 1.98067 193.267 2.842V17.972C193.267 18.9013 193.459 19.5927 193.845 20.046C194.253 20.4767 194.785 20.692 195.443 20.692C195.624 20.692 195.794 20.6807 195.953 20.658C196.111 20.6353 196.281 20.624 196.463 20.624C196.825 20.5787 197.075 20.692 197.211 20.964C197.369 21.2133 197.449 21.7233 197.449 22.494C197.449 23.174 197.313 23.6953 197.041 24.058C196.769 24.398 196.349 24.6247 195.783 24.738C195.556 24.7607 195.295 24.7833 195.001 24.806C194.706 24.8513 194.423 24.874 194.151 24.874ZM206.973 24.874C205.182 24.874 203.618 24.5227 202.281 23.82C200.966 23.1173 199.946 22.1087 199.221 20.794C198.496 19.4793 198.133 17.9267 198.133 16.136C198.133 14.7987 198.337 13.5973 198.745 12.532C199.153 11.4667 199.742 10.56 200.513 9.812C201.306 9.04133 202.247 8.46333 203.335 8.078C204.423 7.67 205.636 7.466 206.973 7.466C208.764 7.466 210.316 7.81733 211.631 8.52C212.968 9.22267 214 10.22 214.725 11.512C215.473 12.804 215.847 14.3453 215.847 16.136C215.847 17.496 215.632 18.7087 215.201 19.774C214.793 20.8393 214.204 21.7573 213.433 22.528C212.662 23.2987 211.722 23.888 210.611 24.296C209.523 24.6813 208.31 24.874 206.973 24.874ZM206.973 21.032C207.721 21.032 208.367 20.8507 208.911 20.488C209.455 20.1253 209.886 19.5927 210.203 18.89C210.52 18.1647 210.679 17.2467 210.679 16.136C210.679 14.4813 210.339 13.2687 209.659 12.498C208.979 11.7047 208.084 11.308 206.973 11.308C206.248 11.308 205.602 11.478 205.035 11.818C204.491 12.158 204.06 12.6907 203.743 13.416C203.448 14.1187 203.301 15.0253 203.301 16.136C203.301 17.7907 203.641 19.026 204.321 19.842C205.001 20.6353 205.885 21.032 206.973 21.032ZM228.932 24.874C227.595 24.874 226.405 24.5453 225.362 23.888C224.342 23.208 223.662 22.3127 223.322 21.202L223.696 20.08V22.188C223.696 23.0267 223.481 23.6727 223.05 24.126C222.62 24.5793 221.996 24.806 221.18 24.806C220.364 24.806 219.73 24.5793 219.276 24.126C218.846 23.6727 218.63 23.0267 218.63 22.188V2.842C218.63 1.98067 218.846 1.33467 219.276 0.904C219.73 0.450666 220.376 0.223998 221.214 0.223998C222.03 0.223998 222.654 0.450666 223.084 0.904C223.538 1.33467 223.764 1.98067 223.764 2.842V10.9H223.356C223.719 9.88 224.41 9.05267 225.43 8.418C226.45 7.78333 227.618 7.466 228.932 7.466C230.406 7.466 231.686 7.81733 232.774 8.52C233.862 9.22267 234.712 10.22 235.324 11.512C235.936 12.804 236.242 14.3453 236.242 16.136C236.242 17.9267 235.936 19.4793 235.324 20.794C234.712 22.1087 233.851 23.1173 232.74 23.82C231.652 24.5227 230.383 24.874 228.932 24.874ZM227.402 21.032C228.128 21.032 228.762 20.8507 229.306 20.488C229.873 20.1253 230.304 19.5927 230.598 18.89C230.916 18.1647 231.074 17.2467 231.074 16.136C231.074 14.4813 230.734 13.2687 230.054 12.498C229.374 11.7047 228.49 11.308 227.402 11.308C226.677 11.308 226.031 11.478 225.464 11.818C224.92 12.158 224.49 12.6907 224.172 13.416C223.855 14.1187 223.696 15.0253 223.696 16.136C223.696 17.7907 224.036 19.026 224.716 19.842C225.396 20.6353 226.292 21.032 227.402 21.032ZM244.686 24.874C243.462 24.874 242.363 24.636 241.388 24.16C240.414 23.684 239.654 23.038 239.11 22.222C238.566 21.406 238.294 20.488 238.294 19.468C238.294 18.244 238.612 17.2807 239.246 16.578C239.881 15.8527 240.912 15.3427 242.34 15.048C243.768 14.7307 245.661 14.572 248.018 14.572H249.82V17.224H248.052C246.896 17.224 245.956 17.292 245.23 17.428C244.528 17.5413 244.018 17.7453 243.7 18.04C243.406 18.3347 243.258 18.7427 243.258 19.264C243.258 19.8987 243.474 20.42 243.904 20.828C244.358 21.236 245.004 21.44 245.842 21.44C246.5 21.44 247.078 21.2927 247.576 20.998C248.098 20.6807 248.506 20.2613 248.8 19.74C249.095 19.196 249.242 18.584 249.242 17.904V13.994C249.242 12.9967 249.016 12.294 248.562 11.886C248.109 11.4553 247.338 11.24 246.25 11.24C245.638 11.24 244.97 11.3193 244.244 11.478C243.542 11.614 242.76 11.852 241.898 12.192C241.4 12.4187 240.958 12.4753 240.572 12.362C240.187 12.226 239.892 11.9993 239.688 11.682C239.484 11.342 239.382 10.9793 239.382 10.594C239.382 10.186 239.496 9.80067 239.722 9.438C239.949 9.05267 240.323 8.76933 240.844 8.588C241.91 8.15733 242.907 7.86267 243.836 7.704C244.788 7.54533 245.661 7.466 246.454 7.466C248.2 7.466 249.628 7.72667 250.738 8.248C251.872 8.74667 252.722 9.52867 253.288 10.594C253.855 11.6367 254.138 12.9853 254.138 14.64V22.188C254.138 23.0267 253.934 23.6727 253.526 24.126C253.118 24.5793 252.529 24.806 251.758 24.806C250.988 24.806 250.387 24.5793 249.956 24.126C249.548 23.6727 249.344 23.0267 249.344 22.188V20.93L249.582 21.134C249.446 21.9047 249.152 22.5733 248.698 23.14C248.268 23.684 247.712 24.1147 247.032 24.432C246.352 24.7267 245.57 24.874 244.686 24.874ZM263.646 24.874C261.629 24.874 260.121 24.3187 259.124 23.208C258.127 22.0747 257.628 20.3973 257.628 18.176V2.842C257.628 1.98067 257.843 1.33467 258.274 0.904C258.727 0.450666 259.373 0.223998 260.212 0.223998C261.028 0.223998 261.651 0.450666 262.082 0.904C262.535 1.33467 262.762 1.98067 262.762 2.842V17.972C262.762 18.9013 262.955 19.5927 263.34 20.046C263.748 20.4767 264.281 20.692 264.938 20.692C265.119 20.692 265.289 20.6807 265.448 20.658C265.607 20.6353 265.777 20.624 265.958 20.624C266.321 20.5787 266.57 20.692 266.706 20.964C266.865 21.2133 266.944 21.7233 266.944 22.494C266.944 23.174 266.808 23.6953 266.536 24.058C266.264 24.398 265.845 24.6247 265.278 24.738C265.051 24.7607 264.791 24.7833 264.496 24.806C264.201 24.8513 263.918 24.874 263.646 24.874Z" fill="#9DCA00"/>
</svg>
