<svg width="16" height="17" viewBox="0 0 16 17" fill="none" xmlns="http://www.w3.org/2000/svg">
<g clip-path="url(#clip0_788_13450)">
<path d="M15.6875 6.46777C15.8125 6.37402 16 6.46777 16 6.62402V12.999C16 13.8428 15.3125 14.499 14.5 14.499H1.5C0.65625 14.499 0 13.8428 0 12.999V6.62402C0 6.46777 0.15625 6.37402 0.28125 6.46777C1 7.03027 1.90625 7.71777 5.09375 10.0303C5.75 10.499 6.875 11.5303 8 11.5303C9.09375 11.5303 10.25 10.499 10.875 10.0303C14.0625 7.71777 14.9688 7.03027 15.6875 6.46777ZM8 10.499C7.25 10.5303 6.21875 9.59277 5.6875 9.21777C1.53125 6.21777 1.21875 5.93652 0.28125 5.18652C0.09375 5.06152 0 4.84277 0 4.59277V3.99902C0 3.18652 0.65625 2.49902 1.5 2.49902H14.5C15.3125 2.49902 16 3.18652 16 3.99902V4.59277C16 4.84277 15.875 5.06152 15.6875 5.18652C14.75 5.93652 14.4375 6.21777 10.2812 9.21777C9.75 9.59277 8.71875 10.5303 8 10.499Z" fill="#8C8C8C"/>
</g>
<defs>
<clipPath id="clip0_788_13450">
<rect width="16" height="16" fill="white" transform="translate(0 0.499023)"/>
</clipPath>
</defs>
</svg>
