<svg width="14" height="17" viewBox="0 0 14 17" fill="none" xmlns="http://www.w3.org/2000/svg">
<path d="M12.5 2.5C13.3125 2.5 14 3.1875 14 4V5.5H0V4C0 3.1875 0.65625 2.5 1.5 2.5H3V1C3 0.75 3.21875 0.5 3.5 0.5H4.5C4.75 0.5 5 0.75 5 1V2.5H9V1C9 0.75 9.21875 0.5 9.5 0.5H10.5C10.75 0.5 11 0.75 11 1V2.5H12.5ZM0 15V6.5H14V15C14 15.8438 13.3125 16.5 12.5 16.5H1.5C0.65625 16.5 0 15.8438 0 15ZM4.1875 10.5312C3.875 10.5625 3.75 10.9375 3.96875 11.1562L5.21875 12.375L4.90625 14.0625C4.875 14.375 5.1875 14.625 5.46875 14.4688L7 13.6562L8.53125 14.4688C8.78125 14.625 9.125 14.375 9.0625 14.0625L8.78125 12.375L10 11.1562C10.2188 10.9375 10.0938 10.5625 9.8125 10.5312L8.09375 10.2812L7.3125 8.71875C7.1875 8.4375 6.78125 8.4375 6.65625 8.71875L5.875 10.2812L4.1875 10.5312Z" fill="white"/>
</svg>
