<svg width="15" height="17" viewBox="0 0 15 17" fill="none" xmlns="http://www.w3.org/2000/svg">
<path d="M7.19995 8.5C4.9812 8.5 3.19995 6.71875 3.19995 4.5C3.19995 2.3125 4.9812 0.5 7.19995 0.5C9.38745 0.5 11.2 2.3125 11.2 4.5C11.2 6.71875 9.38745 8.5 7.19995 8.5ZM9.9812 9.5C12.2937 9.5 14.2 11.4062 14.2 13.7188V15C14.2 15.8438 13.5125 16.5 12.7 16.5H1.69995C0.856201 16.5 0.199951 15.8438 0.199951 15V13.7188C0.199951 11.4062 2.07495 9.5 4.38745 9.5H4.9187C5.6062 9.84375 6.38745 10 7.19995 10C8.01245 10 8.76245 9.84375 9.44995 9.5H9.9812Z" fill="white"/>
</svg>
