<svg width="28" height="29" viewBox="0 0 28 29" fill="none" xmlns="http://www.w3.org/2000/svg">
  <path d="M18.834 19.8346L21.5007 22.5013L26.834 17.168" stroke="currentColor" stroke-width="2" stroke-linecap="round"
    stroke-linejoin="round" />
  <path
    d="M25.5 11.8339V9.16719C25.4995 8.69955 25.3761 8.24027 25.1421 7.8354C24.908 7.43054 24.5717 7.09434 24.1667 6.86052L14.8333 1.52719C14.4279 1.29314 13.9681 1.16992 13.5 1.16992C13.0319 1.16992 12.5721 1.29314 12.1667 1.52719L2.83333 6.86052C2.42835 7.09434 2.09197 7.43054 1.85795 7.8354C1.62392 8.24027 1.50048 8.69955 1.5 9.16719V19.8339C1.50048 20.3015 1.62392 20.7608 1.85795 21.1656C2.09197 21.5705 2.42835 21.9067 2.83333 22.1405L12.1667 27.4739C12.5721 27.7079 13.0319 27.8311 13.5 27.8311C13.9681 27.8311 14.4279 27.7079 14.8333 27.4739L17.5 25.9539M7.5 4.19385L19.5 11.0605"
    stroke="currentColor" stroke-width="2" stroke-linecap="round" stroke-linejoin="round" />
  <path d="M1.88672 7.83398L13.5001 14.5007M13.5001 14.5007L25.1134 7.83398M13.5001 14.5007V27.834"
    stroke="currentColor" stroke-width="2" stroke-linecap="round" stroke-linejoin="round" />
</svg>