<?xml version="1.0" standalone="no"?>
<!DOCTYPE svg PUBLIC "-//W3C//DTD SVG 20010904//EN" "http://www.w3.org/TR/2001/REC-SVG-20010904/DTD/svg10.dtd">
<svg version="1.0" xmlns="http://www.w3.org/2000/svg" width="512.000000pt" height="512.000000pt"
  viewBox="0 0 512.000000 512.000000" preserveAspectRatio="xMidYMid meet">

  <g transform="translate(0.000000,512.000000) scale(0.100000,-0.100000)" fill="currentColor" stroke="none">
    <path d="M1300 4549 c-674 -314 -1236 -581 -1249 -593 -53 -48 -51 22 -51
-1476 0 -1498 -2 -1428 51 -1477 31 -28 2470 -1003 2509 -1003 16 0 182 61
369 136 l339 135 68 -51 c83 -62 240 -142 332 -169 287 -85 562 -62 827 69
339 167 561 476 615 855 6 44 10 600 10 1483 0 1522 2 1450 -51 1498 -13 12
-571 277 -1239 589 -888 415 -1227 569 -1260 572 -42 4 -120 -31 -1270 -568z
m2264 -234 c542 -253 982 -463 978 -466 -11 -12 -735 -299 -752 -299 -21 0
-2030 853 -2024 860 15 15 781 368 796 367 9 -1 460 -209 1002 -462z m-1200
-514 c533 -226 975 -415 983 -420 11 -5 -111 -59 -386 -169 l-401 -160 -987
395 c-544 217 -991 398 -995 401 -12 11 764 371 792 368 14 -2 461 -188 994
-415z m-989 -619 l1020 -408 3 -1188 c2 -1128 1 -1187 -15 -1182 -10 3 -477
189 -1038 414 l-1020 408 -3 1188 c-2 1128 -1 1187 15 1182 10 -3 477 -189
1038 -414z m3425 -428 l0 -845 -67 57 c-257 217 -576 309 -903 259 -235 -35
-449 -144 -620 -315 -345 -345 -428 -868 -205 -1298 23 -45 40 -84 36 -86 -10
-6 -311 -126 -316 -126 -3 0 -4 534 -3 1187 l3 1187 1030 413 c567 226 1033
412 1038 413 4 0 7 -381 7 -846z m-610 -857 c207 -57 368 -172 481 -345 88
-134 124 -258 124 -432 0 -226 -75 -408 -231 -564 -310 -310 -812 -312 -1123
-5 -161 159 -236 340 -236 569 0 175 36 297 125 434 118 181 302 305 520 352
80 17 262 12 340 -9z" />
    <path d="M3695 1506 c-41 -18 -83 -69 -91 -111 -13 -71 2 -104 89 -192 l81
-83 -81 -83 c-87 -89 -102 -121 -88 -194 9 -49 69 -109 118 -118 73 -14 105 1
194 88 l83 81 83 -81 c89 -87 121 -102 194 -88 49 9 109 69 118 118 14 73 -1
105 -88 194 l-81 83 81 83 c87 89 102 121 88 194 -9 49 -69 109 -118 118 -73
14 -105 -1 -194 -88 l-83 -81 -78 76 c-99 99 -150 118 -227 84z" />
  </g>
</svg>