<svg width="33" height="33" viewBox="0 0 33 33" fill="none" xmlns="http://www.w3.org/2000/svg">
<path d="M18.5 14.5C18.5 15.5609 18.0786 16.5783 17.3284 17.3284C16.5783 18.0786 15.5609 18.5 14.5 18.5C13.4391 18.5 12.4217 18.0786 11.6716 17.3284C10.9214 16.5783 10.5 15.5609 10.5 14.5C10.5 13.4391 10.9214 12.4217 11.6716 11.6716C12.4217 10.9214 13.4391 10.5 14.5 10.5C15.5609 10.5 16.5783 10.9214 17.3284 11.6716C18.0786 12.4217 18.5 13.4391 18.5 14.5ZM16.5 14.5C16.5 13.9696 16.2893 13.4609 15.9142 13.0858C15.5391 12.7107 15.0304 12.5 14.5 12.5C13.9696 12.5 13.4609 12.7107 13.0858 13.0858C12.7107 13.4609 12.5 13.9696 12.5 14.5C12.5 15.0304 12.7107 15.5391 13.0858 15.9142C13.4609 16.2893 13.9696 16.5 14.5 16.5C15.0304 16.5 15.5391 16.2893 15.9142 15.9142C16.2893 15.5391 16.5 15.0304 16.5 14.5ZM2.5 9C2.5 7.62 3.62 6.5 5 6.5H24C25.38 6.5 26.5 7.62 26.5 9V20C26.5 21.38 25.38 22.5 24 22.5H5C3.62 22.5 2.5 21.38 2.5 20V9ZM5 8.5C4.86739 8.5 4.74021 8.55268 4.64645 8.64645C4.55268 8.74021 4.5 8.86739 4.5 9V10.5H5.5C5.76522 10.5 6.01957 10.3946 6.20711 10.2071C6.39464 10.0196 6.5 9.76522 6.5 9.5V8.5H5ZM4.5 20C4.5 20.276 4.724 20.5 5 20.5H6.5V19.5C6.5 19.2348 6.39464 18.9804 6.20711 18.7929C6.01957 18.6054 5.76522 18.5 5.5 18.5H4.5V20ZM8.5 19.5V20.5H20.5V19.5C20.5 18.7044 20.8161 17.9413 21.3787 17.3787C21.9413 16.8161 22.7044 16.5 23.5 16.5H24.5V12.5H23.5C22.7044 12.5 21.9413 12.1839 21.3787 11.6213C20.8161 11.0587 20.5 10.2956 20.5 9.5V8.5H8.5V9.5C8.5 10.2956 8.18393 11.0587 7.62132 11.6213C7.05871 12.1839 6.29565 12.5 5.5 12.5H4.5V16.5H5.5C6.29565 16.5 7.05871 16.8161 7.62132 17.3787C8.18393 17.9413 8.5 18.7044 8.5 19.5ZM22.5 20.5H24C24.1326 20.5 24.2598 20.4473 24.3536 20.3536C24.4473 20.2598 24.5 20.1326 24.5 20V18.5H23.5C23.2348 18.5 22.9804 18.6054 22.7929 18.7929C22.6054 18.9804 22.5 19.2348 22.5 19.5V20.5ZM24.5 10.5V9C24.5 8.86739 24.4473 8.74021 24.3536 8.64645C24.2598 8.55268 24.1326 8.5 24 8.5H22.5V9.5C22.5 9.76522 22.6054 10.0196 22.7929 10.2071C22.9804 10.3946 23.2348 10.5 23.5 10.5H24.5ZM9.5 26.5C8.86644 26.5002 8.24906 26.2999 7.73637 25.9277C7.22367 25.5555 6.84198 25.0305 6.646 24.428C6.924 24.476 7.208 24.5 7.5 24.5H24C25.1935 24.5 26.3381 24.0259 27.182 23.182C28.0259 22.3381 28.5 21.1935 28.5 20V10.67C29.0852 10.8769 29.5917 11.2602 29.9499 11.767C30.3081 12.2739 30.5003 12.8793 30.5 13.5V20C30.5 20.8536 30.3319 21.6988 30.0052 22.4874C29.6786 23.2761 29.1998 23.9926 28.5962 24.5962C27.9926 25.1998 27.2761 25.6786 26.4874 26.0052C25.6988 26.3319 24.8536 26.5 24 26.5H9.5Z" fill="white"/>
</svg>
