<svg width="26" height="36" viewBox="0 0 26 36" fill="none" xmlns="http://www.w3.org/2000/svg">
<g clip-path="url(#clip0_106_1605)">
<path d="M0 11.0841C0.0579891 10.9536 0.115205 10.7314 0.240462 10.5605C0.964939 9.57011 1.67318 8.56413 2.45178 7.61719C3.04559 6.89475 3.73063 6.24689 4.3863 5.5765C4.54712 5.41259 4.74196 5.27742 4.93526 5.1508C5.26 4.93718 5.50819 4.94883 5.80896 5.2013C5.97752 5.34345 6.13911 5.50503 6.26592 5.68447C7.4574 7.36861 8.55687 9.10945 9.4414 10.9769C9.89294 11.9301 9.84269 12.1219 9.05635 12.8296C8.49579 13.3338 7.93291 13.8356 7.36616 14.3328C7.2239 14.4578 7.19838 14.5775 7.25251 14.7631C7.89425 16.9592 9.06331 18.8383 10.6708 20.4455C12.1282 21.9036 13.8331 22.9787 15.7831 23.6499C16.496 23.8954 16.5052 23.893 17.0272 23.3291C17.355 22.9741 17.6581 22.5957 17.9766 22.2314C18.1552 22.0279 18.34 21.8298 18.5256 21.6325C18.8333 21.3055 19.1967 21.2208 19.6026 21.4196C20.3217 21.7715 21.057 22.097 21.7444 22.5041C22.8732 23.1737 23.9735 23.8938 25.0753 24.6085C25.3312 24.7747 25.5639 24.9907 25.7719 25.2167C26.058 25.5282 26.075 25.7877 25.8307 26.1341C25.608 26.4488 25.3644 26.754 25.0954 27.029C23.8413 28.3123 22.4472 29.4278 21.006 30.4944C20.3225 31.0001 19.6467 31.0933 18.8395 30.917C16.3282 30.3693 14.0635 29.274 11.9527 27.8439C7.87724 25.0854 4.56181 21.6022 2.12859 17.3041C1.16133 15.5951 0.429119 13.789 0.0989681 11.8376C0.0626282 11.6186 0.040979 11.3964 0 11.0841Z" fill="#333333"/>
<path d="M25.9651 17.0817C25.3706 17.0817 24.7752 17.0817 24.1489 17.0817C24.0863 14.2937 23.126 11.8654 21.1536 9.88061C19.1789 7.89352 16.7626 6.91784 13.9529 6.85336C13.9529 6.24511 13.9529 5.64075 13.9529 5.03717C20.3062 4.84762 26.0958 10.4228 25.9651 17.0817Z" fill="#333333"/>
<path d="M19.5284 17.0772C19.4897 14.022 17.041 11.565 13.9529 11.4989C13.9529 10.8953 13.9529 10.291 13.9529 9.68662C17.6804 9.53203 21.3964 12.8281 21.3353 17.0772C20.733 17.0772 20.1307 17.0772 19.5284 17.0772Z" fill="#333333"/>
</g>
<defs>
<clipPath id="clip0_106_1605">
<rect width="26" height="26" fill="white" transform="translate(0 5)"/>
</clipPath>
</defs>
</svg>
