<svg xmlns="http://www.w3.org/2000/svg" width="19" height="19" viewBox="0 0 19 19" fill="none">
    <path
        d="M15.2466 12.3044C14.2629 12.3044 13.3686 12.6445 12.7095 13.1969L8.78905 11.0766C9.01274 10.6241 9.13697 10.1256 9.13697 9.60222C9.13697 9.07885 9.01274 8.58039 8.789 8.12788L12.7095 6.00759C13.3686 6.55995 14.2629 6.9 15.2466 6.9C17.2679 6.9 18.9124 5.46448 18.9124 3.7C18.9124 1.93552 17.2679 0.5 15.2466 0.5C13.2253 0.5 11.5808 1.93552 11.5808 3.7C11.5808 4.22092 11.7242 4.71316 11.9783 5.14825L8.14953 7.21893C7.3644 6.39461 6.18138 5.86889 4.86023 5.86889C2.50204 5.86889 0.583496 7.54366 0.583496 9.60222C0.583496 11.6608 2.50204 13.3356 4.86023 13.3356C6.18138 13.3356 7.3644 12.8098 8.14953 11.9855L11.9783 14.0562C11.7242 14.4913 11.5808 14.9835 11.5808 15.5044C11.5808 17.2689 13.2253 18.7044 15.2466 18.7044C17.2679 18.7044 18.9124 17.2689 18.9124 15.5044C18.9124 13.74 17.2679 12.3044 15.2466 12.3044ZM15.2466 1.56667C16.5941 1.56667 17.6904 2.52368 17.6904 3.7C17.6904 4.87632 16.5941 5.83333 15.2466 5.83333C13.8991 5.83333 12.8027 4.87632 12.8027 3.7C12.8027 2.52368 13.8991 1.56667 15.2466 1.56667ZM4.86023 12.2689C3.17581 12.2689 1.80542 11.0726 1.80542 9.60222C1.80542 8.13182 3.17581 6.93556 4.86023 6.93556C6.54466 6.93556 7.91504 8.13182 7.91504 9.60222C7.91504 11.0726 6.54466 12.2689 4.86023 12.2689ZM15.2466 17.6378C13.8991 17.6378 12.8027 16.6808 12.8027 15.5044C12.8027 14.3281 13.8991 13.3711 15.2466 13.3711C16.5941 13.3711 17.6904 14.3281 17.6904 15.5044C17.6904 16.6808 16.5941 17.6378 15.2466 17.6378Z"
        fill="currentColor" />
</svg>