<svg width="200" height="200" viewBox="0 0 200 200" fill="none" xmlns="http://www.w3.org/2000/svg">
<path d="M99.7864 187.505C86.2448 187.505 72.6979 187.52 59.1562 187.5C45.7239 187.479 34.8594 178.375 32.9791 165.119C31.9739 158.026 32.9323 150.901 35 144.067C43.2344 116.906 61.3229 100.203 89.2083 95.0881C124.594 88.5986 159.745 113.474 166.062 148.807C167.203 155.177 168.047 161.578 166.432 167.984C163.578 179.323 153.307 187.416 141.589 187.484C127.656 187.562 113.719 187.505 99.7864 187.505Z" fill="#1677FF"/>
<path d="M100.031 12.4473C120.323 12.4681 136.755 28.9837 136.698 49.3067C136.641 69.4942 120.146 85.9108 99.9375 85.8952C79.6667 85.8744 63.2084 69.3275 63.2657 49.0202C63.3229 28.8223 79.8073 12.4265 100.031 12.4473Z" fill="#1677FF"/>
<path d="M148 196C170.092 196 188 178.092 188 156C188 133.908 170.092 116 148 116C125.908 116 108 133.908 108 156C108 178.092 125.908 196 148 196Z" fill="#FAAD14" stroke="white" stroke-width="4" stroke-linejoin="round"/>
<path d="M164.021 167.26C163.16 164.084 163.368 159.912 164.629 155.205C165.728 151.104 165.153 146.735 163.03 143.058C160.908 139.381 157.411 136.699 153.31 135.6C149.21 134.501 144.84 135.076 141.164 137.199C137.487 139.322 134.804 142.818 133.705 146.919C132.444 151.627 130.542 155.344 128.208 157.664C127.732 158.137 127.389 158.727 127.213 159.375C127.037 160.023 127.034 160.706 127.205 161.355C127.375 162.004 127.714 162.596 128.188 163.069C128.663 163.543 129.255 163.882 129.904 164.051L136.564 165.835C136.207 167.897 136.634 170.018 137.761 171.781C138.889 173.544 140.634 174.822 142.656 175.364C144.677 175.905 146.828 175.672 148.686 174.708C150.543 173.745 151.974 172.122 152.696 170.158L159.356 171.942C160.001 172.119 160.683 172.122 161.329 171.948C161.976 171.775 162.565 171.432 163.035 170.955C163.509 170.48 163.85 169.888 164.023 169.24C164.196 168.591 164.195 167.908 164.021 167.26ZM143.841 170.942C142.992 170.714 142.248 170.201 141.734 169.488C141.22 168.775 140.969 167.907 141.022 167.03L148.238 168.963C147.845 169.749 147.193 170.375 146.392 170.736C145.59 171.097 144.689 171.169 143.841 170.942ZM132.314 159.961C134.831 157.085 136.785 153.098 138.123 148.103C138.908 145.173 140.824 142.676 143.45 141.16C146.077 139.644 149.198 139.233 152.127 140.018C155.056 140.802 157.553 142.719 159.069 145.345C160.586 147.971 160.997 151.092 160.212 154.021C158.874 159.015 158.57 163.446 159.312 167.195L132.314 159.961Z" fill="white"/>
</svg>
