<svg width="200" height="200" viewBox="0 0 200 200" fill="none" xmlns="http://www.w3.org/2000/svg">
<path d="M99.7866 187.505C86.2449 187.505 72.698 187.52 59.1564 187.5C45.7241 187.479 34.8595 178.375 32.9793 165.119C31.9741 158.026 32.9324 150.901 35.0001 144.067C43.2345 116.906 61.323 100.203 89.2084 95.0881C124.594 88.5986 159.745 113.474 166.063 148.807C167.203 155.177 168.047 161.578 166.432 167.984C163.578 179.323 153.307 187.416 141.589 187.484C127.656 187.562 113.719 187.505 99.7866 187.505Z" fill="#1677FF"/>
<path d="M100.031 12.4473C120.323 12.4681 136.755 28.9837 136.698 49.3067C136.641 69.4942 120.146 85.9108 99.9377 85.8952C79.6668 85.8744 63.2085 69.3275 63.2658 49.0202C63.3231 28.8223 79.8074 12.4265 100.031 12.4473Z" fill="#1677FF"/>
<path d="M148 197C170.644 197 189 178.644 189 156C189 133.356 170.644 115 148 115C125.356 115 107 133.356 107 156C107 178.644 125.356 197 148 197Z" fill="#52C41A" stroke="white" stroke-width="6"/>
<path d="M132.8 157.9L144.2 169.3L163.2 146.5" fill="#52C41A"/>
<path d="M132.8 157.9L144.2 169.3L163.2 146.5" stroke="white" stroke-width="6" stroke-linecap="round" stroke-linejoin="round"/>
</svg>
