<svg width="15" height="11" viewBox="0 0 15 11" fill="none" xmlns="http://www.w3.org/2000/svg">
<path d="M7.9375 2.34375L10 4.375H0.75C0.3125 4.375 0 4.71875 0 5.125V5.875C0 6.3125 0.3125 6.625 0.75 6.625H10L7.9375 8.6875C7.65625 8.96875 7.65625 9.46875 7.9375 9.75L8.46875 10.2812C8.75 10.5625 9.25 10.5625 9.53125 10.2812L13.75 6.03125C14.0625 5.75 14.0625 5.28125 13.75 5L9.53125 0.75C9.25 0.46875 8.75 0.46875 8.46875 0.75L7.9375 1.28125C7.65625 1.5625 7.65625 2.0625 7.9375 2.34375Z" fill="white"/>
</svg>
