<svg xmlns="http://www.w3.org/2000/svg" width="15" height="17" viewBox="0 0 15 17" fill="none">
    <path
        d="M10.295 0.5V1.73077H11.6617C12.1405 1.73215 12.6132 1.60588 13.0441 1.36154L13.1072 1.32462L1.54311 14.8631V14.8262C1.76168 14.3223 1.87857 13.7665 1.88478 13.2015V11.5769H0.833496V16.5H5.03862V15.2692H3.65093C3.18577 15.2685 2.72626 15.3883 2.30529 15.62L2.24747 15.6508L13.8116 2.11231V2.17385C13.5826 2.683 13.4583 3.24777 13.4489 3.82308V5.42308H14.5002V0.5H10.295Z"
        fill="currentColor" />
    <path
        d="M6.93096 6.83232L2.25273 1.35539H2.28427C2.70676 1.59735 3.17011 1.72558 3.64043 1.73077H5.03864V0.5H0.833496V5.42309H1.88478V3.78616C1.88468 3.24828 1.78425 2.71693 1.59042 2.22923L1.56414 2.16154L6.24236 7.63848L6.93096 6.83232Z"
        fill="currentColor" />
    <path
        d="M13.4505 11.577V13.2201C13.4506 13.758 13.551 14.2893 13.7448 14.777L13.7659 14.8262L9.09289 9.35547L8.4043 10.1616L13.0773 15.6324H13.0352C12.6183 15.3982 12.1625 15.2743 11.7001 15.2693H10.2966V16.5001H14.5018V11.577H13.4505Z"
        fill="currentColor" />
</svg>