<?xml version="1.0" encoding="utf-8"?>
<!-- Generator: Adobe Illustrator 26.3.1, SVG Export Plug-In . SVG Version: 6.00 Build 0)  -->
<svg version="1.1" id="Layer_1" xmlns="http://www.w3.org/2000/svg" xmlns:xlink="http://www.w3.org/1999/xlink" x="0px" y="0px"
	 viewBox="0 0 512 512" style="enable-background:new 0 0 512 512;" xml:space="preserve">
<style type="text/css">
	.st0{fill-rule:evenodd;clip-rule:evenodd;fill:url(#SVGID_1_);}
	.st1{fill-rule:evenodd;clip-rule:evenodd;fill:#FFFFFF;}
	.st2{fill-rule:evenodd;clip-rule:evenodd;}
	.st3{fill:#FFFFFF;}
	.st4{fill:#F29F1D;}
	.st5{fill:#B5731C;}
	.st6{fill:#382105;}
	.st7{fill:url(#SVGID_00000003820107144980911770000006439553489825855644_);}
	.st8{fill:url(#SVGID_00000168106304208903302470000013581540743850879626_);}
	.st9{fill:url(#SVGID_00000039846686913720795540000004378229638798683521_);}
	.st10{fill-rule:evenodd;clip-rule:evenodd;fill:url(#SVGID_00000105392939893902004570000007510355405606404781_);}
	.st11{fill-rule:evenodd;clip-rule:evenodd;fill:url(#SVGID_00000116199962155098292720000015969677434934803880_);}
	.st12{fill-rule:evenodd;clip-rule:evenodd;fill:#7E8892;}
</style>
<g>
	<linearGradient id="SVGID_1_" gradientUnits="userSpaceOnUse" x1="123.4362" y1="188.2809" x2="312.2643" y2="533.8723">
		<stop  offset="0" style="stop-color:#A7711B"/>
		<stop  offset="0.2151" style="stop-color:#C19729"/>
		<stop  offset="0.3965" style="stop-color:#FAE057"/>
		<stop  offset="0.5782" style="stop-color:#DCB83E"/>
		<stop  offset="0.7438" style="stop-color:#CDA432"/>
		<stop  offset="1" style="stop-color:#A77216"/>
	</linearGradient>
	<path class="st0" d="M219.19,194.86c-102.11,0-184.89,87.18-184.89,194.72h369.78C404.08,282.03,321.3,194.86,219.19,194.86z"/>
	<g>
		<path class="st1" d="M453.72,126.98c0.96-0.02,0.46,0.28,0.37,0.75c-19.34,24.52-41.57,46.15-68.05,63.54
			c0.64-1.12,1.74-1.77,1.88-3.38c14.16-11.73,29.2-22.48,42.49-35.34C438.66,144.55,445.78,135.75,453.72,126.98z"/>
		<path class="st1" d="M434.17,164.2c-12.64,11.05-26.92,20.45-42.86,28.2c13.17-10.14,26.34-20.28,40.98-28.95
			C433.22,163.39,433.85,163.64,434.17,164.2z"/>
		<path class="st1" d="M449.96,204.81c-15.45,8.94-33.21,14.76-57.15,13.54c0.57-1.56,2.7-1.56,3.76-2.63
			c18.95-1.98,35.81-7.01,52.64-10.9C449.46,204.81,449.71,204.81,449.96,204.81z"/>
		<path class="st2" d="M371.76,214.96c-0.9,4.49-4.88,5.24-7.52,7.14c-0.93-0.96,1.28-1.95,2.26-2.26
			C365.84,217.12,369.17,215.65,371.76,214.96z"/>
		<path class="st1" d="M438.68,218.34c-3.74,3.15-8.67,5.12-14.67,6.02C428.6,222.04,432.66,219.22,438.68,218.34z"/>
		<path class="st1" d="M422.14,220.97c0.24,0.93-1.15,0.64-1.5,0.75c-7.45,2.37-19.96,5.28-29.7,3.38c0.99-2.92,4.07-1.49,6.39-1.5
			c7.97-0.06,18.01-2.17,24.44-2.63C421.89,220.97,422.01,220.97,422.14,220.97z"/>
		<path class="st2" d="M358.97,230c0,0.5,0,1,0,1.5c-1.3,0.08-1.77,0.53-2.63-0.38C356.41,229.94,357.83,230.11,358.97,230z"/>
		<path class="st1" d="M404.09,231.5c-4.83,2.08-12.76,1.47-18.42,0.75C390.26,228.85,398.05,231.11,404.09,231.5z"/>
		<path class="st1" d="M430.03,232.25c-3.92,2.47-10.03,2.75-16.17,3.01C418.77,233.77,423.25,231.86,430.03,232.25z"/>
		<path class="st1" d="M398.83,239.4c-2.37-0.11-4.45,0.06-6.39,0.38c-0.33,1.21,0.58,1.18,1.13,1.5
			c-5.79,2.38-11.88,0.33-16.17-1.88C384.98,238.03,392.14,235.59,398.83,239.4z"/>
		<path class="st2" d="M353.71,237.52c-0.2,0.3-0.39,0.61-0.38,1.13c-1,0-2.15,0.14-2.63-0.38
			C351.96,237.51,352.65,236.91,353.71,237.52z"/>
		<path class="st1" d="M403.71,240.15c5.37,0.27,12.81,1.73,19.18,2.26c-3.61,2.05-11.49,1.77-16.54,1.13
			c2.72-1.14,4.45,0.54,6.77-0.38C411.31,240.83,405.85,242.15,403.71,240.15z"/>
		<path class="st2" d="M349.2,244.28c1.23,2.17-3.01,3.14-1.88,5.26c-2.19,1.13-4.23,1.01-6.77,0.38c0.36-1.9,3.08-1.43,4.89-1.88
			c0.34-1.21-1.23-0.53-1.5-1.13C345.48,245.83,346.35,244.07,349.2,244.28z"/>
		<path class="st1" d="M372.51,246.92c7.26,1.57,14.59-0.95,21.05,1.88C388.54,255.72,376.7,251.93,372.51,246.92z"/>
		<path class="st1" d="M414.62,253.31c-5.03,1.73-14.63,3.41-19.55,0.75c3.05-0.64,7.84,0.55,10.53-0.38
			c-1.42-2.59-6.8-1.22-8.65-3.38C402.64,250.02,408.82,252.45,414.62,253.31z"/>
		<path class="st2" d="M344.31,251.43c-0.54,2-3.49,2.18-5.64,1.5C339.71,251.59,342.08,251.58,344.31,251.43z"/>
		<path class="st2" d="M340.55,254.06c-0.32,1.88-2.97,1.45-4.51,1.13C336.46,253.74,338.78,254.17,340.55,254.06z"/>
		<path class="st1" d="M384.54,258.2c-3.39,2.32-7.1-0.49-10.15,0.75c-1.93-1.07-3.16-2.85-5.64-3.38
			C373.43,254.59,381.76,254.05,384.54,258.2z"/>
		<path class="st2" d="M339.42,256.69c-0.08,3.18-3.64,2.67-6.02,1.88C334.43,257.13,337.46,255.97,339.42,256.69z"/>
		<path class="st1" d="M393.19,259.32c5.34,0.68,8.96,3.07,13.91,4.14c-2.8,1.16-6.09-0.42-9.02-0.38c-1.76-0.03,0.44-0.86,0.38-1.5
			C397.43,260.09,393.95,261.07,393.19,259.32z"/>
		<path class="st1" d="M363.48,260.83c6.88-1.24,13.84,0.69,17.3,4.14C374.94,268.81,367.06,264.72,363.48,260.83z"/>
		<path class="st1" d="M400.71,271.36c-6.66,0.88-13.27,0.18-18.05-1.88c2.61-1.6,6.42,1.41,10.53,0.75
			c-1.06-2.2-4.1-2.42-6.77-3.01c0-0.38,0-0.75,0-1.13C390.92,266.63,396.77,269.01,400.71,271.36z"/>
		<path class="st2" d="M327.76,269.85c0.34,0.17,0.67,0.33,0.75,0.75c-1.17,2.2-4.23,2.94-6.77,1.88
			C322.66,270.51,325.88,270.85,327.76,269.85z"/>
		<path class="st1" d="M351.83,272.86c2.34-0.7,5.71,0.81,9.02,0.38c1.36,2.65,3.68,4.34,4.89,7.14c-0.25,1.38-1.39,1.87-2.26,2.63
			C358.47,280.75,354.96,277,351.83,272.86z"/>
		<path class="st1" d="M378.52,273.24c4.43,0.58,8.94,4.35,13.16,6.39c-6.58,1.81-13.28-1.07-18.8-2.63
			c2.82-1.93,8.3,3.18,11.66,0.75C383.11,275.67,380.53,274.74,378.52,273.24z"/>
		<path class="st2" d="M325.51,273.61c-0.29,3.22-3.69,3.33-4.89,5.64c2.21,0.42,4.65,0.61,5.64,2.26
			c-2.61,2.43-12.62,2.4-13.16-1.88c1.25,0,2.51,0,3.76,0c1.13-0.82,1.86-1.87,0.75-3.01c1.19,0.18,1.33-0.68,2.63-0.37
			c0.19-1.18-1.3-0.99-0.37-1.88C321.66,274.02,323.28,273.51,325.51,273.61z"/>
		<path class="st1" d="M354.46,280c2.46,1.92,4.58,4.2,6.77,6.39c-4.12,1.25-10.85,0.24-12.78-3.01c1.03-1.12,3.67,1.32,4.89,0
			c-0.18-1.07-1.43-1.08-2.26-1.5C351.15,280.2,354.89,282.19,354.46,280z"/>
		<path class="st1" d="M371.38,280.76c4.71,1.93,7.89,5.39,12.03,7.89c-4.54,1.35-12.6-0.13-15.79-2.63
			c2.64-3.18,6.13,3.26,9.78,1.5C376.37,284.28,372.38,284.02,371.38,280.76z"/>
		<path class="st1" d="M346.94,288.28c3.09,0.25,6.62,2.76,9.02,4.89c0.18,1.18-1.01,0.99-1.13,1.88c-4.36-0.03-5.94-2.84-8.27-4.89
			c1.47-0.09,1.95,0.81,3.01,1.13C350.01,288.97,347.05,290.05,346.94,288.28z"/>
		<path class="st1" d="M340.93,292.79c4.16,1.05,5.91,2.44,8.65,4.51c-2.05,4.22-8.84,0.86-10.15-2.26
			c2.47-0.24,3.76,2.38,6.02,1.13C344.55,294.43,341.41,294.93,340.93,292.79z"/>
		<path class="st1" d="M363.86,292.79c2.21,0.17,2.82,1.94,4.89,2.26c0.83-0.05,0.16-1.6,0.37-2.26c2.05,1.45,4.3,2.72,5.64,4.89
			C371.13,296.04,365.8,296.11,363.86,292.79z"/>
		<path class="st2" d="M302.58,295.42c-1.72,3.17-3.16,6.62-7.52,7.14c-0.34,1.21,1.23,0.53,1.5,1.13c-0.14,1.12-0.65,1.86-1.5,2.26
			c-0.06,0.82,1.33,0.17,1.88,0.38c-0.08,2.78-2.47,1.47-5.26,1.88c-2.35,1.84-5.95,3.8-8.65,2.26c1.32-1.32,3.2-2.76,4.51-3.01
			c0.05-0.67-0.46-0.79-0.38-1.5c1.99-0.59,4.44-0.12,6.39,0.38c-0.37-1.38-2.39-1.12-3.38-1.88c1.11-0.77,1.95-1.81,4.14-1.5
			c-0.05-1.33-2.13-0.62-2.63-1.5c0.15-0.72,1.72-0.03,1.13-1.5c2.74,0.2,6-2.55,4.89-3.76
			C298.86,295.57,300.95,294.36,302.58,295.42z"/>
		<path class="st1" d="M360.85,297.67c3.76,1.63,5.66,5.12,9.02,7.15c-4.8,0.79-8.7-2.58-12.03-4.51c1.77-1.45,3.71,2.91,6.77,2.63
			C364.58,299.97,361.41,300.12,360.85,297.67z"/>
		<path class="st1" d="M331.53,299.18c4.83-1.24,9.32,3.15,11.28,7.15c-4.67,0.88-8.26-1.82-10.53-4.51
			c1.71-0.81,3.02,1.98,5.26,1.88C336.6,301.12,333.38,300.83,331.53,299.18z"/>
		<path class="st1" d="M361.6,310.46c-3.02,0.13-7.16-1.86-9.4-3.76c0.97-1.68,2.67,1.3,4.13,1.5c0.31-0.07,0.37-0.38,0.75-0.37
			c0.19-2.3-3.3-2.57-2.63-4.14C357.49,303.84,359.15,308.5,361.6,310.46z"/>
		<path class="st1" d="M327.39,305.57c6.04-0.03,7.49,4.54,9.4,8.65c-5.04,0.4-7.31-1.96-9.02-4.89c1.94,0.57,2.89,2.12,4.89,2.63
			C332.35,308.38,328.7,308.14,327.39,305.57z"/>
		<path class="st2" d="M189.78,315.72c1.75,0.51,3.01,1.5,4.14,2.63c4.41-3.11,12.03,0.54,16.92-1.13c-0.78,3.11-5.09,2.68-7.9,3.76
			c-1.36,0.4-0.63,2.88-1.88,3.39c-3.1,0.96-4.17-4.54-7.9-3.01C191.91,319.79,188.45,318.64,189.78,315.72z"/>
		<path class="st1" d="M343.56,317.23c3.14,2.25,5.66,5.12,7.52,8.65c-3.41-0.73-6.35-1.92-8.65-3.76c1.42-0.93,3.7,2.18,5.26,1.13
			C347.27,320.4,342.52,320.33,343.56,317.23z"/>
		<path class="st1" d="M326.64,325.87c-3.43,1.92-8.05-0.8-10.15-2.63c2.17-0.66,4.59,1.67,7.52,1.5c-0.37-2.39-2.94-2.58-4.51-3.76
			C322.69,318.93,326.79,322.11,326.64,325.87z"/>
		<path class="st1" d="M338.67,325.12c4.35,2.55,6.26,7.53,10.53,10.15c-5.08-1.06-10.71-4.83-14.29-8.65
			c2.78,0.77,4.59,4.37,7.52,3.76C342.01,327.8,338.69,328.11,338.67,325.12z"/>
		<path class="st1" d="M177.75,326.63C174.12,328.93,172.09,324.89,177.75,326.63L177.75,326.63z"/>
		<path class="st1" d="M311.97,327.38c5.12-0.1,9.47,3.81,12.03,7.52C318.5,333.89,316.68,329.19,311.97,327.38z"/>
		<path class="st1" d="M186.02,330.01c1.14-0.51,3.71,0.79,4.51,1.88C187.95,332.35,187.52,330.64,186.02,330.01z"/>
		<path class="st1" d="M333.03,331.14c3.95,2.69,7.13,6.15,9.78,10.15c-6.62-1.15-10.91-4.63-15.04-8.27
			c3.24,0.28,5.76,4.51,9.78,5.26C337.53,334.56,332.02,334.68,333.03,331.14z"/>
		<path class="st2" d="M202.19,334.15c-0.12,0.51-0.94,0.31-1.5,0.37c0.33,0.92,2.1,0.41,1.88,1.88c-2.17-1.47-5.68-1.58-7.14-3.76
			C197.75,331.83,200.3,333.34,202.19,334.15z"/>
		<path class="st2" d="M204.07,335.65c2.46,0.55,4.75,1.27,6.02,3.01C207.96,337.77,204.91,337.81,204.07,335.65z"/>
		<path class="st1" d="M308.59,340.91c-1.67-1.64-5.84-2.61-6.02-4.51C305.15,335.9,307.6,338.59,308.59,340.91z"/>
		<path class="st1" d="M326.64,337.53c4.68,3.34,7.84,8.2,11.28,12.78c-6.6-1.67-9.46-7.08-14.29-10.53
			c3.25-0.11,4.8,4.73,8.27,5.64C332.32,342.34,326.72,340.12,326.64,337.53z"/>
		<path class="st2" d="M213.84,341.29c0.85-0.75-1.86-1.12-1.13-3.01c2.53,0.86,4.15,2.62,6.39,3.76c-0.97,1.85-2.65-0.76-4.14-0.75
			c-0.93,0.96,2.19,1.05,1.88,2.63c-2.12-0.77-4.01-1.76-4.89-3.76C212.92,340.2,213.28,340.85,213.84,341.29z"/>
		<path class="st2" d="M210.83,341.29c1.95,0.05,2.23,1.78,3.76,2.25C213.79,344.97,211.28,342.61,210.83,341.29z"/>
		<path class="st2" d="M219.86,342.42c0.97,0.78,2.6,0.91,3.01,2.25C221.11,344.67,219.81,344.22,219.86,342.42z"/>
		<path class="st2" d="M226.25,344.67c-1.39,0.01-2.59-0.17-2.63-1.5C224.3,342.67,226.19,343.38,226.25,344.67z"/>
		<path class="st2" d="M296.18,343.17c-0.27,0.86-0.33,1.92-0.75,2.63c-0.94-0.68-2.58-0.68-2.63-2.26
			C293.42,342.92,295.01,343.24,296.18,343.17z"/>
		<path class="st2" d="M222.87,347.68c-1.86-1.53-6.11-0.66-6.77-3.38C218.71,343.67,222.98,345.66,222.87,347.68z"/>
		<path class="st2" d="M227.75,344.67c1.99,0.14,2.94,1.32,4.51,1.88C231.36,347.99,228,346.3,227.75,344.67z"/>
		<path class="st2" d="M215.35,346.18c1.58,0.43,2.44,1.57,3.76,2.26C217.5,349.67,214.61,347.32,215.35,346.18z"/>
		<path class="st2" d="M226.63,347.3c-0.54,1.64-2.33,0.1-3.01-0.38C224.11,345.33,225.51,347.26,226.63,347.3z"/>
		<path class="st2" d="M232.27,350.69c0.5-0.25,0.7-0.81,0.75-1.5c1.17,0.46,2.43,0.83,2.63,2.26c-1.31-0.32-1.3,0.59-0.38,0.75
			c-3.74,0.73-6.01-3.26-8.27-5.26C228.81,346.71,231.1,349.04,232.27,350.69z"/>
		<path class="st2" d="M209.71,347.3c4.04,2.8,6.9,2.96,10.15,7.14c-2.27-0.49-3.58-1.94-4.89-3.39
			C212.15,351.96,210.75,349.31,209.71,347.3z"/>
		<path class="st2" d="M294.3,347.3c1.74-0.12,3.25,0,4.13,0.75c-0.33,1.32,0.07,1.24-0.75,2.26
			C296.51,349.36,294.19,349.54,294.3,347.3z"/>
		<path class="st2" d="M302.58,347.3c1.1,1.15,0.52,2.71-0.38,3.76c-1.35-0.65-2.2-1.81-3.38-2.63
			C299.38,347.37,301.03,347.39,302.58,347.3z"/>
		<path class="st2" d="M219.86,351.44c-1.38,1.71-3.54-1.51-4.89-2.26C216.17,347.65,218.13,351.07,219.86,351.44z"/>
		<path class="st2" d="M223.24,348.43c2.03,0.73,4.14,1.38,5.26,3.01C226.13,351.06,223.86,350.57,223.24,348.43z"/>
		<path class="st2" d="M222.11,349.56c1.58,0.43,2.23,1.78,3.76,2.26C224.89,353.4,220.88,351.31,222.11,349.56z"/>
		<path class="st2" d="M244.67,352.19c-1.14,0.58-3.4-0.47-4.51-1.13C240.89,349.62,244.34,350.86,244.67,352.19z"/>
		<path class="st2" d="M296.18,353.7c-2.1-0.41-3.42-1.59-4.89-2.63C293.07,348.94,297.44,351.54,296.18,353.7z"/>
		<path class="st2" d="M229.26,351.44c1.3,0.83,3.32,0.94,3.76,2.63C231.23,353.72,229.34,353.49,229.26,351.44z"/>
		<path class="st2" d="M302.58,353.32c0.18,2.56-5.15,1.69-5.64,0.38C298.07,351.54,300.24,353.58,302.58,353.32z"/>
		<path class="st2" d="M230.01,355.58c-1.74-0.14-2.81-0.95-3.76-1.88C227.25,351.98,229.74,354.17,230.01,355.58z"/>
		<path class="st2" d="M231.89,354.45c-0.34,1.26-0.7,0.19-1.88,0.37c0-0.37,0-0.75,0-1.13
			C231.17,353.42,230.73,354.73,231.89,354.45z"/>
		<path class="st2" d="M225.87,354.82c1.26,0.25,1.84,1.17,3.01,1.5C227.71,357.57,224.8,355.87,225.87,354.82z"/>
		<path class="st1" d="M245.05,354.82c-0.15,0.91,0.69,0.82,0.38,1.88c-0.79-0.33-1.11-1.15-2.26-1.13
			C243.49,355.02,244.12,354.77,245.05,354.82z"/>
		<path class="st1" d="M316.49,354.82c0.44,0.69,0.98,1.27,1.5,1.88c-2.1,0.63-4.26,0.23-5.64-0.75
			C313.46,353.97,314.65,356.29,316.49,354.82z"/>
		<path class="st2" d="M287.16,355.58c0.45,1.3,1.61,1.9,1.5,3.76c-0.82,0.2-2.43,0.91-2.63-0.37c-0.38-1.13,0.84-0.67,1.5-0.75
			C287.28,357.37,286.4,356.32,287.16,355.58z"/>
		<path class="st2" d="M260.46,356.33c1.69,0.19,3.51,0.25,3.76,1.88c-1.28-0.1-3.05,0.29-3.76-0.38
			C260.46,357.33,260.46,356.83,260.46,356.33z"/>
		<path class="st2" d="M256.33,357.08c1.09,0.17,1.71,0.79,1.88,1.88c-0.93,0.05-1.81,0.06-2.26-0.38
			C255.79,357.8,256.21,357.59,256.33,357.08z"/>
		<path class="st2" d="M291.3,357.08c-0.11,1.51-1.6,1.67-2.26,0.75C289.08,356.87,290.3,357.09,291.3,357.08z"/>
		<path class="st2" d="M269.49,360.46c-1.36,0.94-2.73,0.68-3.01-1.13C267.2,358.24,269.15,359.08,269.49,360.46z"/>
		<path class="st2" d="M276.63,360.46c-1.78-0.18-0.41,0.47-1.13,1.13c-2.05-0.08-3.89-0.37-4.51-1.88
			C273.92,360.91,275.32,357.32,276.63,360.46z"/>
		<path class="st2" d="M311.22,359.34c0.3,1.3-0.42,1.59-0.75,2.25c-0.75-0.62-1.75-1.01-1.88-2.25
			C310.15,359.44,310.05,358.84,311.22,359.34z"/>
		<path class="st2" d="M169.85,360.46c0.94,0.06,1.18-0.58,1.5-1.13c0.56,0.44,1.54,0.47,1.88,1.13c0.87,0.11,0.42-1.09,1.13-1.13
			c2.32,0.06,2.69,2.07,4.14,3.01c-1.71,1.22-5.63-0.25-7.14,2.26c-5.27-2.7-12.16,2.66-15.04-3.01c1.63,0.46,1.88,0.32,2.26-1.13
			c4.59,1.6,5.87-0.91,10.15,1.5c0.32-1.5-2.32-1.02-1.13-2.26C168.3,359,169.55,359.67,169.85,360.46z"/>
		<path class="st2" d="M260.46,359.34c1.14,0.24,2.17,0.59,2.26,1.88c-1.18-0.18-0.85,1.16-2.26,0.75
			C260.28,361.11,259.72,360.05,260.46,359.34z"/>
		<path class="st2" d="M282.65,360.84c-0.92,0.73-3.15,0.36-4.13,0c0-0.38,0-0.75,0-1.13C279.72,358.97,282.39,359.44,282.65,360.84
			z"/>
		<path class="st2" d="M254.07,359.71c0.63,0,1.25,0,1.88,0C256.25,361.3,253.94,361,254.07,359.71z"/>
		<path class="st2" d="M285.28,359.71c0.58,0.54,1.46,0.79,2.26,1.13c-0.01,1.24-1.07,1.44-2.26,1.5
			C284.39,361.62,284.39,360.44,285.28,359.71z"/>
		<path class="st2" d="M194.67,360.46c2.64-0.25,5.89,2.13,7.9,3.76c-4.05-0.66-11.01,2.07-12.03-3.01
			c0.99-0.72,2.77,0.29,3.76,0.75C194.9,362.13,195.55,360.57,194.67,360.46z"/>
		<path class="st2" d="M302.2,360.84c-0.2,0.3-0.39,0.61-0.38,1.13c-1.66,0.03-3.33,0.07-3.38-1.5
			C299.58,359.95,301.54,359.86,302.2,360.84z"/>
		<path class="st2" d="M133.38,360.46c3.61,2.72,11.43-0.47,13.54,4.14C142.59,365.7,134.92,365.29,133.38,360.46z"/>
		<path class="st1" d="M316.11,360.46c0.22,1.6-0.37,2.39-1.5,2.63C314.22,362.52,314.47,360.17,316.11,360.46z"/>
		<path class="st2" d="M289.79,360.84c0.63,0,1.25,0,1.88,0C292.19,362.21,289.14,362.64,289.79,360.84z"/>
		<path class="st2" d="M293.55,361.22c1.35-0.22,1.82,0.44,2.63,0.75C295.9,363.58,293.24,363.23,293.55,361.22z"/>
		<path class="st2" d="M128.87,361.59c2.38,1.01,5.43,1.34,6.77,3.39c-6.14-1.47-13.98,2.83-17.3-1.88c2.73,0.96,4.1,0.11,6.39,0.38
			c1.13-0.25-0.36-0.8,0-1.5c2.03-0.41,2.24,1.02,4.14,0.75C128.87,362.34,128.87,361.97,128.87,361.59z"/>
		<path class="st2" d="M146.92,361.97c0.76-0.49,3.57,0.17,3.76,1.5C149.06,363.34,148.02,362.62,146.92,361.97z"/>
		<path class="st2" d="M265.35,361.59c1.47,0.03,2.55,0.46,2.26,2.26c-1.06-0.31-0.97,0.53-1.88,0.38
			C265.38,363.48,264.51,362.43,265.35,361.59z"/>
		<path class="st2" d="M270.99,361.59c1.14,0.49,3.01,0.24,3.76,1.13c0.09,1.34-2.12,0.38-1.88,1.88c-1.5,0.12-1.89-0.87-3.38-0.75
			C269.32,361.75,271.57,364.25,270.99,361.59z"/>
		<path class="st2" d="M282.65,363.85c-1.55-0.08-3.56,0.31-3.76-1.13C280.13,362.2,282.54,362.16,282.65,363.85z"/>
		<path class="st2" d="M260.09,362.72c1.3,0.07,2.44,0.31,2.26,1.88C261.04,364.53,259.9,364.29,260.09,362.72z"/>
		<path class="st1" d="M227,363.09c0.86,0.52,2.35,0.41,2.26,1.88C227.84,365.02,227.24,364.24,227,363.09z"/>
		<path class="st2" d="M257.83,364.98c-1.39,0.01-2.18-0.58-3.01-1.13C255.34,362.32,258.15,363.35,257.83,364.98z"/>
		<path class="st2" d="M236.4,365.35c-1.37,2.09,3.52,1.84,2.26,3.76c-1.39-0.23-2.2-1.06-3.38-1.5c-0.16-0.79,0.26-1,0.38-1.5
			c-1.29-0.47-2.88-0.63-3.38-1.88C233.32,362.37,235.21,364.97,236.4,365.35z"/>
		<path class="st2" d="M289.04,364.98c-0.42,1.52-2.56,0.33-3.38,0c0-0.38,0-0.75,0-1.13C286.71,363.07,287.94,364.63,289.04,364.98
			z"/>
		<path class="st2" d="M275.51,364.22c0.67-0.05,0.79,0.46,1.5,0.38c-1.59,1.99,0.82,1.14,1.13,3.01c-1.39,0.01-2.18-0.58-3.01-1.13
			C275.12,365.59,275.78,365.37,275.51,364.22z"/>
		<path class="st2" d="M277.76,364.22c1.28-0.16,2.14,0.11,1.88,1.5C278.36,365.88,277.5,365.61,277.76,364.22z"/>
		<path class="st2" d="M301.07,364.6c-0.38,0.49-0.37,1.39-0.75,1.88c-1.76,0.38-2.14-0.62-3.01-1.13
			C297.72,364.31,300.03,363.84,301.07,364.6z"/>
		<path class="st2" d="M249.18,366.86c-1.54,0.03-2.96-0.05-3.01-1.5C247.42,364.38,249.13,365.46,249.18,366.86z"/>
		<path class="st2" d="M252.57,364.98c0.67,0.34,1.1,0.91,1.88,1.13c-0.25,1.37-2.19,0.61-2.63,0
			C251.95,365.61,252.48,365.51,252.57,364.98z"/>
		<path class="st2" d="M281.14,364.98c1.94,0.19,4.08,0.18,4.51,1.88c-1.88,0.25-2.91-0.35-4.51-0.38
			C281.14,365.98,281.14,365.48,281.14,364.98z"/>
		<path class="st2" d="M239.03,365.35c1.4,0.23,2.33,0.93,3.01,1.88c-0.71,1.54-2.3-0.9-3.38-0.38
			C238.5,366.07,238.91,365.86,239.03,365.35z"/>
		<path class="st2" d="M254.82,365.35c1.66-0.03,3.2,0.06,3.01,1.88C256.67,366.76,254.88,366.92,254.82,365.35z"/>
		<path class="st2" d="M265.35,368.74c-2.41-0.16-6.37,1.12-7.14-1.5C260.79,368.87,265.1,362.6,265.35,368.74z"/>
		<path class="st2" d="M268.74,365.73c1.04,0.72,2.66,0.85,3.01,2.26c-1,0.81-2.39-0.4-3.38-0.75
			C268.2,366.45,268.62,366.24,268.74,365.73z"/>
		<path class="st2" d="M249.94,370.99c-0.09,1.27,2.25,1.09,1.13,2.26c-5.76-0.21-9.8-2.53-8.27-7.15c1.18-0.18,0.99,1.01,1.88,1.13
			c0.06,0.93-0.59,1.16-0.75,1.88c0.8,1.21,2.61,1.4,4.14,1.88c0.63-0.54-0.48-2.04,0.75-2.63c1.39,1.49,3.72,2.04,4.51,4.14
			C251.52,373.93,251.75,370.73,249.94,370.99z"/>
		<path class="st2" d="M282.27,367.61c-0.8,2.15-3.39,0.36-3.76-1.13C279.69,365.67,281.12,367.2,282.27,367.61z"/>
		<path class="st2" d="M245.43,366.48c1.03,0.35,1.57,1.18,1.88,2.26C245.55,369.14,244.48,367.61,245.43,366.48z"/>
		<path class="st2" d="M252.57,368.74c-1.5,0-2.81-0.2-2.63-1.88C251.02,366.05,252.47,367.38,252.57,368.74z"/>
		<path class="st2" d="M295.81,366.48c0.87-0.12,1.44,0.06,1.88,0.38c-0.16,0.33-0.33,0.67-0.75,0.75c0.25,0.38,0.86,0.39,0.75,1.13
			C295.97,369.07,296.17,367.5,295.81,366.48z"/>
		<path class="st2" d="M272.87,367.23c2.5-0.12,4.07,0.69,4.89,2.25c-1.63,0.51-2.4-0.67-4.51,0
			C273.26,368.6,272.6,368.38,272.87,367.23z"/>
		<path class="st1" d="M225.12,367.98c1.73-0.35,1.55,1.2,2.26,1.88C226.65,370.69,225.27,368.99,225.12,367.98z"/>
		<path class="st1" d="M310.1,367.98c1.5-0.12,1.02,1.74,2.26,1.88c-0.6,0.78-2.63,0.13-3.39,0.75
			C308.57,368.97,310.24,369.38,310.1,367.98z"/>
		<path class="st2" d="M257.08,368.74c0.99,0.39,2.45,0.3,2.26,1.88C258.03,370.54,256.89,370.3,257.08,368.74z"/>
		<path class="st2" d="M285.66,368.74c2.1-0.09,4.02-0.01,3.76,2.26C287.99,371.75,285.71,370.56,285.66,368.74z"/>
		<path class="st2" d="M254.07,369.11c2.6,0.29,3.15,2.61,4.89,3.76c1.19-1.62,4.55-0.81,5.26,1.13c-4.2,0.23-6.98,2.08-10.15-0.38
			C255.3,371.48,252.29,370.6,254.07,369.11z M257.46,372.5c-0.44-0.32-1.01-0.5-1.88-0.38C255.21,373.5,257.42,373.61,257.46,372.5
			z"/>
		<path class="st2" d="M269.11,372.87c-1.19,1.01-2.75-0.04-2.63-1.5c-0.91-0.15-0.82,0.69-1.88,0.38
			c-0.22-0.79-0.93-1.07-0.75-2.26C266.1,370.11,268.13,370.98,269.11,372.87z"/>
		<path class="st2" d="M269.11,372.12c0.1-1.1-0.85-1.16-0.75-2.26c1.37-0.7,2.58,0.22,3.76,0.75
			C271.7,371.7,270.51,372.01,269.11,372.12z"/>
		<path class="st2" d="M238.66,369.86c1.81,0.2,2.93,1.08,4.51,1.5c-0.2,1.29-1.81,0.58-2.63,0.38c-1.24,0.56,1.26,0.44,0.75,1.5
			c-0.86,0.82-3.07-1.03-4.14,0c0.19,1.31,2.26,0.75,1.88,2.63c-1.21,0.08-1.59-0.67-3.01-0.38c-0.44-1.56-1.38-2.63-1.88-4.14
			c1.53-0.99,2.35,0.97,4.14,0C238.12,370.58,238.54,370.37,238.66,369.86z"/>
		<path class="st2" d="M281.9,369.86c1.51-0.13,2.75,0.01,3.01,1.13c0.28,1.28-1.39,0.62-1.5,1.5
			C282.5,372.02,281.87,371.27,281.9,369.86z"/>
		<path class="st2" d="M230.76,370.24c1.36,0.09,3.07,1.16,1.88,2.63C231.54,372.47,230.67,371.83,230.76,370.24z"/>
		<path class="st2" d="M277.76,370.24c1.39,0.24,2.87,0.38,3.76,1.13C281.42,373.47,276.72,372.76,277.76,370.24z"/>
		<path class="st2" d="M294.3,371.74c0.1,0.86-0.09,1.41-0.75,1.5c0.12,0.51,0.94,0.31,1.5,0.37c0.14,1.65-1.08,1.93-1.13,3.38
			c-2.49-0.15-3.54-1.73-5.64-2.26c-0.48-2.36,2.69-1.07,1.88-3.76C292.5,371.06,293.26,370.38,294.3,371.74z"/>
		<path class="st1" d="M228.51,371.37c1.83,2.81,4.04,5.23,7.14,6.77c-1.29,1.15-1.98-1.51-4.14-0.75c-0.35-2.03-1.8-2.96-3.38-3.76
			C228.12,372.74,228.78,372.52,228.51,371.37z"/>
		<path class="st1" d="M313.1,371.74c1.19,0.06,1.65,0.85,3.01,0.75c-0.05,1.08-0.47,1.79-1.88,1.5
			C314.74,372.36,312.77,373.2,313.1,371.74z"/>
		<path class="st1" d="M255.58,372.12c0.87-0.12,1.44,0.06,1.88,0.38C257.42,373.61,255.21,373.5,255.58,372.12z"/>
		<path class="st2" d="M243.92,372.87c1.78,0.47,2.95,1.56,4.51,2.26c-0.9,1.78-2.88-0.53-4.51-0.37
			C243.88,373.82,243.22,373.59,243.92,372.87z"/>
		<path class="st2" d="M252.95,374.75c-0.77,1.65-3.46,0.06-4.51-0.38C249.19,372.19,251.51,374.34,252.95,374.75z"/>
		<path class="st2" d="M286.03,374c-0.36,0.77-0.77,1.49-1.13,2.26c-2.46-0.42-2.76-1.33-5.64-0.75c-0.16-0.72-0.81-0.94-0.75-1.88
			C281.19,374.86,284.15,372.25,286.03,374z"/>
		<path class="st2" d="M240.91,374.75c2.08,1.05,4.48,1.79,6.39,3.01C244.96,379.59,241.36,377.78,240.91,374.75z"/>
		<path class="st2" d="M260.84,375.13c2.13,0.88,4.59,1.43,6.77,2.26C265.76,379.02,260.23,378.39,260.84,375.13z"/>
		<path class="st2" d="M290.17,376.63c0.06,1.36-1.78,2,0.75,1.88c0.04,1.16-0.46,1.8-0.75,2.63c-1.16-0.47-2.95-0.31-3.01-1.88
			c1.06,0.31,0.97-0.53,1.88-0.38c-0.62-0.76-2.47-0.28-2.63-1.5c-1,0.38-1.24,1.52-1.88,2.26c-1.16-0.47-2.81-0.44-2.63-2.26
			C284.96,377.01,287.2,376.07,290.17,376.63z"/>
		<path class="st1" d="M310.47,378.89c-0.62,0.48-2.04,0.97-2.63,0.38C307.95,377.24,309.86,377.73,310.47,378.89z"/>
		<path class="st1" d="M185.64,385.28c-3.15-0.11-3.42-3.1-5.26-4.51C182.11,379.47,184.89,383.15,185.64,385.28z"/>
		<path class="st2" d="M287.16,380.77c0.17,2.75-3.49,1.89-4.89,1.13C282.29,379.85,285.72,380.27,287.16,380.77z"/>
		<path class="st1" d="M235.65,381.14c0.69-0.78,3.16-0.17,3.01,1.13C237.33,382.22,236.98,381.2,235.65,381.14z"/>
		<path class="st1" d="M149.17,381.14c1.29,0.34,1.17,2.09,3.01,1.88c-1.88,2.2,0.98,2.63,0.38,5.64c-3.43,0.55-3.16-2.6-4.51-4.13
			C148.1,383.08,149.32,382.79,149.17,381.14z"/>
		<path class="st1" d="M160.83,381.89c-0.98,2.25,0.45,3.29,0.38,5.64c-1.87,0.37-2.56-0.45-3.01-1.5
			c-0.92,0.04-0.08,1.24,0.38,1.13c-0.34,1.02-1.32-0.38-1.88-0.38c0.12-1.37-0.06-2.45-0.38-3.38
			C157.48,382.55,159.13,382.2,160.83,381.89z"/>
		<path class="st1" d="M378.52,384.9c-9.27,2.6-17.91-1.16-27.45-1.5c-0.06-0.44,0.08-0.67,0.38-0.75
			C359.69,382.58,370.88,382.61,378.52,384.9z"/>
		<path class="st1" d="M179.63,386.41c-3.08,0.94-4.71-1.12-6.39-2.63C175.08,381.31,179.41,383.75,179.63,386.41z"/>
		<path class="st1" d="M255.95,384.15c0.81,0.45,2.1,0.41,2.63,1.13c0,0.88,0,1.75,0,2.63c-1.16-0.35-0.45-2.56-2.63-1.88
			C255.95,385.4,255.95,384.78,255.95,384.15z"/>
		<path class="st1" d="M202.19,385.65c2.12,1.39,4.19,2.83,5.26,5.26C205.53,389.53,201.5,388.41,202.19,385.65z"/>
		<path class="st1" d="M298.82,387.16c-0.42,1.37-2.86,1.3-2.26,2.63c-0.38,0-0.75,0-1.13,0c0.43-2.06-0.5-2.77-1.88-3.01
			C295.1,385.16,297.04,386.86,298.82,387.16z"/>
		<path class="st1" d="M305.58,387.16c-0.87,0.12-1.44-0.06-1.88-0.38C303.77,385.63,305.73,385.99,305.58,387.16z"/>
		<path class="st1" d="M384.54,391.67c-7.32,0.99-19.17,3.85-24.06-0.37c2.69,0.19,4.66,1.1,7.52,1.13
			c-4.33-2.94-13.06-3.48-16.92-5.64C361.31,388.67,372.8,390.34,384.54,391.67z"/>
		<path class="st1" d="M190.99,387.57c2.53-1.46,5.67,2.9,5.56,4.1c-4.52,0.67-6.05-0.75-9.02-2.26"/>
		<path class="st1" d="M181.51,388.66c2.65,1.61,3.8,4.72,6.39,6.39c-4.51,1.3-9.19-1.54-11.28-4.89c2.55,0.22,4.86,3.91,8.27,4.51
			c-0.82-2.06-2.71-3.06-4.14-4.51C180.29,388.95,181.97,389.88,181.51,388.66z"/>
		<path class="st1" d="M273.25,390.17c-1.64,0.5-4.86-0.65-7.14-0.75C268.85,388.17,271.09,389.14,273.25,390.17z"/>
		<path class="st1" d="M278.14,388.66c1.81-0.06,1.89,1.62,4.14,1.13c-0.6,1.16-2.19,1.32-3.01,2.25
			C279.05,390.69,278.73,390.27,278.14,388.66z"/>
		<path class="st1" d="M170.6,389.41c0.25,0,0.5,0,0.75,0c1.23,1.28,2.33,2.68,3.09,4.42c0.41,0.94,0.1,2.08-0.8,2.57
			c-0.01,0-0.01,0.01-0.02,0.01c-0.35,0.18-0.78,0.09-1.03-0.21c-1.67-2.01-4.8-2.56-5.75-5.29"/>
		<path class="st1" d="M145.41,390.92c1.98,0.81,1.06,6,1.88,9.02C145.57,397.35,143.77,394.1,145.41,390.92z"/>
		<path class="st1" d="M153.31,390.92c1.68,1.71,1.76,5.01,3.01,7.15c-3.22-0.67-4.3-3.47-5.64-6.02
			C151.68,391.79,152.59,391.45,153.31,390.92z"/>
		<path class="st1" d="M160.83,391.3c2.16-0.58,5.08,4.23,3.76,6.02C162.82,395.82,162.35,393.03,160.83,391.3z"/>
		<path class="st1" d="M287.54,391.67c0.47-0.68,3.48-0.75,3.01,0.75C289.19,392.52,288.73,391.73,287.54,391.67z"/>
		<path class="st1" d="M160.08,391.67c-0.29,1.67,0.5,2.26,0.38,3.76c-1.41-0.34-1.32-2.18-2.26-3.01
			C158.25,391.6,159.14,391.61,160.08,391.67z"/>
		<path class="st1" d="M376.64,400.32c-7.08,0.08-15.89-0.44-22.56-2.63c1.73-1.02,4.72,0.99,7.9,0.75
			c-3.72-2.67-9.54-3.25-13.91-5.26c5.02-1.33,10.12,3.63,16.54,3.38C368.15,398.29,372.66,399.04,376.64,400.32z"/>
		<path class="st1" d="M140.15,393.55c0.75,0,1.5,0,2.26,0c0.18,1.19-0.68,1.33-0.38,2.63
			C141.08,395.63,140.48,394.73,140.15,393.55z"/>
		<path class="st1" d="M352.21,400.69c6.84,3.32,16.13,4.17,22.18,8.27C365.85,407.35,356.89,406.16,352.21,400.69z"/>
		<path class="st1" d="M350.7,406.33c7.91,3.87,16.45,7.11,24.82,10.53C364.5,417.6,356.87,411.7,350.7,406.33z"/>
		<path class="st1" d="M369.5,422.13c-9.52-0.63-15.92-7.64-24.44-10.53c0.9-2.04-3.61-2.15-2.63-4.14
			C350.93,411.37,360.33,417.63,369.5,422.13z"/>
		<path class="st1" d="M343.56,413.85c5,1.53,10.39,5.9,13.54,10.53C352.86,422.1,348.48,416.7,343.56,413.85z"/>
		<path class="st1" d="M342.43,417.24c3.86,2.4,6.78,5.75,10.15,8.65C348,425.7,345.26,420.43,342.43,417.24z"/>
		<path class="st1" d="M326.64,420.62c3.33,1.8,3.94,6.34,6.02,9.4C330.49,428.55,327.91,424.23,326.64,420.62z"/>
		<path class="st1" d="M334.91,421c3.8,2.72,6.18,6.85,8.27,11.28C340,428.94,337.35,425.07,334.91,421z"/>
		<path class="st1" d="M334.53,424.76c2.16,0.72,2.59,3.17,3.38,5.26C336.2,428.86,335.42,426.75,334.53,424.76z"/>
		<path class="st1" d="M327.01,429.64c1.73-1.34,1.54,2.46,2.63,3.01C328.35,433.55,328.23,430.07,327.01,429.64z"/>
		<path d="M77.8,421.04c-0.18,0.42,0.23,0.86,0.66,0.69c4.13-1.72,7.72-5.75,11.47-8.88l-7.25,0.94
			C80.81,415.97,79.04,418.24,77.8,421.04z"/>
		<path d="M87.51,418.74c-1.36,1.03-1.98,1.7-3.38,3.76c3.98-0.31,7.29-3.11,10.53-5.26c2.92-1.94,5.54-4.53,8.69-6.12l-12.08,1.56
			C90.05,414.74,88.52,416.48,87.51,418.74z"/>
		<path d="M89.92,412.85l1.33-0.17c0.27-0.47,0.54-0.95,0.77-1.46C91.32,411.72,90.62,412.27,89.92,412.85z"/>
		<path class="st1" d="M445.07,188.26c-15.84,5.85-32.23,11.13-50.01,15.04c2.4-3.48,7.22-4.32,10.9-5.64
			C417.19,193.63,428.64,186.2,445.07,188.26z"/>
		<path class="st1" d="M347.69,314.97c1.02-0.54,3.63,2.25,5.26,1.13c-0.26-2.38-3.32-1.95-3.39-4.51c2.85,2.04,5.14,4.64,6.77,7.89
			C353.09,318.35,350.01,317.04,347.69,314.97z"/>
		<path class="st1" d="M324.38,316.47c1.28-0.51,3.04,1.71,5.26,1.5c-0.13-2.63-2.94-2.58-4.51-3.76c3.08-1.59,6.12,3.07,7.89,5.26
			C328.87,321.11,326.75,317.85,324.38,316.47z"/>
		<path class="st1" d="M306.34,334.52c1.43-0.83,5.31,3.1,7.52,2.63c-1.2-2.31-3.67-3.35-5.26-5.26c3.22-0.46,5.35,3.42,7.89,4.89
			C313.43,340.35,309,335.92,306.34,334.52z"/>
		<path class="st1" d="M195.42,335.65c2.85,0.53,7.77,2.26,10.9,3.76c0.32,0.97-2.53-1.36-3.38,0.37c-0.91-1.09-2.6-1.41-3.38-2.63
			c-0.64-0.14-0.71,0.29-0.75,0.75C197.17,337.66,197,335.95,195.42,335.65z"/>
		<path class="st1" d="M312.73,341.29c2.22,1.67,4.53,3.24,6.39,5.26C317.22,346.07,313.92,343.73,312.73,341.29z"/>
		<path class="st1" d="M323.25,345.8c-0.58-1.68-2.04-2.47-3.01-3.76c4.32,1.57,7.45,7.59,10.9,11.28
			c-3.15-1.74-7.75-5.28-10.9-8.27C320.76,344.31,321.63,346.4,323.25,345.8z"/>
		<path class="st2" d="M289.04,364.22c0.06-0.44-0.08-0.67-0.38-0.75c0.36-1.48,2.19-0.28,3.01,0c-0.13,0.49-0.66,0.59-0.75,1.13
			c1.31-0.3,1.45,0.56,2.63,0.38c0.06,0.93-0.59,1.16-0.75,1.88c-0.72-0.16-0.94-0.81-1.88-0.75
			C291.19,364.58,290.56,363.96,289.04,364.22z"/>
		<path class="st1" d="M105.93,377.01c0.2,1.83-1.6,1.66-1.5,3.38c-0.7-0.74-1.38-0.12-2.26,0c-10.19,5.1-19.39,11.19-31.21,14.66
			c4.36-3.02,11.34-4.87,16.92-8.27c1.91-1.17,3.97-2.09,6.02-3.38C97.43,381.17,100.5,377.79,105.93,377.01z"/>
		<path class="st1" d="M192.04,381.52c1.37-0.73,2.11,2.39,3.38,3.01C194.46,384.84,193.01,382.43,192.04,381.52z"/>
		<path class="st1" d="M103.3,381.52c-1.66,3.73-5.75,8.29-9.02,11.65C95.42,388.92,99.67,384.53,103.3,381.52z"/>
		<path class="st1" d="M214.97,381.52c3.14,1.5,5.98,3.29,8.65,5.26C221.27,386.22,215.45,383.96,214.97,381.52z"/>
		<path class="st1" d="M208.2,382.65c2.8,0.21,2.96,3.05,4.89,4.14c-2.34,1.29-5.64-1.17-7.14-3.01"/>
		<path class="st1" d="M168.72,386.78c-2.51,0.25-3.85-0.67-4.14-2.63C167.33,382.72,169.19,384.54,168.72,386.78z"/>
		<path class="st1" d="M319.12,420.62c2.36,2.28,5.46,9.08,6.02,13.16C322.08,430.44,320.89,425.24,319.12,420.62z"/>
		<path class="st1" d="M441.69,176.98c-14.38,7.81-29.84,14.53-47,19.55c-0.64-1.95,2.7-2.53,4.89-3.76
			c9.29-5.21,20.99-12.44,33.09-15.79C435.52,176.19,438.53,176.43,441.69,176.98z"/>
		<path class="st1" d="M443.95,197.66c-15.02,7.41-31.58,13.28-53.02,14.29C405.83,204.42,424.52,200.67,443.95,197.66z"/>
		<path class="st1" d="M355.59,266.84c5.45,0.72,17.1-1.83,16.17,5.64C365.57,274.22,359.76,269.57,355.59,266.84z"/>
		<path class="st3" d="M256.33,345.05c-1.03-2.48-3.29-3.73-4.51-6.02c1.1-0.41,2.17-0.84,3.76-0.75c-0.38-3.13-4.27-2.74-4.14-6.39
			c1.67-0.3-1.38-1.22,0.12-1.35c-0.35-1.53,1.36,0.24,1.01-1.29c-0.45-2.08-2.18-2.08-1.77-3.3c-3.43-1.03-5.69-0.28-5.37-3.85
			c-5.1-3.42-14.13-2.91-20.68-4.89c-4.09,1.27-12.42,1.11-14.29-2.26c-8.36-1.95-24.07-5.68-28.57,2.26
			c-10.68-5.18-19.1,5.21-13.54,14.66c-0.43-12.59,15.32-6.7,20.68-3.76c0.06-1.94-2.21-1.55-2.26-3.38
			c1.78-0.28,1.83,1.17,3.38,1.13c-0.29-1.85-2.25-2.01-3.01-3.38c-0.44,0.56-0.32,1.68-1.5,1.5c-2.61-0.9-4.02-3-5.64-4.89
			c9.74-5.57,11.8,9.01,19.93,10.9c-0.03,1.13-0.82,1.51-1.84,1.65c-0.32,0.01-9.94,0.17-10.82,0.75c0,0,5.65,2.63,12.53,10.74
			c0,0,6.51,8.32,14.29,13.81c0.55,0.63,1.54,1.1,2.36,1.55c0.08,0.05,0.16,0.1,0.24,0.15c0.05,0.03,0.11,0.05,0.17,0.08
			c0.13,0.08,0.26,0.16,0.37,0.23c0.01-0.02,0.01-0.03,0.01-0.05c0.21,0.08,0.42,0.14,0.64,0.19c1.65,0.34,6.01,1.12,8.19,0.4
			c1.26-0.42,2.53-0.83,3.84-1.07c0.32-0.06,0.64-0.14,0.95-0.24c0.09,0.01,0.18,0.01,0.28,0.02c0.01-0.04,0.02-0.08,0.03-0.12
			c0.37-0.13,0.72-0.29,1.07-0.47l3.8-2.04c1.16,0.5,2.1,1.12,1.88,2.25c2.72-0.33,4.03,2.73,6.02,1.88
			c-2.5-2.02-6.03-2.99-7.9-5.64c2.05-1.04,0.24,1.31,2.96,0.82c-0.74-2.51-4.38-0.52-1.08-4.58c2.61,3.16,7.52,2.93,11.28,2.63
			c-2.62-5.03-13.42-1.87-16.17-6.77c1.75-0.67,3.28,0.32,4.51-0.38c-1.49-0.63-2.78-1.48-4.14-2.26
			c-8.11-0.16-14.09-2.46-18.42-6.39c-4.87,0.36-7.97-1.05-10.15-3.38c7.67-0.02,16.19,2.36,23.31,4.14
			c-0.44,5.7,10.19,2.08,12.78,5.26c-0.77,0.98-3.77-0.26-4.51,0.75c6.46,1.97,12.52,6.11,18.8,6.02c-0.66-1.84-1.76-3.25-2.63-4.89
			C253.42,344.3,254.67,345.45,256.33,345.05z M202.94,320.98c-1.36,0.4-0.63,2.88-1.88,3.39c-3.1,0.96-4.17-4.54-7.9-3.01
			c-1.25-1.57-4.72-2.72-3.38-5.64c1.75,0.51,3.01,1.5,4.14,2.63c4.41-3.11,12.03,0.54,16.92-1.13
			C210.06,320.33,205.75,319.91,202.94,320.98z"/>
		<polygon class="st4" points="167.18,333 166.25,328.14 165.76,321.59 167.84,318.26 171.98,316.19 176.79,315.37 180.28,315.37 
			181.48,315.97 182.57,318.81 187.16,321.1 190.53,324.48 193,327.36 193,329.9 188.28,332.41 181.26,330.93 178.51,328.09 
			173.81,326.77 170.57,327.82 168.87,329.9 168.55,333.33 		"/>
		<path class="st5" d="M166.43,329.4c0,0-0.49-14,18.91-7.33l2.54-0.37l3.73,5.44l-2.13,4.13l-5.36-2.33l-8.13-1.57l-3.82-0.31
			l-2.21,2.83l-0.61,3.43h-2.09L166.43,329.4z"/>
		<path class="st6" d="M509.28,135.91c-5.83,6.44-16.2,13.33-16.2,13.33c14.03-16.78,15.09-36.14,14.74-44.8
			c-0.03-0.79-1.13-0.95-1.39-0.21c-4.1,11.45-19.03,23.9-21.74,26.09c1.25-1.71,2.38-3.35,3.31-4.75c1.4-2.1,2.6-4.33,3.56-6.66
			c3.52-7.8,4.58-15.3,4.69-21.21c1.48-18.92-4-33.02-4-33.02c0.32,5.84-28.99,45.6-29.56,46.38c-5.82,6.73-11.98,13.28-18.38,19.67
			c-23,23-48.11,44.66-73.32,64.67c-3.8,3.01-6.95,6.14-10.46,9.18c-2.82,2.44-5.12,5.36-7.21,8.49
			c-11.82,17.7-26.96,32.82-41.73,47.37c-2.63,3.12-4.06,5.51-7.14,8.65c-2.2,2.24-4.79,4.92-6.83,7.14
			c-9.07,9.89-17.67,17.08-27.76,26.32c-3.47,3.18-10.38,11.8-14.29,13.16c-1.73,0.6-4.43,0.24-6.77,0.38
			c-9.87,0.57-23.76-2.71-34.21-3.39c-8.01-0.52-13.26-3.54-20.3-3.38c-3.45,0.08-6.12,0.8-8.65,1.43
			c-1.02,0.25-1.95,0.77-2.71,1.48c-3.97,3.68-14.36,0.94-17.21,5.73c-2.32,6.32-1.85,17.21,4.14,19.55c2.42-1.3-0.21-5.43,1.5-7.14
			c5.24-4.21,9.85,2.13,14.96,5.7c1.91,1.33,3.59,2.94,5.13,4.68c2.22,2.51,5.69,4.17,6.61,6.54c-16.5,1.32-36.6,2.85-53.39,4.51
			c-9.05,0.89-18.71,1.22-27.07,3.38c-15.96,4.13-28.18,12.32-40.61,19.55c-12.94,7.53-28,12.5-45.49,14.66
			c-11.42,1.41-19.57-2.89-27.76-6.42l0,0c0,0-3.56-1.85-3.73-0.54c-0.16,1.31,9.57,27.65,45.78,19.75c-1.2,0.57-2.5,1.03-3.83,1.48
			c-0.18,0.05-18.45,5.02-24.07,0.78c-0.67-0.5,0,0.44,0,0.44s26.17,23.91,59.02,9.63l5.69-0.73c-3.46,3.58-8.85,8.05-14.36,8.2
			c0,0,38.15,9.69,57.63-13.78c0,0-3.27,13.29-10.72,15.09c0,0,20.47-0.13,33.28-15.09c0.18,0.49,0.3,1.03,0.4,1.61
			c-0.03,2.14-0.82,8.6-9.03,11.11c0,0,27.63-1.85,41.73-18.35c0,0-0.19,8.43-6.88,12.22c0,0,33.56-4.63,39.96-16.36
			c0,0,23.55,8.85,54.52-1.07l0,0c9.25,1.08,21.16,1.8,30.08,4.46c10.76,12.55,15.35,31.27,24.44,45.49
			c2.61-0.15,3.92-1.6,6.02-2.26c3.26,2.09,7.96,2.53,9.4-1.5c0.53,1.1,2.1,1.16,3.76,1.13c1.75-0.88,2.6-2.66,4.51-3.38
			c1.5,0.75,3.79,0.72,5.26,1.5c2.36-0.9,3.21-3.3,3.76-6.02c2.96,1.34,7.78,2.71,12.03,1.5c1.56-1.16-0.42-3.57,1.13-4.51
			c2.43,1.08,6.82,3.2,9.4,0.75c0.74-1.36-0.88-1.61-0.37-3.76c2.92,0.04,4.4-1.37,7.14-1.5c0.18-2.81-1.85-3.42-2.26-5.64
			c3.17-0.47,6.01-1.26,9.4-1.5c-1.02-1.48-0.24-2.69-1.13-4.51c2.94-1.35,8.56-0.82,9.02-3.76c0.37-2.37-2.37-2.39-3.38-4.51
			c3.84,0.33,5.59-1.43,7.52-3.01c1.31-0.98-1.36-1.12-1.13-2.26c1.96-0.42,1.84-2.92,2.63-4.51c-0.65-1.1-2.1-1.4-2.63-2.63
			c2.84-0.05,3.34-2.43,6.02-2.63c0.53-2.03-1.77-1.24-1.88-2.63c1.34-1.04,3.5-1.26,3.76-3.38c-0.4-1.16-2.52,0.21-3.01-1.5
			c1.24-1.22,5-1.66,4.51-3.38c-10.84-3.14-22.4-0.84-33.84-3.01c-0.62-0.12-1.52-1.06-1.88-1.13c-11.68-2.17-24.26-0.83-34.59-5.26
			c-1.99-2.53-4.23-4.79-5.64-7.9c11.28-7.41,17.28-17.44,20.47-26.26c1.87-1.97,3.14-4.55,6.22-5.32c-0.57-1.81-2.03-3.1-3.63-4.21
			c0.2-1.04,0.35-2.02,0.48-2.94c4.37,0.98,9.05,1.44,11.04-1.5c-0.64-2.5-5.25-3.02-5.26-4.89c4.6-0.73,9.25,0.9,12.41-1.13
			c-0.57-0.73-1.34-1.38-2.18-2c24.66-6.89,37.9-28.7,37.9-28.7c-11.82,7.03-25.19-0.51-25.19-0.51c5.76,0.04,18.17,1.79,22.94-1.5
			c-1.96-0.8-3.79-1.72-5.56-2.71c26.19-9.47,37.14-28.99,37.14-28.99c-10.22,9.56-28.2,6.13-28.2,6.13
			c25.67-2.25,44.49-25.22,51.43-35.05c0.7-0.99-0.3-2.3-1.44-1.86c-6.83,2.61-17.34,2.94-17.6,2.95c0,0,0,0-0.01,0
			c35.95-10.32,50.9-34.16,56.08-45.25c0.53-1.13-0.8-2.24-1.8-1.5c-7.67,5.64-21.77,8.76-27.85,9.9
			c12.45-7.45,20.84-16.57,26.48-25.41c0.01-0.01,0.03-0.02,0.04-0.02l-0.04,0.01c7.05-11.06,9.83-21.7,10.92-28.11
			C512.24,135.69,510.33,134.76,509.28,135.91z M195.42,335.65c2.85,0.53,7.77,2.26,10.9,3.76c0.32,0.97-2.53-1.36-3.38,0.37
			c-0.91-1.09-2.6-1.41-3.38-2.63c-0.64-0.14-0.71,0.29-0.75,0.75C197.17,337.66,197,335.95,195.42,335.65z M215.72,373.25
			c-1.54-0.34-1.3-2.46-3.01-2.63c-2.13,0.8,0.04,1.65,0,3.38c-2.09-0.67-1.11-4.41-3.76-4.51c-0.3,0.2-0.61,0.39-1.13,0.37
			c1.24,2.27,1.45,5.57,3.76,6.77c0.26,1.01-0.78,0.73-1.13,1.13c0.34,0.66,0.84,1.16,1.5,1.5c-3.23,0.47-2.89-5.88-4.89-7.9
			c-1.31,1.24-3.59,2.07-3.38,3.76c-3.18,0.3-2.23-3.54-4.14-4.51c-1.37-0.36-0.17,1.83-1.88,1.13c-0.07,2.21,0.05,3.38-0.38,4.51
			c-0.76-1.75-3.9-1.12-4.51-3.01c-1.55,0.84-0.4,4.37,0.38,5.26c-2.6,0.59-1.6-5.67-4.89-5.64c-1.14,0.57,0.31,1.65,0,2.63
			c-1.38-0.65-3.42-0.33-3.01,1.88c-2.45-0.43-3.05-2.71-4.51-4.13c-0.85-0.18-1.16,2.04-0.38,2.25c-0.53,1.1-1.3-0.67-2.26-0.38
			c-0.66,1.44,0.86,3.54,2.26,4.14c-2.97,1.09-3.37-3.65-6.02-4.14c-0.95,0.98,1.01,2.23,0.75,3.76c-2.59-0.55-1.58-4.69-4.51-4.89
			c-1.3,1.55,1.7,3.64,0.75,4.89c-3.18-0.58-2.79-4.73-5.64-5.64c-0.81,1.59,1.26,3.13,1.13,5.26c-3.28,0.54-3.9-0.97-6.39,0
			c-1.08-1.3-1.5-3.27-3.01-4.14c-1.02,1.29,0.19,3.55,0.75,4.51c-1.54,0.9-1.39-3.11-3.38-3.01c-1.11,0.89,0.45,2.28,0.38,3.39
			c-2.86-1.28-2.07-4.75-5.26-4.89c-2.63-0.11-4.6,3.24-5.64,4.89c-2.9-0.86-1.99-5.53-4.89-6.39c-1.34,0.29-0.71,2.55-2.26,2.63
			c1.05-1.1-0.34-1.86-0.75-2.63c-1.84,0.79-2.14,3.13-4.14,3.76c-0.26-1.51,0.36-2.15,0.38-3.38c-2.85,1.1-4.52,1.34-6.39,3.01
			c-0.95-0.3-0.96-1.55-1.5-2.26c-2.05,0.93-1.56-0.64-3.01-1.13c-2.09,0.17-3.57,2.94-4.89,2.63c0.11-1.4,1.99-1.02,1.88-2.63
			c-1.04-1.26-2.01,0.72-3.38,0.38c0.03-0.53,0.06-1.07-0.38-1.13c-5.1,0.12-8.17,2.65-13.16,3.76c2.29-1.6,5.03-2.74,7.14-4.51
			c-4.46-2.67-7.58,2.02-12.41,2.26c1.15-1.48,3.69-1.57,4.14-3.76c-1.03-1.83-3.7-0.01-5.26,0c5.85-5.48,12.55-10.13,22.94-10.9
			c14.98-1.12,32.52-4.6,48.88-6.02c11.1-0.96,23.17-0.24,33.46-3.38c2.65,2.12,4.83,4.69,7.14,7.15c-0.12,0.88-0.59,1.41-0.38,2.63
			c-1.42-0.08-1.83-1.18-3.01-1.5c-0.67,0.58-1.88,0.62-1.5,2.26c-1.03-0.35-1.6-1.15-2.63-1.5c-1.13,1.24,0.54,1.96,1.13,2.63
			c-0.17,0.55-0.33-0.04-0.75,0c-0.06,2.08,4.68,2.58,8.27,2.26c2.12,1.89,5.58,2.44,7.14,4.89
			C214.16,369.02,215.24,371.81,215.72,373.25z M213.84,355.2 M219.48,355.95c-4.79-3.87-10.56-5.75-14.29-11.28
			c2.19,1.41,6.41,1.81,9.4,3.76c-0.25-1.39-1.95-4.56-4.51-4.89c-0.03,1.54,1.86,1.15,2.26,2.26c-3.06-1.55-7.42-1.76-9.62-3.99
			c0.73,0.57,2.06-0.1,0.6-0.52c1.57-1.06,2.53,1.72,4.51,1.5c-0.81-2.24,0.58,0.12,2.26-0.37c-0.84-0.92-1.7-1.81-3.38-1.88
			c0.69-1.15,1.79,0.43,3.01,0c-3.94-4.08-12.08-3.96-16.17-7.89c1.19-1.82,6.31,0.29,6.39-2.63c-8.12-1.89-10.19-16.48-19.93-10.9
			c1.62,1.88,3.03,3.99,5.64,4.89c1.18,0.18,1.06-0.94,1.5-1.5c0.75,1.38,2.72,1.54,3.01,3.38c-1.55,0.05-1.6-1.4-3.38-1.13
			c0.05,1.83,2.32,1.44,2.26,3.38c-5.35-2.94-21.11-8.83-20.68,3.76c-5.56-9.46,2.86-19.84,13.54-14.66
			c4.51-7.93,20.21-4.2,28.57-2.26c1.54,2.78,7.49,3.37,11.82,2.78c1.67-0.23,3.37-0.23,5.02,0.11c6.19,1.27,13.66,1.26,18.12,4.25
			c-0.32,3.56,1.06,2.82,4.5,3.85c-0.41,1.22,2.19,1.21,2.65,3.3c0.35,1.53-1.1,0.14-0.75,1.67c-1.5,0.13,1.3,0.67-0.38,0.96
			c-0.14,3.65,3.76,3.26,4.14,6.39c-1.59-0.09-2.66,0.35-3.76,0.75c1.22,2.29,3.48,3.54,4.51,6.02c-1.66,0.4-2.91-0.74-3.76,0
			c0.87,1.64,1.97,3.04,2.63,4.89c-6.28,0.09-12.34-4.05-18.8-6.02c0.74-1.02,3.74,0.23,4.51-0.75c-2.59-3.18-13.22,0.44-12.78-5.26
			c-7.13-1.78-15.64-4.16-23.31-4.14c2.18,2.33,5.28,3.75,10.15,3.38c4.34,3.93,10.31,6.23,18.42,6.39
			c1.35,0.78,2.64,1.62,4.14,2.26c-1.23,0.7-2.76-0.3-4.51,0.38c2.75,4.89,13.55,1.74,16.17,6.77c-3.75,0.3-8.67,0.53-11.28-2.63
			c-3.3,4.06-0.03,2.76,0.72,5.26c-2.72,0.49-0.55-2.54-2.6-1.5c1.86,2.65,4.28,2.98,6.78,4.99c-1.98,0.85-2.18-1.57-4.9-1.24
			c0.33-1.73-2.04-2.27-3.76-3.01c-1.18,0.26-0.49,1-0.38,1.88c-1.3,0.3-1.59-0.42-2.26-0.75c-0.83,0.05-0.16,1.6-0.38,2.26
			c-2.84-0.09-2.84-3.56-5.2-3.14c0.06,1.32,1.1,2.47,1.06,3.89c-3.3,2.24-5.19-3.3-9.78-2.26 M225.12,367.98
			c1.73-0.35,1.55,1.2,2.26,1.88C226.65,370.69,225.27,368.99,225.12,367.98z M231.51,377.38c-0.35-2.03-1.8-2.96-3.38-3.76
			c-0.01-0.88,0.65-1.11,0.38-2.26c1.83,2.81,4.04,5.23,7.14,6.77C234.36,379.28,233.67,376.62,231.51,377.38z M235.65,381.14
			c0.69-0.78,3.16-0.17,3.01,1.13C237.33,382.22,236.98,381.2,235.65,381.14z M258.58,387.91c-1.16-0.35-0.45-2.56-2.63-1.88
			c0-0.63,0-1.25,0-1.88c0.81,0.45,2.1,0.41,2.63,1.13C258.58,386.16,258.58,387.03,258.58,387.91z M266.1,389.41
			c2.75-1.25,4.98-0.28,7.14,0.75C271.61,390.67,268.39,389.52,266.1,389.41z M279.26,392.05c-0.21-1.35-0.54-1.77-1.13-3.39
			c1.81-0.06,1.89,1.62,4.14,1.13C281.68,390.95,280.08,391.11,279.26,392.05z M290.54,392.42c-1.35,0.1-1.81-0.69-3.01-0.75
			C288,390.99,291.02,390.92,290.54,392.42z M296.56,389.79c-0.38,0-0.75,0-1.13,0c0.43-2.06-0.5-2.77-1.88-3.01
			c1.55-1.63,3.49,0.07,5.26,0.38C298.39,388.53,295.96,388.46,296.56,389.79z M310.47,407.09c-1.22,1.49,1.02,2.73,1.13,4.14
			c-4.09-1.55-6.43-4.85-7.52-9.4c0.81,0.31,1.28,0.97,2.63,0.75c0.76-3.14-2.49-2.27-3.01-4.14c8.04,3.62,19.49,3.82,24.06,10.9
			c-5.24,3.01-8.01-3.61-12.03-3.01c0.54,2.97,3.65,3.37,4.89,5.64C315.79,414.51,314.4,407.88,310.47,407.09z M303.7,386.78
			c0.07-1.16,2.02-0.79,1.88,0.38C304.71,387.28,304.14,387.1,303.7,386.78z M310.1,367.98c1.5-0.12,1.02,1.74,2.26,1.88
			c-0.6,0.78-2.63,0.13-3.39,0.75C308.57,368.97,310.24,369.38,310.1,367.98z M310.47,378.89c-0.62,0.48-2.04,0.97-2.63,0.38
			C307.95,377.24,309.86,377.73,310.47,378.89z M313.1,371.74c1.19,0.06,1.65,0.85,3.01,0.75c-0.05,1.08-0.47,1.79-1.88,1.5
			C314.74,372.36,312.77,373.2,313.1,371.74z M339.8,391.3c-3.45,2.39-6.21-1.26-10.15-0.75c1.68,3.23,5.76,4.69,9.4,4.89
			c-1.62,5.28-8.1-0.14-10.9,0.75c1.36,2.65,3.83,4.19,7.14,4.89c0,0.5,0,1,0,1.5c-10.82,0.54-14.11-9.7-18.8-16.54
			c3.13,1.26,4.3,7.73,9.02,8.65c-2.11-2.9-4.75-5.28-6.02-9.02c3.06,0.57,2.77,4.5,4.89,6.02c0.7-1.59-1.4-3.6-2.26-4.89
			c2.44-0.35,4.96,0.18,7.52,0.75c-2.2-2.15-9.28-1.42-12.78-3.38c4.92-0.53,11.06,0.97,15.04,2.63c-0.04,1.33-1.24-0.8-1.13,0.38
			c0.74,1.3,1.5-0.46,2.26-0.38c1.85,2.45,2.3,1.36,4.14,3.76C337.04,388.52,339.05,390.09,339.8,391.3z M312.35,355.95
			c1.11-1.98,2.3,0.33,4.13-1.13c0.44,0.69,0.98,1.27,1.5,1.88C315.89,357.34,313.73,356.93,312.35,355.95z M314.61,363.09
			c-0.39-0.58-0.14-2.92,1.5-2.63C316.33,362.06,315.74,362.85,314.61,363.09z M376.64,210.82c2.87,1.53,6.12-0.34,9.4-0.75
			c-1.78,2.98-6.83,2.7-8.27,6.02c2.67,1.16,5.9-0.36,9.02,0c-3.2,2.29-8.47,1.29-10.9,4.89c2.57,0.79,6.94,0.44,10.9,0.75
			c-2.72,2.8-9.85,1.18-11.66,4.89c1.71,1.68,6.81-0.04,8.65,1.5c-4.68,1.5-10.06,1.84-14.29,4.51c2.66,1.35,7.28,0.74,10.53,1.5
			c-3.13,3.01-12.36-0.08-14.66,3.76c3.56,2.33,8.64,3.14,12.03,5.64c-4.27,0.37-8.2-0.72-13.54-0.75c-0.61-0.16-1.26,1.4-0.37,1.5
			c-1.28,1.12-2.63-0.15-3.38,1.5c3.78,1.48,7.7,2.83,11.28,4.51c-4.59,0.85-7.21-0.81-12.41,0.38c-0.98,0.32,0.72,1.65-0.38,2.26
			c-1.25,0-2.51,0-3.76,0c1.94,3.2,7.68,2.59,10.9,4.51c-4.75,1.09-10.73-1.78-15.42-0.75c0.64,5,6.84,4.44,10.15,6.77
			c-3.81,1.56-11.9-0.76-15.42-0.75c1.54,3.35,5.41,4.36,7.9,6.77c-5.36,1.46-10.58-2.01-15.04-2.26c1.35,3.91,4.99,5.53,7.14,8.65
			c-4.87-0.43-9.1-1.21-11.65,1.13c3.59,2.29,8.27,3.51,10.9,6.77c-3.82-0.28-8.28-3.7-12.78-2.63c1.76,2.51,5.42,3.1,5.64,7.15
			c-5.9-0.96-9.44-4.21-16.54-3.01c2.81,3.2,7.02,5.01,9.02,9.02c-5.9-1.62-11.28-3.76-17.67-4.89c4.38,4.02,9.74,7.06,13.54,11.66
			c-4.54,1.68-8.51-0.16-12.03-1.5c-1.39,0.75-1.36,1.2-3.38,0.75c1.98,3.41,8.12,5.91,10.9,9.78c-6.84,0.95-9.46-2.33-15.41-2.25
			c2.88,3.63,6.67,6.37,10.53,9.02c-8.58,1.8-13-5.79-20.68-4.89c1.31,2.93,4.65,4.22,7.15,6.02c2.59,1.86,5.63,3.12,7.52,5.64
			c-7.49,0.22-9.76-4.78-16.54-5.26c2.38,4.51,8.63,5.16,11.28,9.4c-5.31,3.82-10.22-3.8-16.17-4.14c2.65,3.86,7.45,5.58,11.28,8.27
			c-1.57,4.61-6.09-0.12-9.02,0.75c1.81,2.33,4.84,3.43,7.15,5.26c0.36,3.04,3.05,4.4,6.02,3.76c0.29,1.41-2,0.26-1.5,1.88
			c-0.77-0.68-3.05-1.19-4.14-0.37c0.36,1.78,2.11,2.15,3.38,3.01c1.78-0.4,0.98-2.75,3.01-1.13c-0.09,0.66-0.65,0.86-1.5,0.75
			c0.44,1.44,1.73,2.03,3.38,2.26c0.96-0.42-0.15-2.91,0.75-3.38c0.64,1.36,2.21,1.8,2.63,3.38c-3.13-0.49-3.12,1.94-6.02,0.75
			c1.31,5.14,6.77-0.05,9.02,2.63c-2.81,2.5-6.71-0.11-10.15,0.37c1.09,1.67,3.02,2.5,4.51,3.76c1.17,0.17,1.2-0.8,1.13-1.88
			c1.24,0.39,2.09,1.16,2.63,2.25c-1.2-0.32-1.42,0.33-1.88,0.75c0.9,0.97,2.17,2.3,3.76,1.5c-1.42,1.06-0.18,2.26,1.13,2.63
			c-1.67,0.71-2.69,2.07-5.26,1.88c0.38-1.76-0.65-2.1-2.26-1.88c0.37-1.96-0.33-2.91,0.75-3.76c0.18-1.18-1.01-0.99-1.13-1.88
			c-5.8,0.95-9.99,1.46-14.66,1.5c2.3,4.08,6.87,1.05,9.4,1.88c1.1-0.28,0.73-2.03,2.26-1.88c0.28,0.35,0.68,0.57,1.13,0.75
			c0.01,1.26-1.74,0.76-2.26,1.5c1.97,3.29,5.6,3.78,7.52,6.39c1.94,0.19,1.12-2.38,2.63-2.63c-1.23,2.74,2.3,3.27,4.13,4.14
			c-2.47,1.14-9.08-1.41-11.28,1.88c0.07,1.18,2.03,0.48,1.88,1.88c-1.92-0.46-2.93,1.31-4.14,0.38c0.76-1.87,1.92-3.35,3.01-4.89
			c-0.09-0.66-0.65-0.86-1.5-0.75c-0.2-1.33,1.33-0.92,1.13-2.26c-0.63-0.72-3.47-0.48-4.14,0c-0.03,1.28,1.11,1.4,1.88,1.88
			c-1.68,1.03-0.78,2.42-3.01,3.01c0.07,1.06,1.79,0.47,1.5,1.88c-1.28,0.66-1.4-0.12-1.88-1.13c-1.1,0.78-3.18,0.58-4.14,1.5
			c-1.47-0.38-0.06-1.29-0.38-2.63c-0.75,0-1.5,0-2.26,0c-1.09,0.33-0.42,0.56-0.37,1.5c-1.94-0.19-2-2.26-3.39-3.01
			c-1.15,0.23-1.96,0.8-3.01,1.13c0.74,0.63,2.35,0.41,3.38,0.75c-0.32,1.2,0.59,1.16,0.75,1.88c1.15,0.27,1.11-0.65,2.26-0.37
			c1.17,1.48,5.2,4.22,7.52,1.88c0.39,1.09,1.59,3.01,3.76,3.38c0.37-2.26,4.26-1,3.38-4.51c1.42,0.46,1.65,2.11,2.63,3.01
			c-2.33-0.07-3.47,1.05-5.26,1.5c0,0.75,1.03,0.48,0.75,1.5c-2.4,0.31-3.23-1.21-5.26-0.75c-0.42-0.87,0.08-1.01-0.75-1.88
			c-1.57,0.18-2.92,0.59-4.14,1.13c0.3,1.96,3.42,2.23,5.26,1.5c0.59,1.34-1.28,0.23-1.13,1.13c0.37,2.32,2.73,0.66,4.14,1.5
			c-0.37,1.88-3.48,1.03-3.76,3.01c0.59,1.18,0.77,1.02,0.38,2.63c-1.39,0.01-1.66-1.1-2.26-1.88c0.65-1.43,0.4-1.43,0.75-3.01
			c-0.5-0.99-1.67-0.72-2.63-0.37c-0.95-0.92,0.79-0.8,0.38-2.26c-1.53-0.74-2.7,0.68-4.51,0.75c-0.18,1.81,2.17,1.08,2.26,2.63
			c-1.73,0.15-3.13,0.63-4.14,1.5c1.56,2.18,3.47-0.11,5.64,0.75c-0.43,2.13-3.51-0.07-4.51,1.88c-0.66-0.34-0.62-1.39-1.5-1.5
			c-1.78,0.22-2.66,1.35-3.76,2.26c1.94,2.37,4.72-0.48,7.14,1.13c-0.34,0.79-1.11,1.15-2.26,1.13c-0.54,1.79,1.57,0.93,1.13,2.63
			c-1.49,0.06,0.12-0.58-0.75-1.13c-2.39-0.5-4.06,1.69-6.02,0.37c0.1-1.15,1.68-0.82,1.88-1.88c-2-1.9-5.82,0.29-8.27,0.37
			c-0.67-2.58-3.57-2.95-5.64-4.14c-0.18-1.18,0.33-1.68,1.5-1.5c1.82,2.31,4.52,3.75,8.27,4.13c0.88-0.12,0.84-1.16,1.5-1.5
			c-0.4-1.94-2.31-1.39-4.14-1.13c0.81-2.21,0.49-3.13,0-5.26c-1.15-0.27-1.37,0.38-2.26,0.37c-0.41-1.79,2.24-0.52,2.26-1.88
			c-0.49-1.39-2.81-0.95-3.76-1.88c-1,1.05,0.35,1.86,0.38,3.01c-1.6-0.03-2.63-0.63-4.51-0.37c0.59-1.48,2.33-1.91,4.14-3.01
			c-1.27-1.69-3.22-0.41-4.89-1.5c-1.1,0.32,0.49,0.94,0,1.88c-1.63,0-2.39-0.87-4.14-0.75c0.54,3.92,6.24,6.02,9.78,4.51
			c0.22,4.7-5.95,0.25-8.27-0.37c-0.46,2.08,1.69,1.57,1.88,3.01c-3.17-1.35-7.24-1.79-10.53-3.01c0,3.19,4.14,4.06,7.14,3.01
			c2.13,1.48,5.22,3.25,6.02,4.89c-1.97,1.36-4.07,0.68-6.77,0c0.3-1.83,4.59,0.33,4.89-1.5c-4.37-1.83-8.92-2.09-13.16-3.38
			c0.11-1.02,0.48-1.77,1.13-2.26c0.05-0.68-0.46-0.79-0.38-1.5c-1.88-0.87-3.19-2.32-6.02-2.26c0.73,2.03,3.49,2.02,4.51,3.76
			c-2.72,0.84-5.12-1.89-7.52-2.63c0.16,5.23,7.3,3.48,9.4,6.77c-3.91,0.15-8.1-2.67-11.66-4.13c-0.27,2.15,2.15,1.61,1.88,3.76
			c-3.74-1.53-7.21-3.32-10.15-5.64c1.49,4.4,8.55,6.48,13.16,9.02c-6.11-0.29-11.1-4.94-16.54-7.14c0.13-0.49,0.66-0.59,0.75-1.13
			c-2.32-2.06-4.36-4.41-7.14-6.01c-0.4-1.35-0.22-3.29-1.88-3.38c2.78-0.19,5.09,1.03,8.27,1.5c-1.06-3.05-3.16-1.02-4.89-2.63
			c0.01-1.14,1.18-3.06-0.75-3.01c-0.07-0.82,0.31-1.2,1.13-1.13c0.09-1.35-1.13-1.38-1.13-2.63c3.42,2.52,8.41,3.56,12.78,4.14
			c1.02-0.36,1.41-1.35,2.26-1.88c1.7-0.44,0.84,1.67,2.63,1.13c1.48-1.2-2.5-1.47-1.13-2.63c2.3,1.32,4.84,0.77,7.52,1.13
			c-1.2-2.56-5.3-2.22-5.64-5.64c2.23-0.35,3.12,0.64,4.89,0.75c0.74-0.64,0.12-2.64,1.13-3.01c7.04,0.13,13.48,3.62,22.56,3.76
			c-1.29-2.47-5.52-2-8.27-3.01c-1.49-3.77-8.33-2.2-10.53-5.26c1.86,0.02,3.32,0.44,4.89,0.75c0.31-0.07,0.37-0.38,0.75-0.37
			c-0.46-4.05-4.7-4.32-6.02-7.52c3.18,0.39,8.26,2.27,11.28,0.37c-2.68-2.71-7-3.77-9.4-6.77c0.61-1.84,3.47,0.78,3.76-1.5
			c-1.69-2.95-6.32-2.95-7.9-6.02c1.53-0.13,3.01-0.82,4.89-1.5c-0.31-1.06,0.53-0.97,0.38-1.88c-0.53-0.6-1.3-0.96-2.26-1.13
			c7.43-1.65,11.07,5.7,16.92,5.64c0.66-3.7-7.27-3.97-7.14-7.14c2.01-0.2,4.22,1.72,4.89-0.37c-1.11-1.27-2.91-1.85-4.51-2.63
			c2.49-1,7.56,1.63,11.65,1.5c-0.35-2.83,1.06-5.64,1.13-7.52c0.87-0.88,3.58,0.08,4.13-1.13c-0.8-2.19-4.93-2.22-6.39-0.75
			c-0.34,1.21,1.23,0.53,1.5,1.13c-3.5,1.39-5.86,2.35-9.4,4.14c-2.46-1.05-4.55-2.46-5.64-4.89c2.04,0.3,4.51,1.89,6.39,1.13
			c0.3-1.68-0.67-2.09-1.88-2.25c0.24-1.89,2.54-1.72,2.63-3.76c1.54-0.37,2.41,0.93,3.38,0c0.14-1.76-2.12-1.14-1.88-3.01
			c1.41-0.75,2.43,0.37,4.14,0.37c0.79-1.57-1.92-2.47-2.63-3.76c0.9-2.1,3.85-2.16,5.26-3.76c-0.15-0.9,0.69-0.82,0.38-1.88
			c21.55-20.39,42.72-40.74,62.79-63.17c2.51-2.81,5.23-5.82,7.52-8.65c6.02-7.43,9.8-16.12,18.42-21.05
			c0.1,1.1-0.85,1.15-0.75,2.26c5.02-1.13,5.36-6.93,10.15-8.27c0.31,2.57-4.89,2.88-4.51,6.77c4.3-0.84,5.59-4.69,9.78-5.64
			c-1.99,2.9-6.3,3.47-7.52,7.14c0.07,0.3,0.38,0.38,0.38,0.75c3.76-1.13,7.37-2.4,11.28-3.38
			C385.87,205.76,380.49,207.53,376.64,210.82z"/>
		<path class="st3" d="M266.48,312.71c-0.01,0.01-0.01,0.02-0.02,0.03c-0.05-0.01-0.11-0.02-0.16-0.03c0.03,0.06,0.06,0.1,0.08,0.16
			c-1.72,2.83-7.33,4.52-10.05,16.36c-0.06,0.01,0.06-0.01,0,0c-0.33,6.76,6.02,3.09,7.71,6.04c-0.29,2.29-3.15-0.34-3.76,1.5
			c2.4,2.99,6.72,4.06,9.4,6.77c-3.02,1.9-8.1,0.01-11.28-0.37c1.31,3.2,5.55,3.47,6.02,7.52c-0.38,0-0.45,0.31-0.75,0.37
			c-1.57-0.31-3.03-0.73-4.89-0.75c2.2,3.07,9.04,1.49,10.53,5.26c2.75,1.01,6.98,0.54,8.27,3.01c-9.08-0.14-15.52-3.63-22.56-3.76
			c-1.01,0.37-0.39,2.37-1.13,3.01c-1.77-0.11-2.66-1.1-4.89-0.75c0.34,3.42,4.44,3.08,5.64,5.64c-2.68-0.36-5.22,0.19-7.52-1.13
			c-1.37,1.17,2.6,1.43,1.13,2.63c-1.79,0.54-0.94-1.57-2.63-1.13c-0.85,0.53-1.24,1.52-2.26,1.88c-4.37-0.58-9.36-1.62-12.78-4.14
			c0,1.25,1.22,1.28,1.13,2.63c-0.82-0.07-1.2,0.31-1.13,1.13c1.93-0.05,0.76,1.86,0.75,3.01c1.73,1.61,3.83-0.42,4.89,2.63
			c-3.18-0.48-5.49-1.69-8.27-1.5c1.66,0.1,1.48,2.03,1.88,3.38c2.78,1.61,4.82,3.95,7.14,6.01c-0.09,0.54-0.62,0.64-0.75,1.13
			c5.44,2.2,10.44,6.86,16.54,7.14c-4.61-2.54-11.67-4.63-13.16-9.02c2.94,2.32,6.41,4.12,10.15,5.64c0.27-2.15-2.15-1.61-1.88-3.76
			c3.55,1.46,7.75,4.28,11.66,4.13c-2.1-3.29-9.24-1.54-9.4-6.77c2.4,0.74,4.8,3.47,7.52,2.63c-1.02-1.74-3.78-1.73-4.51-3.76
			c2.82-0.07,4.13,1.38,6.02,2.26c-0.08,0.71,0.42,0.83,0.38,1.5c-0.64,0.48-1.02,1.24-1.13,2.26c4.24,1.29,8.79,1.55,13.16,3.38
			c-0.3,1.83-4.59-0.32-4.89,1.5c2.7,0.68,4.8,1.36,6.77,0c-0.8-1.63-3.89-3.41-6.02-4.89c-3,1.05-7.15,0.18-7.14-3.01
			c3.29,1.22,7.36,1.66,10.53,3.01c-0.2-1.44-2.34-0.92-1.88-3.01c2.33,0.63,8.49,5.07,8.27,0.37c-3.54,1.5-9.23-0.59-9.78-4.51
			c1.75-0.12,2.51,0.75,4.14,0.75c0.49-0.93-1.1-1.56,0-1.88c1.66,1.1,3.62-0.19,4.89,1.5c-1.81,1.1-3.54,1.53-4.14,3.01
			c1.88-0.25,2.91,0.35,4.51,0.37c-0.03-1.15-1.38-1.96-0.38-3.01c0.95,0.93,3.27,0.49,3.76,1.88c-0.02,1.36-2.67,0.09-2.26,1.88
			c0.89,0.01,1.11-0.65,2.26-0.37c0.49,2.13,0.81,3.06,0,5.26c1.83-0.26,3.74-0.82,4.14,1.13c-0.66,0.34-0.62,1.39-1.5,1.5
			c-3.76-0.38-6.45-1.82-8.27-4.13c-1.18-0.18-1.68,0.33-1.5,1.5c2.07,1.19,4.97,1.55,5.64,4.14c2.46-0.08,6.28-2.28,8.27-0.37
			c-0.2,1.05-1.77,0.73-1.88,1.88c1.95,1.31,3.63-0.87,6.02-0.37c0.87,0.55-0.74,1.19,0.75,1.13c0.44-1.7-1.67-0.84-1.13-2.63
			c1.15,0.02,1.91-0.34,2.26-1.13c-2.42-1.6-5.2,1.25-7.14-1.13c1.1-0.91,1.98-2.03,3.76-2.26c0.88,0.12,0.84,1.16,1.5,1.5
			c1-1.96,4.08,0.25,4.51-1.88c-2.17-0.86-4.08,1.42-5.64-0.75c1.01-0.87,2.41-1.35,4.14-1.5c-0.08-1.55-2.44-0.82-2.26-2.63
			c1.81-0.07,2.98-1.49,4.51-0.75c0.42,1.45-1.33,1.34-0.38,2.26c0.96-0.34,2.13-0.61,2.63,0.37c-0.35,1.58-0.1,1.58-0.75,3.01
			c0.59,0.79,0.87,1.89,2.26,1.88c0.39-1.61,0.21-1.45-0.38-2.63c0.28-1.97,3.39-1.12,3.76-3.01c-1.41-0.85-3.76,0.81-4.14-1.5
			c-0.15-0.9,1.71,0.21,1.13-1.13c-1.85,0.73-4.96,0.46-5.26-1.5c1.22-0.54,2.56-0.95,4.14-1.13c0.83,0.87,0.33,1.01,0.75,1.88
			c2.03-0.46,2.86,1.06,5.26,0.75c0.27-1.03-0.75-0.76-0.75-1.5c1.8-0.46,2.94-1.58,5.26-1.5c-0.98-0.9-1.21-2.55-2.63-3.01
			c0.88,3.51-3.01,2.25-3.38,4.51c-2.17-0.38-3.37-2.3-3.76-3.38c-2.32,2.34-6.35-0.4-7.52-1.88c-1.15-0.27-1.11,0.65-2.26,0.37
			c-0.16-0.72-1.07-0.68-0.75-1.88c-1.04-0.34-2.64-0.12-3.38-0.75c1.05-0.33,1.86-0.9,3.01-1.13c1.39,0.75,1.44,2.82,3.39,3.01
			c-0.06-1.24-1.2-1.25,2.01-1.87c0.24,0.14,0.39,0.23,0.62,0.38c0.31,1.33-1.09,2.24,0.37,2.62c0.96-0.92,3.03-0.73,4.14-1.5
			c0.48,1.01,0.6,1.79,1.88,1.13c0.28-1.41-1.44-0.82-1.5-1.88c2.23-0.59,1.33-1.98,3.01-3.01c-0.78-0.48-1.91-0.6-1.88-1.88
			c0.67-0.48,3.51-0.72,4.14,0c0.2,1.33-1.33,0.93-1.13,2.26c0.86-0.1,1.41,0.09,1.5,0.75c-1.09,1.54-2.24,3.02-3.01,4.89
			c1.2,0.93,2.22-0.84,4.14-0.38c0.14-1.4-1.81-0.7-1.88-1.88c2.2-3.29,8.81-0.74,11.28-1.88c-1.83-0.86-5.36-1.39-4.13-4.14
			c-1.51,0.25-0.69,2.82-2.63,2.63c-1.92-2.61-5.55-3.1-7.52-6.39c0.52-0.74,2.27-0.24,2.26-1.5c-0.44-0.18-0.85-0.4-1.13-0.75
			c-1.53-0.15-1.16,1.6-2.26,1.88c-2.53-0.83-7.1,2.2-9.4-1.88c2.5-0.03,4.87-0.18,7.41-0.47l-0.08,1.04
			c0.34-0.38,0.71-0.77,1.12-1.17c1.91-0.24,3.94-0.54,6.22-0.91c0.12,0.89,1.3,0.7,1.13,1.88c-1.08,0.85-0.38,1.8-0.75,3.76
			c1.6-0.22,2.63,0.12,2.26,1.88c2.57,0.19,3.59-1.17,5.26-1.88c-1.31-0.37-2.54-1.57-1.13-2.63c-1.59,0.8-2.86-0.53-3.76-1.5
			c0.45-0.43,0.68-1.07,1.88-0.75c-0.54-1.09-1.39-1.86-2.63-2.25c0.07,1.07,0.05,2.05-1.13,1.88c-1.12-0.95-2.49-1.65-3.57-2.65
			c0.46-0.35,0.94-0.7,1.44-1.06c2.76,0.38,5.59,1.5,7.76-0.43c-1.53-1.83-4.57,0-6.75-0.28c15.45-10.64,44.15-22.66,44.15-22.66
			c-6.59-2.27-13.49-2.19-18.31-1.68l0.07-0.06c26.95-6.87,40.01-26.07,43.54-32.13c0.33-0.56-0.21-1.22-0.82-1.02
			c-5.56,1.75-17.9,1.38-17.9,1.38c19.73-1.63,34.82-17.69,39.5-23.26c0.41-0.49-0.07-1.21-0.68-1.01
			c-8.77,2.89-23.97,1.75-23.97,1.75l-1.37-0.36c20.42-3.24,34.18-11.64,39.91-15.74c0.85-0.61,0.33-1.94-0.7-1.82
			c-13.9,1.52-30.42-0.51-30.42-0.51c41.09-6.37,56.22-24.82,60.81-32.41c0.56-0.93-0.47-2-1.43-1.48
			c-18.02,9.72-38.41,8.04-38.41,8.04l13.72-4.6c30.24-13.09,39.84-29.98,42.24-35.37c0.26-0.57-0.36-1.14-0.91-0.84
			c-11.83,6.46-29.19,12.65-29.19,12.65c16.19-10.8,24.66-28.39,28.38-38.35c0.66-1.76-1.54-3.18-2.88-1.85
			c-18.26,18.16-38.77,25.56-38.77,25.56l-3.61,1.52l5.49-2.5c24.06-9.59,48.06-58.82,48.06-58.82l-94.51,79.08
			c-0.8,0.59-1.55,1.22-2.27,1.88l-0.16,0.13l0.03-0.02c-5.33,4.95-8.67,11.51-13.37,17.3c-2.29,2.83-5,5.84-7.52,8.65
			c-20.07,22.43-41.24,42.78-62.79,63.17c0.01,0.03-0.17,0.11-0.16,0.14l-3.46,3.63c-0.84,0.6-1.25,1.07-2.02,1.86 M299.61,344.91
			l0.03,0.12c-0.08-0.05-0.17-0.1-0.25-0.16L299.61,344.91z M311.9,289.42l-0.04,0.04c-0.02-0.02-0.05-0.04-0.07-0.06
			C311.83,289.41,311.87,289.42,311.9,289.42z"/>
		
			<linearGradient id="SVGID_00000098907266519582251930000002150538546449706685_" gradientUnits="userSpaceOnUse" x1="334.3647" y1="323.9003" x2="423.4854" y2="118.0856">
			<stop  offset="0" style="stop-color:#A7711B"/>
			<stop  offset="0.2151" style="stop-color:#C19729"/>
			<stop  offset="0.3965" style="stop-color:#FAE057"/>
			<stop  offset="0.5782" style="stop-color:#DCB83E"/>
			<stop  offset="0.7438" style="stop-color:#CDA432"/>
			<stop  offset="1" style="stop-color:#A77216"/>
		</linearGradient>
		<path style="fill:url(#SVGID_00000098907266519582251930000002150538546449706685_);" d="M455.19,187.4
			c-11.83,6.46-29.19,12.65-29.19,12.65c16.19-10.8,24.66-28.39,28.38-38.35c0.66-1.76-1.54-3.18-2.88-1.85
			c-18.26,18.16-38.77,25.56-38.77,25.56l-3.61,1.52l5.49-2.5c24.06-9.59,48.06-58.82,48.06-58.82l-14.41,12.05l-0.57,1.06
			c0,0-18.03,41.74-54.14,55.33c0,0,21.83-0.66,36.91-11.13c0,0-22.54,27.62-43.99,34.17c0,0,16.32,5.59,24.75,0.02
			c0,0-12.97,13.75-43.61,24.64c0,0,34.85-5.94,47-10.06c0,0-13.91,15.67-65.05,30.04c0,0,25.83-0.07,31.58-1.71
			c0,0-29.35,18.05-54.89,23.47c0,0,40.25-0.87,44.55-3.82c0,0-18.31,18.34-47.94,27.18c0,0,24.75,3.93,29.33,0
			c0,0-15.41,17.66-50,21.97c0,0,18.05,2.89,25.57,1.4c0,0-15.41,17.84-66.36,16.72l44.18,16.18
			c15.72-10.39,44.74-34.59,44.74-34.59c-6.59-2.27-13.49-2.19-18.31-1.68l0.07-0.06c26.95-6.87,40.01-26.07,43.54-32.13
			c0.33-0.56-0.21-1.22-0.82-1.02c-5.56,1.75-17.9,1.38-17.9,1.38c19.73-1.63,34.82-17.69,39.5-23.26c0.41-0.49-0.07-1.21-0.68-1.01
			c-8.77,2.89-23.97,1.75-23.97,1.75l-1.37-0.36c20.42-3.24,34.18-11.64,39.91-15.74c0.85-0.61,0.33-1.94-0.7-1.82
			c-13.9,1.52-30.42-0.51-30.42-0.51c41.09-6.37,56.22-24.82,60.81-32.41c0.56-0.93-0.47-2-1.43-1.48
			c-18.02,9.72-38.41,8.04-38.41,8.04l13.72-4.6c30.24-13.09,39.84-29.98,42.24-35.37C456.36,187.66,455.74,187.1,455.19,187.4z
			 M299.39,344.86l0.22,0.04l0.03,0.12C299.55,344.97,299.47,344.92,299.39,344.86z"/>
		
			<linearGradient id="SVGID_00000082362922294286057480000015680177565548430510_" gradientUnits="userSpaceOnUse" x1="101.1256" y1="402.8164" x2="223.7277" y2="198.2331">
			<stop  offset="0" style="stop-color:#BF561B"/>
			<stop  offset="0.0736" style="stop-color:#BF5C1C"/>
			<stop  offset="0.1721" style="stop-color:#C06D20"/>
			<stop  offset="0.2842" style="stop-color:#C18926"/>
			<stop  offset="0.3324" style="stop-color:#C19729"/>
			<stop  offset="0.5782" style="stop-color:#DCB83E"/>
			<stop  offset="0.7438" style="stop-color:#CDA432"/>
			<stop  offset="1" style="stop-color:#A77216"/>
		</linearGradient>
		<path style="fill:url(#SVGID_00000082362922294286057480000015680177565548430510_);" d="M216.1,368.36
			c-1.26-1.97-3.74-2.71-5.77-3.91c-3.42-2.35-2.5-7.74-2.5-7.74c-2.31-2.45-4.49-5.03-7.14-7.15c-10.3,3.15-22.36,2.43-33.46,3.38
			c-16.36,1.41-33.9,4.9-48.88,6.02c-7.18,0.54-12.59,2.92-17.18,6.14l-14.76,9.34c0,0-39.75,22.96-72.76,12.7
			c0,0,26.85,20.45,80.26-3.74c0,0-13.56,13.11-37.63,16.54c0,0,29.16,10.92,55.99-12.14c-2.82,6.49-8.27,17.37-13.48,18.53
			c0,0,29.53-1.43,39.68-20.68c0,0,0.3,9.12-5.09,12.78c0,0,20.21-3.1,31.54-16.7c-0.08,3.62-0.84,13.35-6.72,16.7
			c0,0,17.26-2.85,29.97-10.53l0,0c7-3.61,18.91-16.54,18.91-16.54c1.99,2.02,1.65,8.37,4.89,7.9c-0.24-0.13-0.46-0.28-0.66-0.45
			l0.66,0.45l3.76-6.02C215.24,371.81,214.16,369.02,216.1,368.36z M210.46,377.76C210.46,377.76,210.46,377.76,210.46,377.76
			l0.03,0.04C210.48,377.79,210.47,377.77,210.46,377.76z"/>
		<g>
			<polygon class="st3" points="81.4,377.29 81.4,377.29 81.4,377.29 			"/>
			<path class="st3" d="M207.82,356.7c-2.31-2.45-4.49-5.03-7.14-7.15c-10.3,3.15-22.36,2.43-33.46,3.38
				c-16.36,1.41-33.9,4.9-48.88,6.02c-7.18,0.54-12.59,2.92-17.18,6.14l-22.39,13.19c7.26-3.53,28.69-13.22,43.5-14.83l64.19-5.02"
				/>
		</g>
		<path class="st1" d="M208.13,314.43l22.63,4.02c0,0,20.41,3.53,25.74-0.4c0,0-5.04,7.7-2.49,15.8l-13.84-7.67l-25.57-4.97
			L208.13,314.43z"/>
		<path class="st3" d="M193.54,332.64c0,0,7.97,14.39,24.95,25c0,0,6.45,5.34,10.77,7.33c0,0-0.9-5.42-1.31-8.27
			c0,0,1.34,2.98,15.97,3.01c0,0-5.48-5.41-6.02-9.4c0,0,3.76,5.35,15.04,2.38c0,0-3.78-2.02-5.64-5.78l-5.26-12.51l-31.58-7.05
			l-10.97,6.52L193.54,332.64z"/>
		<path class="st6" d="M350.32,328.5c0,0-54.26,28.98-91.46,18.05l-6.29,9.36h-4.89l-1.49,3.94l-5.28,3.61l-10.33-2.63l-0.79,6.86
			l-4.67,0.28l-2.25,6.46l11.28,14.38l17.67,4.49l26.32,0.23l20.3,3.76l17.48,25.19h26.88l25.08-16.62l-15.3-17.59l-25.57-6.01
			l-10.86-7.38l17.25-16.66l11.91-13.37L350.32,328.5z"/>
		
			<linearGradient id="SVGID_00000152983911854428178620000015438407383246567046_" gradientUnits="userSpaceOnUse" x1="216.3763" y1="362.3878" x2="241.4876" y2="290.0081">
			<stop  offset="0" style="stop-color:#D0711B"/>
			<stop  offset="0.2151" style="stop-color:#C19729"/>
			<stop  offset="0.3965" style="stop-color:#FAE057"/>
			<stop  offset="0.5782" style="stop-color:#DCB83E"/>
			<stop  offset="0.7438" style="stop-color:#CDA432"/>
			<stop  offset="1" style="stop-color:#A77216"/>
		</linearGradient>
		<path style="fill:url(#SVGID_00000152983911854428178620000015438407383246567046_);" d="M252.95,352.7c0,0-3.78-2.02-5.64-5.78
			l-5.26-12.51l-31.58-7.05L199.93,330c-0.03,1.76-2.84,1.73-2.84,1.73c-3.97,0.05-3.55,0.91-3.55,0.91s7.97,14.39,24.95,25
			c0,0,6.45,5.34,10.77,7.33c0,0-0.9-5.42-1.31-8.27c0,0,1.34,2.98,15.97,3.01c0,0-5.48-5.41-6.02-9.4
			C237.91,350.31,241.67,355.66,252.95,352.7z"/>
		<path class="st3" d="M232.31,347.48c0,0-3.43-7.7,16.05,1.18l-4.77-18.19l-24.49-4.29l-11.29-1.69l-7.89,5.52
			c0,0,5.22,1.39,14.52,6.45l-1.43-7.72"/>
		<g>
			
				<linearGradient id="SVGID_00000056394638420586422760000015089935272789039803_" gradientUnits="userSpaceOnUse" x1="308.2147" y1="405.6363" x2="332.2768" y2="405.6363">
				<stop  offset="0" style="stop-color:#A7711B"/>
				<stop  offset="0.2151" style="stop-color:#C19729"/>
				<stop  offset="0.3965" style="stop-color:#FAE057"/>
				<stop  offset="0.5782" style="stop-color:#DCB83E"/>
				<stop  offset="0.7438" style="stop-color:#CDA432"/>
				<stop  offset="1" style="stop-color:#A77216"/>
			</linearGradient>
			<path style="fill-rule:evenodd;clip-rule:evenodd;fill:url(#SVGID_00000056394638420586422760000015089935272789039803_);" d="
				M308.21,398.58c0.27,11.87,7.9,12.78,7.9,12.78c-0.02-0.3-0.15-0.59-0.31-0.88l-1.03-2.94c0.05-0.1,0.12-0.21,0.21-0.32
				c3.93,0.79,5.32,7.43,10.15,4.89c-1.24-2.27-4.35-2.67-4.89-5.64c4.02-0.6,6.79,6.02,12.03,3.01
				C327.71,402.4,316.25,402.2,308.21,398.58z"/>
			
				<linearGradient id="SVGID_00000092449717803818832350000006858514439736955782_" gradientUnits="userSpaceOnUse" x1="319.7332" y1="393.3817" x2="344.3087" y2="393.3817">
				<stop  offset="0" style="stop-color:#A7711B"/>
				<stop  offset="0.2151" style="stop-color:#C19729"/>
				<stop  offset="0.3965" style="stop-color:#FAE057"/>
				<stop  offset="0.5782" style="stop-color:#DCB83E"/>
				<stop  offset="0.7438" style="stop-color:#CDA432"/>
				<stop  offset="1" style="stop-color:#A77216"/>
			</linearGradient>
			<path style="fill-rule:evenodd;clip-rule:evenodd;fill:url(#SVGID_00000092449717803818832350000006858514439736955782_);" d="
				M334.16,390.69c3.94-0.5,6.7,3.14,10.15,0.75c-0.74-1.21-2.76-2.78-2.63-0.75c-1.83-2.4-2.29-1.31-4.14-3.76
				c-3.37-3.98-17.81-2.7-17.81-2.7l1.26,1.95c2.25,3.28,4.18,7.34,6.76,10.61l0.01,0.01l0,0c2.81,3.56,6.4,6.2,12.03,5.92
				c0-0.5,0-1,0-1.5c-3.31-0.7-5.78-2.24-7.14-4.89c2.8-0.89,9.29,4.53,10.9-0.75C339.92,395.38,335.83,393.92,334.16,390.69z"/>
		</g>
		<path class="st12" d="M339.8,402.72"/>
	</g>
</g>
</svg>
